<?xml version="1.0" standalone="no"?>
<!DOCTYPE svg PUBLIC "-//W3C//DTD SVG 20010904//EN"
 "http://www.w3.org/TR/2001/REC-SVG-20010904/DTD/svg10.dtd">
<svg version="1.0" xmlns="http://www.w3.org/2000/svg"
 width="1440.000000pt" height="618.000000pt" viewBox="0 0 1440.000000 618.000000"
 preserveAspectRatio="xMidYMid meet">

<g transform="translate(0.000000,618.000000) scale(0.100000,-0.100000)"
fill="#000000" stroke="none">
<path d="M9193 5391 c-21 -28 -24 -29 -140 -34 -74 -3 -136 -11 -165 -22 -51
-18 -118 -83 -118 -114 0 -11 -12 -23 -31 -31 -44 -19 -63 -53 -61 -112 1 -49
40 -149 76 -193 15 -19 17 -19 27 -2 5 9 21 17 35 17 26 0 44 -30 44 -76 0
-20 5 -24 30 -24 34 0 34 -3 19 74 -9 53 -8 61 17 112 20 42 25 63 20 92 l-6
39 81 -5 c150 -9 240 32 290 129 26 51 24 61 -6 53 -24 -6 -25 -4 -20 18 7 27
-15 123 -22 98 -13 -44 -14 -45 -29 -17 -8 15 -16 27 -17 27 -2 0 -13 -13 -24
-29z"/>
<path d="M2125 5048 c-43 -79 -84 -151 -93 -160 -13 -16 -12 -18 11 -29 14 -6
32 -9 39 -6 7 3 46 67 87 142 63 116 73 141 65 163 -5 14 -14 27 -20 29 -7 2
-47 -60 -89 -139z"/>
<path d="M12535 5008 c-20 -17 -49 -56 -65 -87 -24 -46 -28 -50 -23 -24 9 51
-4 85 -30 81 -29 -4 -46 -54 -46 -140 -1 -38 -3 -68 -5 -68 -2 0 -32 13 -66
29 -71 34 -148 47 -212 36 l-43 -8 43 -13 c65 -19 118 -60 162 -126 40 -60 58
-126 46 -173 -9 -34 -61 -36 -70 -2 -8 34 -72 104 -119 132 -53 30 -170 51
-223 39 -31 -8 -42 -17 -61 -54 -30 -60 -43 -133 -43 -250 0 -106 10 -148 47
-198 58 -78 192 -102 288 -50 28 15 60 29 73 33 16 5 22 14 22 34 0 23 11 37
54 69 105 80 175 193 184 298 l5 62 91 -5 c137 -8 199 24 146 77 -16 16 -33
20 -81 20 l-62 0 74 38 c83 42 103 72 47 72 -18 0 -48 -9 -67 -21 -34 -20 -34
-20 11 33 82 96 96 143 52 177 -40 31 -86 27 -129 -11z m-475 -763 c0 -12 -63
-35 -95 -35 -32 0 -95 23 -95 35 0 3 43 5 95 5 52 0 95 -2 95 -5z"/>
<path d="M4878 5023 l-28 -4 0 -270 c0 -226 3 -275 16 -300 17 -34 67 -59 118
-59 26 0 35 5 40 23 11 40 7 77 -8 77 -8 0 -22 7 -30 16 -14 13 -16 52 -16
270 l0 254 -32 -1 c-18 -1 -45 -4 -60 -6z"/>
<path d="M9197 5012 c-10 -10 -17 -20 -17 -23 0 -2 25 -4 55 -4 60 0 67 6 33
29 -29 21 -51 20 -71 -2z"/>
<path d="M8979 4991 c-32 -26 -22 -33 26 -20 21 6 55 9 74 5 l36 -5 -24 19
c-30 25 -82 26 -112 1z"/>
<path d="M3470 4680 l0 -290 200 0 200 0 0 55 0 55 -140 0 -140 0 0 70 0 70
115 0 115 0 0 55 0 55 -115 0 -115 0 0 55 0 55 130 0 130 0 0 55 0 55 -190 0
-190 0 0 -290z"/>
<path d="M5643 4948 l-53 -10 0 -219 c0 -196 2 -224 19 -257 33 -65 111 -92
207 -72 49 10 54 14 54 38 0 63 -6 69 -69 64 -81 -6 -91 10 -91 140 l0 98 75
0 75 0 0 50 0 50 -75 0 -75 0 0 65 c0 36 -3 64 -7 64 -5 -1 -32 -6 -60 -11z"/>
<path d="M9281 4899 c-1 -9 -8 -22 -16 -29 -13 -10 -19 -9 -37 6 -21 19 -21
19 -9 -3 6 -13 20 -23 31 -23 21 0 44 34 36 53 -2 7 -5 5 -5 -4z"/>
<path d="M9081 4864 c-1 -30 -30 -38 -54 -17 -19 18 -20 17 -8 -4 21 -40 79
-19 68 24 -4 15 -5 14 -6 -3z"/>
<path d="M4072 4829 c-46 -14 -115 -85 -130 -135 -35 -119 6 -241 99 -289 41
-22 120 -28 183 -15 l57 12 -6 41 c-4 23 -9 45 -11 49 -3 4 -27 4 -53 1 -111
-13 -153 17 -154 110 -1 72 22 113 72 127 21 5 45 8 52 6 62 -19 66 -18 78 29
6 24 11 46 11 49 0 10 -76 26 -120 25 -25 0 -60 -5 -78 -10z"/>
<path d="M4460 4829 c-44 -18 -90 -59 -112 -102 -31 -57 -31 -163 -1 -228 60
-131 252 -158 346 -48 99 115 63 311 -67 370 -44 20 -126 24 -166 8z m138
-125 c18 -20 22 -37 22 -85 0 -90 -26 -129 -85 -129 -58 0 -85 39 -85 122 0
112 82 163 148 92z"/>
<path d="M5215 4821 c-83 -38 -125 -111 -125 -213 1 -162 115 -248 292 -220
39 6 74 14 79 19 14 14 -5 99 -22 94 -8 -2 -45 -6 -84 -8 -78 -4 -127 16 -138
56 -5 21 -2 21 133 21 130 0 139 1 145 20 15 49 -20 164 -62 202 -53 48 -149
61 -218 29z m125 -91 c19 -10 43 -64 33 -74 -4 -3 -39 -6 -80 -6 -71 0 -73 1
-73 24 0 47 73 81 120 56z"/>
<path d="M6005 4833 c-43 -6 -48 -16 -41 -66 l7 -45 42 10 c88 20 157 -4 157
-54 0 -16 -9 -18 -70 -18 -125 0 -180 -42 -180 -135 0 -59 21 -95 72 -121 33
-17 135 -21 236 -9 l62 7 0 156 c0 132 -3 164 -19 198 -33 71 -122 97 -266 77z
m165 -303 l0 -50 -46 0 c-61 0 -84 14 -84 50 0 37 21 49 83 50 l47 0 0 -50z"/>
<path d="M9167 4436 c-70 -63 -194 -66 -268 -6 -42 34 -69 37 -146 16 -78 -21
-134 -56 -155 -97 -31 -61 -41 -321 -28 -744 7 -198 13 -362 15 -363 38 -39
677 -55 829 -22 l59 13 -7 66 c-3 36 -6 101 -6 145 l0 78 -37 -7 c-20 -3 -90
-22 -155 -41 -173 -50 -253 -66 -348 -67 -74 -2 -90 1 -124 22 -44 28 -106
117 -136 199 -32 85 -68 216 -76 271 l-6 49 128 31 c111 27 129 29 137 16 7
-13 12 -12 35 5 42 30 554 127 626 118 20 -2 36 -2 36 2 0 29 -33 199 -44 223
-29 68 -115 115 -224 123 -65 5 -68 4 -105 -30z"/>
<path d="M1777 4373 c-52 -82 -54 -90 -34 -117 12 -17 18 -11 60 62 26 45 47
84 47 87 0 3 -11 5 -25 5 -18 0 -31 -11 -48 -37z"/>
<path d="M2085 4275 l0 -135 38 0 37 0 0 135 0 135 -37 0 -38 0 0 -135z"/>
<path d="M2581 4378 c7 -13 20 -35 30 -50 11 -14 19 -41 19 -58 0 -39 -35
-104 -64 -119 -18 -10 -14 -11 22 -7 53 5 67 17 98 78 l24 48 -42 65 c-36 54
-48 65 -71 65 -26 0 -27 -2 -16 -22z"/>
<path d="M10663 3962 c-56 -19 -104 -41 -107 -48 -7 -19 14 -74 28 -74 7 0 18
-11 24 -25 11 -23 9 -26 -16 -35 -107 -39 -142 -72 -144 -137 -1 -35 99 -328
139 -406 18 -36 69 -67 112 -67 30 0 432 134 482 161 28 14 59 68 59 101 0 15
-13 64 -30 110 -16 45 -30 85 -30 90 0 24 51 0 123 -59 168 -136 290 -203 339
-184 43 16 94 68 154 156 l57 84 -19 51 c-18 47 -24 53 -81 80 l-62 29 -53
-100 c-29 -54 -55 -98 -58 -96 -203 103 -284 141 -367 172 -57 21 -103 44
-103 51 0 25 -52 74 -90 85 -35 11 -49 9 -120 -15 -44 -15 -84 -24 -90 -21 -6
4 -10 19 -9 33 3 37 -10 89 -24 95 -7 2 -58 -11 -114 -31z m374 -117 c30 -21
51 -89 33 -110 -9 -11 -9 -15 -1 -15 8 0 10 -8 6 -20 -3 -11 -2 -20 3 -20 5 0
8 -10 8 -22 -1 -15 6 -24 23 -28 33 -8 98 -181 81 -218 -5 -13 -16 -22 -22
-20 -10 4 -178 437 -178 460 0 13 24 9 47 -7z m118 -85 c3 -5 -1 -10 -9 -10
-9 0 -16 5 -16 10 0 6 4 10 9 10 6 0 13 -4 16 -10z"/>
<path d="M8855 3930 c4 -19 9 -36 10 -38 2 -2 18 1 36 6 l34 9 -30 12 c-16 7
-36 20 -43 29 -12 15 -13 12 -7 -18z"/>
<path d="M12447 3617 c-118 -9 -128 -11 -132 -31 -2 -11 -9 -86 -16 -164 l-13
-144 -65 7 c-36 4 -86 11 -110 17 -53 13 -49 17 -125 -132 -50 -98 -146 -326
-146 -346 0 -5 10 -14 23 -19 20 -9 22 -17 25 -109 2 -62 -1 -103 -8 -112 -7
-7 -35 -14 -63 -16 l-52 -3 -3 -162 c-2 -126 1 -170 12 -198 27 -63 89 -147
179 -241 l88 -93 -50 -278 c-28 -153 -51 -281 -51 -284 0 -4 16 -10 36 -14 86
-16 81 -5 68 -165 -7 -78 -16 -146 -20 -150 -5 -5 -58 -30 -119 -55 -60 -26
-117 -53 -125 -61 -12 -12 -9 -14 27 -14 58 0 312 50 325 64 6 6 38 76 72 156
53 122 65 144 82 141 10 -2 25 -4 33 -5 10 -1 29 44 60 137 25 75 48 136 52
135 3 -2 50 -44 103 -94 l97 -91 -36 -124 c-45 -155 -44 -184 5 -114 19 28 62
99 96 159 l61 109 -72 131 c-40 72 -93 168 -118 212 l-46 81 75 229 c159 487
211 707 200 845 -12 148 -69 295 -161 417 -44 59 -50 63 -77 56 -19 -4 -28 -2
-24 4 6 11 56 287 56 314 0 10 -3 17 -7 16 -5 0 -65 -6 -136 -11z"/>
<path d="M3738 3243 l-28 -4 0 -205 0 -204 40 0 40 0 0 61 c0 72 9 70 62 -12
30 -46 34 -49 75 -49 24 0 43 4 43 8 0 11 -55 89 -88 125 l-26 27 52 53 c29
29 52 56 52 60 0 4 -19 7 -42 7 -37 0 -47 -5 -85 -47 l-42 -48 -1 118 c0 87
-3 117 -12 116 -7 -1 -25 -4 -40 -6z"/>
<path d="M4912 3243 l-33 -4 3 -186 c3 -180 4 -185 27 -204 13 -10 38 -19 57
-19 31 0 34 3 34 30 0 19 -7 33 -20 40 -19 10 -20 21 -20 180 0 94 -3 169 -7
168 -5 0 -23 -3 -41 -5z"/>
<path d="M1694 3201 c-59 -26 -83 -114 -44 -163 10 -14 47 -36 80 -48 69 -26
91 -53 66 -79 -19 -18 -102 -20 -132 -3 -15 9 -21 5 -31 -20 -7 -16 -11 -34
-8 -38 10 -16 114 -31 162 -24 67 10 103 47 103 108 0 58 -26 88 -105 120 -69
28 -86 46 -65 71 11 13 25 16 60 12 25 -2 51 -6 59 -8 19 -5 37 49 22 64 -14
14 -139 20 -167 8z"/>
<path d="M4350 3190 l-35 -5 -3 -132 c-3 -159 7 -195 64 -219 37 -16 108 -12
119 6 3 5 3 20 -1 34 -5 21 -10 24 -37 20 -52 -8 -62 6 -62 83 l0 68 48 3 c45
3 47 5 47 32 0 27 -2 29 -47 32 -48 3 -48 3 -53 43 -5 39 -6 40 -40 35z"/>
<path d="M2010 3104 c-49 -31 -65 -64 -65 -136 0 -60 3 -70 30 -98 35 -37 91
-53 149 -45 57 9 65 15 59 46 -5 25 -7 26 -70 25 -52 -1 -67 3 -78 18 -8 10
-12 23 -9 27 3 5 43 9 90 9 l84 0 0 40 c0 80 -49 130 -127 130 -21 0 -49 -8
-63 -16z m108 -72 c21 -27 14 -32 -43 -32 -57 0 -64 5 -42 32 23 30 60 30 85
0z"/>
<path d="M2748 3113 l-28 -4 0 -140 0 -139 35 0 35 0 0 110 0 110 28 0 c46 0
52 -15 52 -122 l0 -98 40 0 40 0 0 110 0 110 30 0 c40 0 50 -27 50 -136 l0
-84 41 0 41 0 -4 116 -3 116 -34 30 c-31 28 -38 30 -85 23 -59 -7 -69 -7 -151
-1 -33 2 -72 2 -87 -1z"/>
<path d="M3208 3113 c-19 -5 -23 -29 -10 -50 5 -8 26 -12 54 -11 47 2 78 -13
78 -38 0 -10 -7 -13 -24 -8 -29 7 -100 -11 -121 -32 -37 -37 -26 -109 21 -135
26 -14 145 -16 184 -4 21 7 22 11 18 117 -3 110 -4 110 -36 139 -28 25 -40 29
-90 28 -31 -1 -65 -3 -74 -6z m122 -193 c0 -28 -2 -30 -40 -30 -27 0 -43 5
-46 15 -10 24 15 45 52 45 31 0 34 -3 34 -30z"/>
<path d="M3513 3109 l-33 -10 0 -134 0 -135 40 0 40 0 0 111 0 111 45 -4 c42
-3 45 -2 51 26 4 19 2 31 -7 37 -18 11 -95 10 -136 -2z"/>
<path d="M4053 3100 c-43 -26 -63 -68 -63 -130 0 -63 20 -104 63 -127 33 -17
113 -23 158 -11 22 6 25 12 21 38 -4 30 -5 30 -56 25 -56 -6 -99 9 -104 38 -3
15 7 17 87 17 l91 0 0 41 c0 104 -108 164 -197 109z m116 -76 c10 -24 10 -24
-44 -24 -57 0 -64 5 -42 32 26 33 69 30 86 -8z"/>
<path d="M4588 3113 l-28 -4 0 -190 0 -189 40 0 40 0 0 50 0 50 56 0 c49 0 59
4 84 30 48 52 52 149 8 205 -39 49 -98 63 -200 48z m126 -78 c22 -22 29 -52
22 -91 -8 -39 -36 -59 -72 -50 -23 6 -24 11 -24 81 l0 75 29 0 c16 0 36 -7 45
-15z"/>
<path d="M5087 3113 c-13 -3 -17 -12 -15 -31 3 -25 6 -27 55 -28 54 -1 83 -15
83 -41 0 -11 -7 -13 -25 -9 -31 8 -99 -9 -120 -30 -37 -37 -26 -109 21 -135
26 -14 145 -16 184 -4 22 7 22 11 18 118 -5 109 -5 110 -36 139 -28 24 -40 28
-90 27 -31 -1 -65 -3 -75 -6z m123 -194 c0 -29 -1 -30 -42 -27 -33 2 -44 8
-46 22 -5 24 14 36 56 36 29 0 32 -3 32 -31z"/>
<path d="M5423 3104 c-47 -24 -73 -71 -73 -133 0 -29 7 -65 14 -80 27 -52 93
-78 167 -66 38 7 40 9 37 38 -3 31 -4 32 -50 29 -37 -3 -51 1 -67 17 -26 26
-28 86 -5 119 13 20 24 23 62 21 43 -3 46 -2 54 26 4 16 5 31 3 34 -14 13
-113 10 -142 -5z"/>
<path d="M5684 3111 c-32 -14 -73 -68 -80 -106 -22 -117 62 -197 187 -180 55
8 64 16 55 51 -6 23 -9 24 -56 18 -54 -7 -100 12 -100 41 0 12 17 15 90 15
l90 0 0 30 c0 39 -22 90 -49 114 -23 21 -104 31 -137 17z m84 -67 c39 -27 28
-44 -28 -44 -37 0 -50 4 -50 14 0 13 36 46 50 46 3 0 16 -7 28 -16z"/>
<path d="M2270 3000 c0 -107 1 -111 29 -142 27 -31 32 -32 97 -32 120 2 114
-6 114 150 l0 134 -40 0 -40 0 0 -110 0 -110 -29 0 c-44 0 -55 22 -59 126 l-4
94 -34 0 -34 0 0 -110z"/>
<path d="M9116 2802 c-90 -1 -155 -7 -163 -14 -9 -7 -13 -40 -13 -114 0 -95 2
-104 21 -115 13 -6 39 -8 64 -5 l42 7 7 -78 c3 -43 17 -316 31 -608 13 -291
27 -560 30 -597 4 -56 3 -68 -10 -68 -8 0 -24 -9 -35 -20 -18 -18 -20 -33 -20
-154 0 -120 2 -136 21 -160 40 -51 119 -21 119 45 0 26 3 30 18 23 9 -5 183
-10 387 -12 303 -2 377 0 412 12 l43 15 0 -25 c0 -32 42 -74 75 -74 14 0 34 9
45 20 18 18 20 33 20 160 0 127 -2 142 -20 160 -11 11 -27 20 -35 20 -19 0
-19 19 0 745 8 308 15 570 15 583 0 20 5 22 49 22 71 0 81 14 81 110 0 43 -4
90 -10 105 l-10 26 -507 -3 c-280 -2 -575 -4 -657 -6z m606 -512 c16 -16 33
-30 38 -30 11 0 -8 -61 -24 -76 -7 -8 -28 -9 -61 -4 -27 4 -44 8 -37 9 16 1
15 13 -2 36 -12 17 -15 15 -40 -28 l-28 -47 -49 26 c-32 16 -47 29 -43 37 28
47 67 97 76 97 7 0 23 -10 37 -22 22 -20 23 -20 8 -2 -9 11 -17 24 -17 27 0 4
25 7 56 7 48 0 59 -4 86 -30z m98 -157 c34 -56 36 -68 13 -82 -10 -6 -13 -11
-6 -11 6 0 -2 -24 -19 -55 -26 -49 -34 -56 -69 -61 -21 -4 -39 -12 -39 -18 -1
-11 -59 54 -60 66 0 4 10 23 21 43 15 26 25 33 32 26 6 -6 34 -10 62 -10 28 1
38 4 23 6 -19 3 -38 18 -58 48 l-30 44 42 25 c24 14 46 26 50 26 5 0 21 -21
38 -47z m-283 -21 c18 -30 21 -40 10 -36 -11 4 -25 -12 -49 -56 l-35 -60 -31
50 c-31 49 -31 52 -17 87 8 19 13 39 10 43 -6 10 28 18 64 16 16 -1 31 -14 48
-44z m83 -132 l0 -50 -65 0 c-76 0 -87 12 -62 66 16 33 19 34 72 34 l55 0 0
-50z"/>
<path d="M5731 2578 c-57 -65 -20 -94 46 -35 36 34 38 49 5 65 -13 7 -25 -1
-51 -30z"/>
<path d="M1838 2603 c-27 -4 -28 -6 -28 -68 l0 -63 -40 5 c-85 12 -141 -44
-142 -140 -1 -101 50 -151 152 -151 31 1 68 4 83 8 l27 6 0 205 c0 158 -3 205
-12 204 -7 -1 -25 -4 -40 -6z m-30 -275 l3 -78 -31 0 c-43 0 -70 31 -70 81 0
62 14 81 58 77 l37 -3 3 -77z"/>
<path d="M3025 2601 l-30 -6 -3 -150 c-2 -83 0 -165 3 -183 8 -45 38 -72 79
-72 30 0 34 3 38 30 3 17 1 30 -3 30 -4 0 -15 7 -23 16 -13 13 -16 44 -16 180
0 90 -3 163 -7 163 -5 -1 -21 -4 -38 -8z"/>
<path d="M4338 2603 c-27 -4 -28 -6 -28 -67 l0 -64 -43 5 c-85 10 -139 -45
-140 -142 -1 -99 50 -150 148 -149 33 0 72 4 88 7 l27 7 0 205 c0 158 -3 205
-12 204 -7 -1 -25 -4 -40 -6z m-30 -275 l3 -78 -29 0 c-49 0 -74 28 -74 83 0
61 15 79 61 75 l36 -3 3 -77z"/>
<path d="M6065 2601 c-29 -6 -30 -8 -33 -67 l-3 -61 -42 4 c-135 14 -190 -186
-74 -271 23 -17 42 -21 102 -19 41 0 79 4 84 8 13 7 16 416 4 414 -5 -1 -21
-4 -38 -8z m-35 -271 c0 -78 -1 -80 -24 -80 -43 0 -71 33 -71 83 0 55 17 77
61 77 l34 0 0 -80z"/>
<path d="M3513 2552 l-33 -3 0 -147 c0 -98 4 -155 13 -172 16 -32 75 -52 128
-44 38 6 40 9 37 38 -3 29 -6 31 -36 28 -51 -5 -62 11 -62 89 l0 69 45 0 c43
0 45 1 45 30 0 29 -2 30 -45 30 l-45 0 0 39 c0 45 -3 48 -47 43z"/>
<path d="M2034 2470 c-32 -13 -72 -67 -80 -105 -22 -117 62 -197 187 -180 56
8 62 14 53 50 -6 24 -9 25 -54 19 -46 -6 -86 5 -102 30 -14 21 5 26 94 26 l91
0 -7 45 c-3 25 -11 55 -17 66 -25 47 -108 72 -165 49z m86 -70 c31 -31 24 -40
-34 -40 -48 0 -54 2 -49 19 4 16 34 38 56 40 4 1 16 -8 27 -19z"/>
<path d="M2473 2464 c-47 -24 -73 -71 -73 -133 0 -29 7 -65 14 -80 27 -52 93
-78 167 -66 38 7 40 9 37 38 -3 31 -4 32 -50 29 -37 -3 -51 1 -67 17 -26 26
-28 86 -5 119 13 20 24 23 62 21 43 -3 46 -2 54 26 4 16 5 31 3 34 -14 13
-113 10 -142 -5z"/>
<path d="M2719 2457 c-87 -58 -90 -197 -4 -253 91 -59 215 12 215 123 0 122
-116 194 -211 130z m115 -69 c29 -41 15 -121 -23 -133 -34 -11 -59 4 -71 41
-12 36 -7 79 12 101 17 21 65 16 82 -9z"/>
<path d="M3234 2470 c-32 -13 -72 -67 -80 -105 -22 -117 62 -197 187 -180 56
8 62 14 53 50 -6 24 -9 25 -54 19 -46 -6 -86 5 -102 30 -14 21 5 26 94 26 l91
0 -7 45 c-3 25 -11 55 -17 66 -25 47 -108 72 -165 49z m86 -70 c31 -31 24 -40
-34 -40 -48 0 -54 2 -49 19 4 16 34 38 56 40 4 1 16 -8 27 -19z"/>
<path d="M3738 2473 c-12 -3 -18 -14 -18 -34 0 -29 0 -29 54 -27 56 2 86 -12
86 -39 0 -11 -7 -14 -22 -9 -70 18 -148 -28 -148 -87 0 -71 65 -103 180 -89
l55 7 3 113 3 113 -30 29 c-26 27 -36 30 -88 29 -32 -1 -66 -3 -75 -6z m122
-193 c0 -28 -2 -30 -40 -30 -27 0 -43 5 -46 15 -12 30 4 45 46 45 38 0 40 -2
40 -30z"/>
<path d="M4518 2463 c-59 -37 -86 -139 -53 -203 33 -64 112 -92 194 -70 37 10
42 14 37 33 -3 12 -6 26 -6 30 0 5 -20 5 -45 1 -45 -6 -105 9 -105 27 0 5 0
12 0 17 0 4 39 9 87 12 l88 5 -3 39 c-7 81 -53 126 -129 126 -21 0 -50 -8 -65
-17z m102 -63 c32 -32 24 -40 -35 -40 -30 0 -55 4 -55 8 0 13 23 39 40 45 25
9 29 8 50 -13z"/>
<path d="M4943 2469 l-33 -10 0 -134 0 -135 40 0 40 0 0 111 0 111 45 -4 c42
-3 45 -2 51 26 4 19 2 31 -7 37 -18 11 -95 10 -136 -2z"/>
<path d="M5188 2465 c-42 -23 -68 -75 -68 -134 0 -64 20 -105 63 -128 33 -17
113 -23 158 -11 22 6 25 12 21 38 -4 30 -5 30 -56 25 -56 -6 -99 9 -104 38 -3
15 7 17 87 17 l91 0 0 43 c-1 51 -17 82 -56 108 -34 22 -98 24 -136 4z m111
-81 c10 -24 10 -24 -44 -24 -57 0 -64 5 -42 32 26 33 69 30 86 -8z"/>
<path d="M5485 2468 c-31 -16 -45 -39 -45 -71 0 -45 18 -67 77 -93 71 -32 66
-49 -15 -48 -57 1 -61 -1 -67 -24 -9 -37 7 -46 83 -46 78 -1 116 17 126 60 12
46 -11 81 -71 109 -39 19 -53 31 -51 43 3 13 15 17 53 17 45 0 50 2 53 24 2
13 -2 28 -10 32 -19 12 -109 10 -133 -3z"/>
<path d="M6563 2460 c-83 -50 -89 -201 -10 -253 64 -42 159 -24 197 38 27 43
27 128 0 172 -37 62 -124 82 -187 43z m109 -67 c39 -35 13 -143 -34 -143 -38
0 -58 28 -58 81 0 72 47 103 92 62z"/>
<path d="M6875 2468 c-31 -16 -45 -39 -45 -71 0 -45 18 -67 77 -93 71 -32 66
-49 -15 -48 -57 1 -61 -1 -67 -24 -9 -37 7 -46 83 -46 78 -1 116 17 126 60 12
46 -11 81 -71 109 -39 19 -53 31 -51 43 3 13 15 17 53 17 45 0 50 2 53 24 2
13 -2 28 -10 32 -19 12 -109 10 -133 -3z"/>
<path d="M5710 2330 l0 -140 40 0 40 0 0 140 0 140 -40 0 -40 0 0 -140z"/>
<path d="M6190 2371 c0 -114 8 -143 46 -168 29 -18 112 -23 167 -9 l27 6 0
135 0 135 -40 0 -40 0 0 -110 c0 -105 -1 -110 -21 -110 -11 0 -29 5 -40 10
-17 10 -19 22 -19 110 l0 100 -40 0 -40 0 0 -99z"/>
<path d="M7092 2268 c-20 -20 -14 -66 9 -79 27 -14 65 1 74 31 13 42 -51 80
-83 48z"/>
<path d="M2050 1709 c0 -28 -2 -31 -26 -26 -34 6 -64 -23 -64 -61 0 -38 28
-62 68 -59 l32 2 0 88 c0 48 -2 87 -5 87 -3 0 -5 -14 -5 -31z m-4 -63 c8 -33
2 -57 -18 -69 -24 -16 -48 8 -48 48 0 38 6 45 36 45 17 0 25 -7 30 -24z"/>
<path d="M1641 1649 c-35 -90 -34 -89 -22 -89 5 0 12 11 15 25 5 21 12 25 45
25 33 0 40 -4 45 -25 4 -14 11 -25 16 -25 5 0 -3 30 -17 68 -14 37 -28 75 -30
85 -9 32 -21 18 -52 -64z m55 16 c19 -45 19 -45 -16 -45 -16 0 -30 4 -30 9 0
13 21 71 26 71 3 0 12 -16 20 -35z"/>
<path d="M4568 1688 c-15 -15 -15 -18 -3 -18 12 0 15 -13 15 -55 0 -45 3 -55
17 -55 13 0 14 3 5 12 -16 16 -16 98 1 98 8 0 9 3 1 8 -6 4 -13 12 -15 17 -2
6 -11 3 -21 -7z"/>
<path d="M5740 1695 c0 -8 -6 -15 -12 -15 -10 0 -10 -2 -1 -8 6 -4 13 -30 15
-57 2 -41 7 -50 23 -53 16 -3 18 -1 8 9 -7 7 -13 32 -13 55 0 25 5 44 13 47
10 4 10 6 0 6 -7 1 -13 8 -13 16 0 8 -4 15 -10 15 -5 0 -10 -7 -10 -15z"/>
<path d="M2123 1680 c-13 -5 -23 -15 -23 -21 0 -8 4 -8 14 1 20 15 61 9 61
-10 0 -10 -13 -17 -35 -20 -29 -4 -36 -10 -38 -32 -3 -29 14 -38 66 -35 20 1
22 6 22 54 0 41 -4 54 -19 63 -22 11 -19 11 -48 0z m57 -75 c0 -8 -10 -19 -21
-26 -17 -9 -25 -8 -36 4 -21 20 -8 37 28 37 19 0 29 -5 29 -15z"/>
<path d="M2270 1680 c-7 -4 -19 -6 -27 -3 -10 4 -13 -9 -13 -56 0 -75 18 -81
22 -8 3 48 5 52 28 52 23 0 25 -4 28 -52 2 -29 7 -53 12 -53 5 0 10 24 12 53
3 48 5 52 28 52 23 0 25 -5 31 -55 l6 -55 1 57 c2 48 -1 59 -18 68 -13 7 -26
8 -37 1 -9 -5 -26 -5 -38 -1 -12 5 -28 5 -35 0z"/>
<path d="M2462 1675 c-40 -29 -22 -115 24 -115 27 0 52 19 58 44 6 25 -11 76
-25 76 -4 0 -13 2 -21 5 -7 3 -23 -2 -36 -10z m56 -17 c16 -16 15 -50 -1 -72
-18 -24 -55 -13 -63 19 -12 47 33 84 64 53z"/>
<path d="M2598 1679 c-31 -17 -22 -46 18 -59 24 -8 34 -17 32 -28 -4 -23 -32
-26 -52 -7 -14 15 -16 15 -16 1 0 -19 48 -32 69 -19 30 19 25 43 -13 58 -19 8
-37 19 -41 25 -10 16 26 24 47 11 22 -14 31 -11 20 5 -11 17 -45 24 -64 13z"/>
<path d="M2800 1680 c-7 -4 -19 -6 -27 -3 -10 4 -13 -13 -13 -81 0 -51 4 -86
10 -86 6 0 10 14 10 30 0 27 2 30 25 24 15 -4 32 -1 40 6 16 13 20 77 7 96
-11 16 -37 23 -52 14z m43 -31 c22 -35 -12 -87 -48 -73 -16 6 -22 74 -8 88 12
11 45 2 56 -15z"/>
<path d="M2911 1671 c-50 -50 -2 -130 63 -105 9 3 16 10 16 15 0 5 -11 4 -25
-3 -19 -8 -28 -8 -40 2 -28 23 -18 40 25 40 31 0 40 4 40 18 -1 44 -48 64 -79
33z m59 -5 c0 -2 3 -11 6 -20 5 -13 -1 -16 -30 -16 -34 0 -47 15 -29 33 7 8
53 10 53 3z"/>
<path d="M3048 1683 c-37 -10 -27 -63 11 -63 17 0 41 -18 41 -31 0 -18 -42
-20 -62 -2 -15 12 -20 14 -16 4 7 -23 33 -34 61 -27 20 5 27 13 27 31 0 19 -7
26 -32 33 -40 10 -51 42 -16 42 13 0 29 -5 36 -12 9 -9 12 -9 12 0 0 10 -33
34 -42 31 -2 -1 -10 -3 -20 -6z"/>
<path d="M3168 1679 c-31 -17 -22 -46 18 -59 24 -8 34 -17 32 -28 -4 -23 -32
-26 -52 -7 -14 15 -16 15 -16 1 0 -21 43 -31 69 -16 33 17 25 40 -19 57 -22 9
-40 20 -40 25 0 16 32 21 52 9 22 -14 31 -11 20 5 -11 17 -45 24 -64 13z"/>
<path d="M3292 1674 c-41 -29 -22 -114 27 -114 36 0 56 30 52 80 -3 40 -45 58
-79 34z m62 -26 c13 -22 -3 -72 -25 -76 -38 -7 -65 58 -37 86 17 17 48 11 62
-10z"/>
<path d="M3428 1679 c-10 -5 -18 -15 -18 -21 0 -9 3 -9 12 0 20 20 58 15 58
-7 0 -15 -8 -21 -32 -23 -29 -3 -33 -6 -33 -33 0 -29 2 -30 42 -30 l43 0 0 53
c0 47 -3 53 -26 62 -30 12 -25 12 -46 -1z m52 -78 c0 -21 -22 -33 -45 -25 -31
12 -15 44 22 44 16 0 23 -6 23 -19z"/>
<path d="M3558 1679 c-31 -17 -22 -46 18 -59 24 -8 34 -17 32 -28 -4 -23 -32
-26 -52 -7 -14 15 -16 15 -16 1 0 -19 48 -32 69 -19 30 19 24 41 -15 60 -20
10 -37 23 -38 28 -2 15 46 18 55 4 4 -8 10 -11 13 -8 19 18 -40 43 -66 28z"/>
<path d="M3748 1683 c-18 -5 -33 -33 -18 -33 6 0 10 5 10 11 0 14 52 7 58 -8
4 -13 -3 -17 -50 -27 -18 -4 -28 -13 -28 -25 0 -27 20 -39 60 -38 l35 1 -3 50
c-3 45 -22 79 -41 75 -3 -1 -13 -3 -23 -6z m52 -78 c0 -22 -38 -39 -55 -25
-21 17 -6 40 26 40 19 0 29 -5 29 -15z"/>
<path d="M3932 1674 c-39 -27 -22 -114 23 -114 22 0 45 12 45 23 0 7 -4 7 -12
-1 -16 -16 -33 -15 -52 4 -26 25 -19 34 29 34 51 0 59 16 25 50 -24 24 -29 24
-58 4z m56 -26 c3 -14 -3 -18 -27 -18 -29 0 -41 17 -24 34 13 13 48 1 51 -16z"/>
<path d="M4076 1678 c-9 -5 -21 -6 -26 -3 -6 4 -10 -17 -10 -54 0 -75 18 -81
22 -8 3 48 5 52 28 52 23 0 25 -5 31 -55 l6 -55 1 61 c2 52 -1 62 -17 67 -10
2 -26 0 -35 -5z"/>
<path d="M4192 1674 c-42 -29 -21 -114 28 -114 19 0 55 29 46 37 -3 3 -12 -2
-21 -11 -21 -20 -29 -20 -50 0 -36 36 3 103 45 76 30 -19 38 -14 11 8 -28 24
-31 24 -59 4z"/>
<path d="M4323 1679 c-29 -11 -40 -62 -19 -94 32 -48 96 -20 96 42 0 43 -36
68 -77 52z m59 -34 c9 -19 8 -29 -6 -50 -35 -54 -85 -6 -60 59 10 25 53 20 66
-9z"/>
<path d="M4470 1681 c-8 -6 -18 -7 -22 -5 -4 3 -7 -23 -6 -58 l1 -63 6 55 c6
51 8 55 34 58 27 3 27 2 27 -52 0 -31 5 -56 10 -56 17 0 12 97 -6 114 -18 18
-24 19 -44 7z"/>
<path d="M4680 1681 c-8 -6 -18 -7 -22 -5 -4 3 -7 -23 -6 -58 l2 -63 3 54 c3
42 8 54 24 58 10 3 19 9 19 14 0 11 -1 11 -20 0z"/>
<path d="M4743 1680 c-23 -9 -32 -30 -13 -30 6 0 10 5 10 11 0 6 12 9 28 7 40
-5 35 -32 -8 -38 -65 -9 -48 -70 18 -67 l37 1 -3 51 c-2 31 -10 55 -20 63 -18
14 -19 14 -49 2z m57 -75 c0 -22 -38 -39 -55 -25 -21 17 -6 40 26 40 19 0 29
-5 29 -15z"/>
<path d="M4885 1680 c-3 -5 -12 -7 -20 -3 -12 4 -15 -6 -15 -56 0 -34 4 -61
10 -61 6 0 10 23 10 51 0 42 3 52 20 56 11 3 20 9 20 14 0 12 -17 11 -25 -1z"/>
<path d="M4952 1674 c-39 -27 -22 -114 23 -114 22 0 45 12 45 23 0 7 -4 7 -12
-1 -16 -16 -33 -15 -52 4 -26 25 -19 34 29 34 51 0 59 16 25 50 -24 24 -29 24
-58 4z m56 -26 c3 -15 -4 -18 -32 -18 -38 0 -44 8 -24 28 17 17 52 11 56 -10z"/>
<path d="M5083 1683 c-21 -4 -23 -9 -21 -66 1 -35 3 -47 5 -27 7 73 12 81 41
78 25 -3 27 -7 33 -58 5 -51 6 -52 7 -13 3 58 10 73 38 73 25 0 30 -11 37 -80
2 -22 4 -14 5 22 2 48 -1 59 -18 68 -14 8 -26 8 -40 0 -14 -7 -26 -8 -39 0
-11 5 -21 9 -23 9 -2 -1 -13 -4 -25 -6z"/>
<path d="M5360 1681 c-8 -6 -18 -7 -22 -5 -4 3 -7 -34 -6 -83 0 -48 3 -74 5
-56 4 29 7 32 32 27 36 -8 61 17 61 61 0 24 -7 39 -22 49 -26 18 -28 19 -48 7z
m48 -52 c4 -43 -20 -69 -46 -52 -20 12 -26 36 -18 69 5 20 12 25 34 22 23 -3
27 -8 30 -39z"/>
<path d="M5482 1674 c-42 -29 -19 -114 31 -114 24 0 57 36 57 63 0 49 -50 78
-88 51z m62 -20 c25 -65 -25 -113 -60 -59 -14 21 -15 31 -6 50 13 29 56 34 66
9z"/>
<path d="M5640 1680 c-7 -5 -19 -6 -27 -3 -10 4 -13 -9 -13 -56 0 -75 18 -81
22 -8 3 48 5 52 28 52 23 0 25 -5 31 -55 l6 -55 1 61 c2 53 -1 62 -17 67 -10
2 -25 1 -31 -3z"/>
<path d="M5833 1680 c-22 -9 -28 -29 -24 -75 2 -23 27 -45 52 -45 49 0 68 85
27 114 -25 18 -25 18 -55 6z m57 -31 c14 -26 6 -65 -16 -73 -38 -15 -66 30
-48 78 9 23 51 20 64 -5z"/>
<path d="M5968 1679 c-31 -17 -22 -46 18 -59 24 -8 34 -17 32 -28 -4 -23 -32
-26 -52 -6 -9 9 -20 13 -24 9 -9 -9 27 -35 49 -35 24 0 49 27 43 45 -3 8 -21
19 -40 25 -19 6 -34 16 -34 21 0 16 32 23 51 10 11 -6 19 -7 19 -1 0 5 -9 14
-19 20 -23 12 -22 12 -43 -1z"/>
<path d="M1782 1608 c-2 -61 -6 -79 -19 -87 -17 -10 -17 -10 0 -11 25 0 28 16
24 101 l-3 74 -2 -77z"/>
<path d="M1830 1639 c0 -62 13 -78 60 -76 l40 1 0 58 c0 32 -4 58 -10 58 -5 0
-10 -20 -10 -44 0 -46 -19 -72 -45 -62 -11 4 -15 20 -15 56 0 27 -4 50 -10 50
-5 0 -10 -18 -10 -41z"/>
<path d="M1700 1325 c0 -33 -2 -35 -20 -25 -44 24 -82 -36 -57 -90 10 -20 20
-25 50 -25 l37 -1 0 88 c0 48 -2 88 -5 88 -3 0 -5 -16 -5 -35z m-2 -76 c4 -43
-20 -69 -46 -52 -20 12 -26 36 -18 69 5 20 12 25 34 22 23 -3 27 -8 30 -39z"/>
<path d="M2214 1270 c0 -52 1 -74 3 -47 2 26 2 68 0 95 -2 26 -3 4 -3 -48z"/>
<path d="M2740 1329 c0 -27 -3 -31 -22 -26 -50 14 -85 -50 -54 -98 13 -20 24
-24 51 -22 l35 2 0 88 c0 48 -2 87 -5 87 -3 0 -5 -14 -5 -31z m-2 -80 c4 -43
-20 -69 -46 -52 -20 12 -26 36 -18 69 5 20 12 25 34 22 23 -3 27 -8 30 -39z"/>
<path d="M3002 1348 c-7 -7 -12 -20 -12 -29 0 -10 -6 -20 -12 -22 -10 -4 -10
-6 0 -6 8 -1 12 -19 12 -56 0 -30 5 -55 10 -55 6 0 10 24 10 54 0 34 5 56 13
59 10 4 10 6 0 6 -19 1 -16 39 5 50 14 9 14 10 2 11 -9 0 -21 -5 -28 -12z"/>
<path d="M3833 1353 c-7 -2 -13 -12 -13 -22 0 -9 -5 -22 -12 -29 -9 -9 -9 -12
0 -12 6 0 12 -23 15 -57 l3 -58 2 58 c2 46 5 57 19 57 15 0 15 2 -2 14 -17 12
-17 16 -5 31 7 9 22 14 32 12 10 -3 16 -1 12 4 -6 10 -31 11 -51 2z"/>
<path d="M4070 1340 c0 -5 5 -10 10 -10 6 0 10 5 10 10 0 6 -4 10 -10 10 -5 0
-10 -4 -10 -10z"/>
<path d="M2400 1316 c0 -8 -8 -17 -17 -19 -16 -4 -16 -5 -1 -6 13 -1 18 -13
20 -53 2 -44 6 -53 23 -56 18 -2 18 -2 3 8 -22 13 -26 97 -5 102 9 2 8 8 -5
21 -14 13 -18 14 -18 3z"/>
<path d="M4390 1316 c0 -8 -6 -17 -12 -19 -10 -4 -10 -6 0 -6 7 -1 12 -16 12
-40 0 -50 8 -71 28 -71 12 0 13 3 4 12 -16 16 -16 95 1 101 10 4 10 6 0 6 -7
1 -13 8 -13 16 0 8 -4 15 -10 15 -5 0 -10 -6 -10 -14z"/>
<path d="M1770 1290 c-25 -25 -26 -72 -2 -93 21 -19 58 -22 68 -6 4 8 -1 9
-15 4 -24 -7 -51 9 -51 31 0 10 13 14 40 14 33 0 40 3 40 19 0 18 -34 51 -52
51 -5 0 -17 -9 -28 -20z m58 -22 c3 -14 -3 -18 -27 -18 -29 0 -41 17 -24 34
13 13 48 1 51 -16z"/>
<path d="M1962 1294 c-30 -20 -31 -88 -3 -104 11 -5 26 -10 35 -10 16 0 50 30
42 37 -3 3 -12 -2 -21 -11 -21 -20 -29 -20 -50 0 -36 36 3 103 45 76 11 -7 20
-8 20 -2 0 8 -31 30 -42 30 -2 0 -14 -7 -26 -16z"/>
<path d="M2093 1299 c-48 -18 -36 -110 16 -117 30 -5 61 25 61 58 0 47 -36 74
-77 59z m58 -35 c7 -20 6 -32 -6 -50 -35 -53 -83 -3 -59 60 10 27 53 20 65
-10z"/>
<path d="M2282 1294 c-39 -27 -22 -114 23 -114 22 0 45 12 45 23 0 7 -4 7 -12
-1 -16 -16 -33 -15 -52 4 -26 25 -19 34 29 34 51 0 59 16 25 50 -24 24 -29 24
-58 4z m56 -26 c3 -14 -3 -18 -27 -18 -29 0 -41 17 -24 34 13 13 48 1 51 -16z"/>
<path d="M2488 1299 c-10 -5 -18 -15 -18 -21 0 -9 3 -9 12 0 20 20 58 15 58
-8 0 -16 -7 -20 -30 -20 -36 0 -56 -29 -37 -53 8 -11 25 -16 49 -14 38 2 38 2
38 47 0 25 -4 50 -8 56 -11 17 -45 24 -64 13z m52 -78 c0 -21 -22 -33 -45 -25
-31 12 -15 44 22 44 16 0 23 -6 23 -19z"/>
<path d="M2812 1294 c-27 -18 -30 -74 -6 -99 19 -18 65 -16 72 3 3 11 0 11
-18 0 -19 -12 -24 -10 -42 12 l-20 25 46 3 c37 3 46 7 46 22 0 16 -34 50 -50
50 -3 0 -16 -7 -28 -16z m56 -26 c3 -14 -3 -18 -27 -18 -29 0 -41 17 -24 34
13 13 48 1 51 -16z"/>
<path d="M3082 1294 c-42 -29 -19 -114 31 -114 24 0 57 36 57 63 0 49 -50 78
-88 51z m62 -20 c25 -65 -25 -113 -60 -59 -14 21 -15 31 -6 50 13 29 56 34 66
9z"/>
<path d="M3223 1302 c-21 -3 -23 -9 -23 -63 0 -33 4 -59 10 -59 6 0 10 23 10
50 0 43 3 52 22 59 26 9 12 19 -19 13z"/>
<path d="M3320 1300 c-7 -4 -19 -6 -27 -3 -10 4 -13 -9 -13 -56 0 -75 18 -81
22 -8 3 48 5 52 28 52 23 0 25 -4 28 -52 2 -29 7 -53 12 -53 5 0 10 24 12 53
3 48 5 52 28 52 23 0 25 -5 31 -55 l6 -55 1 61 c2 56 0 62 -20 67 -12 3 -28 2
-37 -2 -8 -5 -25 -5 -36 -1 -12 5 -28 5 -35 0z"/>
<path d="M3518 1303 c-18 -5 -33 -33 -18 -33 6 0 10 5 10 11 0 14 52 7 58 -8
4 -13 -3 -17 -50 -27 -18 -4 -28 -13 -28 -25 0 -27 20 -39 60 -38 l35 1 -3 50
c-3 45 -22 79 -41 75 -3 -1 -13 -3 -23 -6z m52 -78 c0 -22 -38 -39 -55 -25
-21 17 -6 40 26 40 19 0 29 -5 29 -15z"/>
<path d="M3702 1294 c-39 -27 -22 -114 23 -114 22 0 45 12 45 23 0 7 -4 7 -12
-1 -16 -16 -33 -15 -52 4 -26 25 -19 34 29 34 51 0 59 16 25 50 -24 24 -29 24
-58 4z m56 -26 c3 -14 -3 -18 -27 -18 -29 0 -41 17 -24 34 13 13 48 1 51 -16z"/>
<path d="M3962 1294 c-42 -29 -21 -114 28 -114 19 0 55 29 46 37 -3 3 -12 -2
-21 -11 -21 -20 -29 -20 -50 0 -36 36 3 103 45 76 30 -19 38 -14 11 8 -28 24
-31 24 -59 4z"/>
<path d="M4141 1291 c-50 -50 -2 -130 63 -105 9 3 16 10 16 15 0 5 -11 4 -25
-3 -19 -8 -28 -8 -40 2 -28 23 -18 40 25 40 31 0 40 4 40 18 -1 44 -48 64 -79
33z m59 -5 c0 -2 3 -11 6 -20 5 -13 -1 -16 -30 -16 -34 0 -47 15 -29 33 7 8
53 10 53 3z"/>
<path d="M4291 1301 c-8 -5 -20 -7 -28 -4 -10 4 -13 -9 -13 -56 0 -75 18 -81
22 -8 3 48 5 52 31 55 27 3 27 2 27 -52 0 -31 5 -56 10 -56 17 0 12 97 -6 114
-18 18 -24 19 -43 7z"/>
<path d="M4480 1290 c-11 -11 -20 -33 -20 -48 0 -51 61 -82 90 -46 12 13 10
14 -13 3 -21 -9 -30 -9 -42 1 -28 23 -18 40 25 40 33 0 40 3 40 19 0 18 -34
51 -52 51 -5 0 -17 -9 -28 -20z m58 -22 c3 -14 -3 -18 -27 -18 -29 0 -41 17
-24 34 13 13 48 1 51 -16z"/>
<path d="M3893 1240 c0 -36 2 -50 4 -32 2 17 2 47 0 65 -2 17 -4 3 -4 -33z"/>
<path d="M4070 1240 c0 -33 4 -60 10 -60 6 0 10 27 10 60 0 33 -4 60 -10 60
-6 0 -10 -27 -10 -60z"/>
<path d="M11728 1127 c-3 -84 -6 -97 -30 -130 -36 -47 -37 -89 -2 -116 15 -12
34 -21 44 -21 10 0 29 9 44 21 26 20 26 22 26 153 0 120 -2 136 -21 160 -11
14 -29 26 -39 26 -16 0 -18 -11 -22 -93z"/>
<path d="M10692 1194 c-21 -14 -22 -22 -22 -158 0 -136 1 -143 23 -164 30 -28
68 -28 95 1 28 30 29 78 1 103 -34 30 -49 78 -49 159 0 81 -6 88 -48 59z"/>
<path d="M4590 1190 c0 -5 5 -10 10 -10 6 0 10 5 10 10 0 6 -4 10 -10 10 -5 0
-10 -4 -10 -10z"/>
<path d="M8773 1103 c-39 -4 -43 -7 -43 -32 0 -25 -10 -32 -115 -85 -63 -31
-115 -61 -115 -65 0 -12 56 -5 210 25 69 14 130 30 136 37 7 7 15 38 19 70 l6
57 -28 -2 c-15 -1 -47 -3 -70 -5z"/>
</g>
</svg>
