<?xml version="1.0" standalone="no"?>
<!DOCTYPE svg PUBLIC "-//W3C//DTD SVG 20010904//EN"
 "http://www.w3.org/TR/2001/REC-SVG-20010904/DTD/svg10.dtd">
<svg version="1.0" xmlns="http://www.w3.org/2000/svg"
 width="1082.000000pt" height="853.000000pt" viewBox="0 0 1082.000000 853.000000"
 preserveAspectRatio="xMidYMid meet">

<g transform="translate(0.000000,853.000000) scale(0.100000,-0.100000)"
fill="#000000" stroke="none">
<path d="M2178 7093 c-27 -4 -28 -7 -28 -64 l0 -59 -38 6 c-81 13 -139 -53
-130 -148 10 -95 73 -138 176 -122 l57 9 3 193 c1 105 -1 191 -5 191 -5 -1
-20 -4 -35 -6z m-30 -255 l3 -78 -35 0 c-43 0 -66 28 -66 80 0 52 24 82 63 78
l32 -3 3 -77z"/>
<path d="M3838 7093 c-27 -4 -28 -7 -28 -64 l0 -59 -38 6 c-85 13 -138 -51
-130 -155 4 -45 10 -59 36 -82 38 -34 86 -44 149 -33 l48 9 3 193 c1 105 -1
191 -5 191 -5 -1 -20 -4 -35 -6z m-30 -255 l3 -78 -35 0 c-44 0 -66 29 -66 87
0 52 21 75 64 71 l31 -3 3 -77z"/>
<path d="M6075 7090 c-29 -5 -30 -8 -33 -60 l-3 -55 -49 0 c-41 0 -54 -5 -77
-27 -22 -23 -28 -38 -31 -91 -7 -115 45 -165 161 -153 33 3 62 8 64 10 2 2 2
88 1 192 l-3 189 -30 -5z m-35 -250 l0 -80 -28 0 c-41 0 -65 31 -65 85 0 55
16 75 59 75 l34 0 0 -80z"/>
<path d="M7158 7093 l-28 -4 0 -165 c0 -91 4 -174 10 -184 14 -26 79 -47 91
-29 14 23 10 43 -11 57 -19 11 -20 23 -20 172 0 88 -3 159 -7 159 -5 -1 -20
-4 -35 -6z"/>
<path d="M1484 7051 c-63 -28 -88 -72 -92 -157 -6 -116 35 -174 136 -190 34
-5 142 11 142 21 0 2 -4 15 -9 28 -9 24 -13 25 -70 20 -74 -7 -105 10 -122 66
-15 51 -4 107 28 138 23 24 30 25 88 20 51 -5 64 -3 69 9 12 32 5 43 -31 53
-54 15 -92 13 -139 -8z"/>
<path d="M2833 7042 l-33 -3 0 -117 c0 -143 11 -187 50 -207 52 -27 123 -16
118 19 -2 16 -11 22 -38 24 -47 4 -60 25 -60 94 l0 58 45 0 c43 0 45 1 45 30
0 29 -2 30 -44 30 -45 0 -45 0 -48 38 -3 35 -5 37 -35 34z"/>
<path d="M5285 7040 l-30 -5 -3 -80 c-9 -210 24 -271 133 -251 29 6 35 11 35
31 0 22 -4 25 -40 25 -34 0 -42 4 -50 26 -6 14 -10 48 -10 75 l0 49 45 0 c43
0 45 1 45 30 0 29 -2 30 -44 30 -45 0 -45 0 -48 38 -3 36 -4 37 -33 32z"/>
<path d="M7603 7042 l-33 -3 0 -117 c0 -143 11 -187 50 -207 52 -27 123 -16
118 19 -2 16 -11 22 -38 24 -47 4 -60 25 -60 94 l0 58 45 0 c43 0 45 1 45 30
0 29 -2 30 -44 30 -45 0 -45 0 -48 38 -3 35 -5 37 -35 34z"/>
<path d="M1752 6973 c-18 -4 -23 -10 -20 -31 3 -25 5 -26 55 -23 43 2 53 -1
62 -18 6 -11 11 -22 11 -24 0 -2 -26 -7 -57 -10 -72 -7 -109 -41 -99 -91 11
-56 37 -71 119 -71 112 0 110 -2 105 113 -3 53 -10 107 -16 119 -19 35 -86 50
-160 36z m108 -183 c0 -27 -3 -30 -34 -30 -41 0 -65 23 -46 45 7 8 28 15 46
15 31 0 34 -3 34 -30z"/>
<path d="M2323 6973 c-23 -4 -28 -18 -18 -45 4 -9 19 -12 50 -10 46 4 75 -9
75 -33 0 -8 -19 -14 -49 -17 -75 -7 -101 -29 -101 -82 0 -70 48 -94 161 -81
l59 7 0 87 c0 49 -5 103 -11 121 -18 49 -81 69 -166 53z m107 -183 c0 -27 -3
-30 -34 -30 -41 0 -65 23 -46 45 7 8 28 15 46 15 31 0 34 -3 34 -30z"/>
<path d="M2605 6968 c-31 -17 -45 -39 -45 -73 0 -36 16 -53 78 -84 58 -29 50
-46 -21 -45 -48 1 -56 -1 -61 -20 -8 -29 5 -38 61 -43 89 -9 145 36 127 100
-8 25 -21 37 -62 56 -35 17 -52 32 -52 44 0 16 7 18 48 16 44 -3 47 -2 50 22
2 20 -2 28 -20 33 -35 9 -81 7 -103 -6z"/>
<path d="M3065 6971 l-30 -6 -3 -128 -3 -127 36 0 35 0 0 105 0 105 39 0 c32
0 41 4 46 21 5 14 2 25 -6 30 -16 10 -69 10 -114 0z"/>
<path d="M3293 6965 c-95 -41 -97 -201 -4 -250 42 -21 82 -19 122 8 43 29 59
60 59 117 0 54 -27 103 -69 125 -37 18 -66 19 -108 0z m89 -62 c24 -21 25 -99
1 -125 -39 -44 -93 -6 -93 66 0 66 49 98 92 59z"/>
<path d="M4014 6971 c-11 -5 -33 -23 -47 -41 -23 -26 -27 -41 -27 -91 0 -53 3
-63 33 -94 39 -43 87 -54 139 -32 20 9 44 27 53 41 40 61 25 166 -29 201 -30
20 -93 28 -122 16z m90 -73 c33 -46 10 -138 -34 -138 -35 0 -50 12 -60 50 -11
40 0 87 23 102 23 15 56 8 71 -14z"/>
<path d="M4403 6973 l-33 -4 0 -175 0 -174 35 0 c35 0 35 1 35 43 l0 42 51 0
c44 0 54 4 79 32 40 44 48 107 22 165 -29 67 -77 85 -189 71z m111 -68 c23
-23 30 -79 14 -112 -11 -23 -20 -28 -48 -28 l-35 0 -3 78 -3 77 30 0 c16 0 36
-7 45 -15z"/>
<path d="M4721 6963 c-90 -44 -88 -204 3 -247 42 -20 67 -20 112 -1 37 15 74
77 74 125 0 48 -37 110 -74 125 -45 19 -73 19 -115 -2z m100 -60 c8 -9 14 -37
14 -63 0 -56 -17 -80 -56 -80 -22 0 -32 7 -45 32 -17 33 -14 89 7 114 16 19
63 18 80 -3z"/>
<path d="M5003 6973 l-33 -4 0 -130 0 -129 35 0 35 0 0 105 0 105 30 0 c41 0
50 -23 50 -124 l0 -86 35 0 35 0 0 89 c0 48 -5 103 -11 121 -18 51 -69 66
-176 53z"/>
<path d="M5534 6971 c-11 -5 -33 -23 -47 -41 -23 -26 -27 -41 -27 -91 0 -53 3
-63 33 -94 39 -43 87 -54 139 -32 20 9 44 27 53 41 40 61 25 166 -29 201 -30
20 -93 28 -122 16z m90 -73 c33 -46 10 -138 -34 -138 -35 0 -50 12 -60 50 -11
40 0 87 23 102 23 15 56 8 71 -14z"/>
<path d="M6254 6970 c-11 -4 -33 -22 -47 -40 -22 -26 -27 -42 -27 -86 0 -102
40 -140 147 -138 35 0 66 4 69 7 4 3 4 16 1 29 -6 21 -11 23 -52 20 -49 -4
-95 17 -95 43 0 12 17 15 85 15 84 0 85 0 85 25 0 94 -85 158 -166 125z m86
-69 c15 -30 14 -31 -40 -31 -34 0 -50 4 -50 13 0 38 71 52 90 18z"/>
<path d="M6653 6960 c-48 -29 -67 -65 -67 -125 0 -91 59 -143 152 -132 52 6
56 9 48 40 -5 20 -10 23 -36 19 -69 -10 -110 31 -95 96 9 44 37 64 82 60 35
-3 38 -1 41 23 2 20 -2 28 -20 33 -40 10 -72 6 -105 -14z"/>
<path d="M6893 6965 c-95 -41 -97 -201 -4 -250 42 -21 82 -19 122 8 43 29 59
60 59 117 0 54 -27 103 -69 125 -37 18 -66 19 -108 0z m89 -62 c24 -21 25 -99
1 -125 -39 -44 -93 -6 -93 66 0 66 49 98 92 59z"/>
<path d="M7342 6964 c-43 -22 -66 -67 -66 -130 0 -91 61 -142 157 -130 58 6
68 13 61 42 -5 19 -11 20 -55 16 -38 -4 -54 -1 -69 13 -39 35 -26 45 59 45 89
0 95 5 81 65 -18 78 -97 115 -168 79z m92 -60 c26 -26 18 -34 -34 -34 -34 0
-50 4 -50 13 0 35 56 50 84 21z"/>
<path d="M7817 6973 c-20 -3 -27 -9 -23 -20 3 -8 6 -20 6 -26 0 -8 15 -11 45
-9 47 4 75 -9 75 -34 0 -9 -12 -14 -34 -14 -46 0 -94 -18 -106 -40 -16 -30
-11 -79 9 -99 26 -26 78 -35 147 -26 l56 7 -4 109 c-3 95 -6 111 -25 130 -22
22 -87 32 -146 22z m103 -183 c0 -28 -3 -30 -35 -30 -22 0 -38 6 -41 15 -11
28 4 45 41 45 32 0 35 -2 35 -30z"/>
<path d="M1928 5673 c-14 -3 -18 -15 -18 -47 0 -41 -1 -42 -29 -38 -42 6 -81
-34 -81 -83 0 -60 53 -94 125 -81 l35 7 0 124 c0 69 -3 124 -7 124 -5 -1 -16
-3 -25 -6z m-18 -169 c0 -44 -1 -45 -27 -42 -22 2 -29 9 -31 31 -5 42 4 57 33
57 23 0 25 -3 25 -46z"/>
<path d="M2568 5673 c-14 -3 -18 -15 -18 -47 0 -41 -1 -42 -28 -38 -43 6 -82
-30 -82 -77 0 -20 7 -46 15 -58 18 -25 69 -38 114 -28 l31 7 0 124 c0 68 -3
123 -7 123 -5 -1 -16 -3 -25 -6z m-18 -168 c0 -41 -2 -45 -25 -45 -17 0 -29 8
-36 24 -15 32 4 66 36 66 23 0 25 -4 25 -45z"/>
<path d="M3444 5666 c-9 -24 4 -48 23 -44 12 2 18 12 18 28 0 29 -32 41 -41
16z"/>
<path d="M3658 5673 c-14 -3 -18 -15 -18 -47 0 -41 -1 -42 -28 -38 -43 6 -82
-30 -82 -77 0 -20 7 -46 15 -58 18 -25 69 -38 114 -28 l31 7 0 124 c0 68 -3
123 -7 123 -5 -1 -16 -3 -25 -6z m-18 -168 c0 -41 -2 -45 -25 -45 -17 0 -29 8
-36 24 -15 32 4 66 36 66 23 0 25 -4 25 -45z"/>
<path d="M4038 5673 c-14 -3 -18 -15 -18 -47 0 -41 -1 -42 -29 -38 -42 6 -81
-34 -81 -83 0 -60 53 -94 125 -81 l35 7 0 124 c0 69 -3 124 -7 124 -5 -1 -16
-3 -25 -6z m-18 -169 c0 -44 -1 -45 -27 -42 -22 2 -29 9 -31 31 -5 42 4 57 33
57 23 0 25 -3 25 -46z"/>
<path d="M1395 5638 c-3 -8 -4 -59 -3 -114 l3 -99 35 -3 c85 -8 150 39 150
109 0 79 -31 108 -121 116 -46 5 -60 3 -64 -9z m117 -45 c27 -24 25 -97 -4
-117 -12 -9 -33 -16 -45 -16 -22 0 -23 4 -23 75 0 75 0 75 27 75 14 0 35 -7
45 -17z"/>
<path d="M3307 5633 c-17 -4 -19 -14 -15 -95 3 -100 17 -121 73 -116 41 4 47
35 8 40 -25 3 -28 7 -31 46 -3 41 -2 42 27 42 24 0 31 4 31 20 0 16 -7 20 -30
20 -25 0 -30 4 -30 25 0 26 -1 26 -33 18z"/>
<path d="M1641 5581 c-22 -14 -3 -31 34 -31 20 0 35 -6 39 -15 4 -12 -3 -15
-29 -15 -34 0 -75 -28 -75 -50 0 -22 41 -50 73 -50 70 0 77 6 77 71 0 46 -5
64 -20 79 -21 21 -74 27 -99 11z m79 -106 c0 -10 -10 -15 -30 -15 -29 0 -38 9
-23 23 13 13 53 7 53 -8z"/>
<path d="M2044 5578 c-22 -10 -44 -47 -44 -73 0 -45 43 -85 91 -85 30 0 79 53
79 85 0 34 -50 85 -82 84 -13 0 -33 -5 -44 -11z m72 -52 c10 -41 -4 -68 -34
-64 -21 2 -28 9 -30 31 -5 41 4 57 32 57 19 0 27 -7 32 -24z"/>
<path d="M2220 5570 c-33 -33 -23 -66 25 -78 45 -13 45 -34 -1 -30 -25 2 -39
-2 -42 -11 -11 -34 76 -43 108 -11 33 33 23 64 -26 80 -42 14 -44 30 -5 30 34
0 51 18 30 31 -24 15 -68 10 -89 -11z"/>
<path d="M2661 5581 c-22 -14 -3 -31 34 -31 20 0 35 -6 39 -15 4 -12 -3 -15
-29 -15 -34 0 -75 -28 -75 -50 0 -22 41 -50 73 -50 70 0 77 6 77 71 0 46 -5
64 -20 79 -21 21 -74 27 -99 11z m79 -106 c0 -10 -10 -15 -30 -15 -29 0 -38 9
-23 23 13 13 53 7 53 -8z"/>
<path d="M2944 5578 c-35 -16 -53 -72 -38 -113 18 -45 144 -63 144 -19 0 8
-16 14 -47 16 -70 5 -69 28 1 28 53 0 56 1 56 25 0 14 -11 37 -25 50 -25 26
-56 31 -91 13z m66 -43 c11 -13 7 -15 -24 -15 -34 0 -44 8 -29 23 11 12 40 8
53 -8z"/>
<path d="M3118 5583 c-15 -4 -18 -17 -18 -84 0 -78 0 -79 25 -79 24 0 25 2 25
66 0 62 1 65 23 62 20 -3 22 -9 25 -65 3 -60 4 -63 29 -63 25 0 25 1 21 66 -3
55 -8 70 -27 85 -22 18 -63 23 -103 12z"/>
<path d="M3440 5505 c0 -84 0 -85 25 -85 25 0 25 1 25 85 0 84 0 85 -25 85
-25 0 -25 -1 -25 -85z"/>
<path d="M3751 5581 c-22 -14 -3 -31 34 -31 20 0 35 -6 39 -15 4 -12 -3 -15
-29 -15 -34 0 -75 -28 -75 -50 0 -22 41 -50 73 -50 70 0 77 6 77 71 0 46 -5
64 -20 79 -21 21 -74 27 -99 11z m79 -106 c0 -10 -10 -15 -30 -15 -29 0 -38 9
-23 23 13 13 53 7 53 -8z"/>
<path d="M4154 5578 c-35 -16 -53 -72 -38 -113 18 -45 144 -63 144 -19 0 8
-16 14 -47 16 -70 5 -69 28 1 28 53 0 56 1 56 25 0 14 -11 37 -25 50 -25 26
-56 31 -91 13z m66 -43 c11 -13 7 -15 -24 -15 -34 0 -44 8 -29 23 11 12 40 8
53 -8z"/>
<path d="M1382 4688 l1 -73 6 55 6 55 34 -53 c18 -28 37 -52 42 -52 5 0 9 32
9 70 0 81 -18 95 -22 18 l-3 -53 -28 47 c-41 70 -47 69 -45 -14z"/>
<path d="M2000 4736 c0 -18 -5 -23 -17 -20 -28 7 -46 -11 -46 -45 0 -39 5 -44
48 -47 l35 -3 0 69 c0 40 -4 70 -10 70 -5 0 -10 -11 -10 -24z m-2 -60 c4 -34
-8 -49 -31 -40 -20 7 -23 60 -4 67 22 9 32 1 35 -27z"/>
<path d="M2580 4736 c0 -19 -4 -22 -25 -19 -33 7 -54 -34 -37 -72 9 -20 18
-25 42 -23 l30 2 0 68 c0 37 -2 68 -5 68 -3 0 -5 -11 -5 -24z m-16 -32 c21 -8
21 -60 0 -68 -23 -9 -34 2 -34 33 0 38 7 45 34 35z"/>
<path d="M2790 4736 c0 -18 -5 -23 -17 -20 -28 7 -46 -11 -46 -45 0 -39 5 -44
48 -47 l35 -3 0 69 c0 40 -4 70 -10 70 -5 0 -10 -11 -10 -24z m-2 -60 c4 -34
-8 -49 -31 -40 -20 7 -23 60 -4 67 22 9 32 1 35 -27z"/>
<path d="M5683 4690 c0 -41 2 -58 4 -37 2 20 2 54 0 75 -2 20 -4 3 -4 -38z"/>
<path d="M6490 4736 c0 -18 -5 -23 -17 -20 -28 7 -46 -11 -46 -45 0 -39 5 -44
48 -47 l35 -3 0 69 c0 40 -4 70 -10 70 -5 0 -10 -11 -10 -24z m-2 -60 c4 -34
-8 -49 -31 -40 -20 7 -23 60 -4 67 22 9 32 1 35 -27z"/>
<path d="M6960 4750 c0 -5 5 -10 10 -10 6 0 10 5 10 10 0 6 -4 10 -10 10 -5 0
-10 -4 -10 -10z"/>
<path d="M7070 4736 c0 -19 -4 -22 -25 -19 -33 7 -54 -34 -37 -72 9 -20 18
-25 42 -23 l30 2 0 68 c0 37 -2 68 -5 68 -3 0 -5 -11 -5 -24z m-16 -32 c21 -8
21 -60 0 -68 -23 -9 -34 2 -34 33 0 38 7 45 34 35z"/>
<path d="M7280 4735 c0 -18 -4 -23 -15 -19 -22 9 -45 -14 -45 -46 0 -33 16
-48 53 -48 27 0 27 1 27 69 0 39 -4 69 -10 69 -5 0 -10 -11 -10 -25z m-2 -59
c4 -36 -12 -54 -33 -36 -18 15 -20 41 -3 58 18 18 33 9 36 -22z"/>
<path d="M2402 4725 c-7 -8 -8 -15 -3 -15 5 0 11 -19 13 -42 4 -62 23 -58 21
4 -1 29 -2 56 -2 61 -1 11 -15 8 -29 -8z"/>
<path d="M6899 4728 c-5 -60 8 -108 29 -108 12 0 13 3 4 12 -15 15 -16 78 -1
78 6 0 4 7 -5 15 -18 18 -26 19 -27 3z"/>
<path d="M1514 4695 c-15 -23 -15 -27 0 -50 28 -43 76 -27 76 25 0 52 -48 68
-76 25z m54 3 c28 -28 -3 -83 -33 -58 -8 7 -15 20 -15 29 0 17 18 41 30 41 3
0 11 -5 18 -12z"/>
<path d="M1622 4665 c1 -49 2 -49 5 -8 3 25 10 44 19 47 25 10 34 -2 36 -47
l1 -42 4 37 c8 70 53 76 53 7 0 -21 5 -39 10 -39 15 0 12 77 -2 87 -7 4 -39 8
-70 8 l-58 0 2 -50z"/>
<path d="M1794 4695 c-15 -23 -15 -27 0 -50 17 -26 50 -33 62 -13 5 8 2 9 -11
5 -18 -7 -45 8 -45 24 0 5 16 9 35 9 38 0 44 10 19 34 -22 23 -41 20 -60 -9z
m54 -3 c2 -7 -7 -12 -22 -12 -27 0 -35 15 -13 23 17 7 30 3 35 -11z"/>
<path d="M2057 4713 c-14 -13 -7 -25 8 -13 8 6 19 9 25 5 16 -10 12 -25 -9
-25 -10 0 -24 -7 -31 -15 -18 -22 4 -45 41 -42 26 2 29 5 29 38 0 19 -5 40
-12 47 -13 13 -41 16 -51 5z m43 -57 c0 -17 -27 -29 -35 -16 -4 6 -3 15 0 20
9 15 35 12 35 -4z"/>
<path d="M2204 4695 c-15 -23 -15 -27 0 -50 17 -26 50 -33 62 -13 5 8 2 9 -11
5 -18 -7 -45 8 -45 24 0 5 16 9 35 9 38 0 44 10 19 34 -22 23 -41 20 -60 -9z
m54 -3 c2 -7 -7 -12 -22 -12 -27 0 -35 15 -13 23 17 7 30 3 35 -11z"/>
<path d="M2302 4665 c1 -42 2 -44 5 -13 8 70 53 76 53 7 0 -21 5 -39 10 -39
14 0 12 76 -2 88 -7 6 -25 10 -40 9 -27 -2 -28 -4 -26 -52z"/>
<path d="M2473 4670 c0 -30 2 -43 4 -27 2 15 2 39 0 55 -2 15 -4 2 -4 -28z"/>
<path d="M2637 4713 c-14 -13 -7 -25 8 -13 8 6 19 9 25 5 16 -10 12 -25 -9
-25 -10 0 -24 -7 -31 -15 -18 -22 4 -45 41 -42 26 2 29 5 29 38 0 19 -5 40
-12 47 -13 13 -41 16 -51 5z m43 -57 c0 -17 -27 -29 -35 -16 -4 6 -3 15 0 20
9 15 35 12 35 -4z"/>
<path d="M2844 4695 c-15 -23 -15 -27 0 -50 17 -26 50 -33 62 -13 5 8 2 9 -11
5 -18 -7 -45 8 -45 24 0 5 16 9 35 9 38 0 44 10 19 34 -22 23 -41 20 -60 -9z
m54 -3 c2 -7 -7 -12 -22 -12 -27 0 -35 15 -13 23 17 7 30 3 35 -11z"/>
<path d="M5732 4665 c1 -49 2 -49 5 -8 3 25 10 44 19 47 25 10 34 -2 36 -47
l1 -42 4 37 c8 70 53 76 53 7 0 -21 5 -39 10 -39 15 0 12 77 -2 87 -7 4 -39 8
-70 8 l-58 0 2 -50z"/>
<path d="M5907 4713 c-14 -13 -7 -25 8 -13 8 6 19 9 25 5 16 -10 12 -25 -9
-25 -10 0 -24 -7 -31 -15 -18 -22 4 -45 41 -42 26 2 29 5 29 38 0 19 -5 40
-12 47 -13 13 -41 16 -51 5z m43 -57 c0 -17 -27 -29 -35 -16 -4 6 -3 15 0 20
9 15 35 12 35 -4z"/>
<path d="M6011 4707 c-29 -29 -1 -97 35 -83 11 4 14 1 12 -12 -3 -12 -12 -17
-33 -15 -29 1 -29 1 -7 -10 40 -18 57 1 60 69 3 59 3 59 -26 61 -16 1 -34 -3
-41 -10z m47 -31 c4 -36 -12 -54 -33 -36 -18 15 -20 41 -3 58 18 18 33 9 36
-22z"/>
<path d="M6122 4708 c-7 -7 -12 -24 -12 -38 0 -14 5 -31 12 -38 15 -15 45 -15
54 0 5 8 2 9 -11 5 -18 -7 -45 8 -45 24 0 5 16 9 35 9 38 0 40 2 25 31 -12 21
-40 25 -58 7z m46 -16 c2 -7 -7 -12 -23 -12 -24 0 -26 2 -15 15 14 17 31 16
38 -3z"/>
<path d="M6212 4665 c1 -42 2 -44 5 -13 8 70 53 76 53 7 0 -53 18 -50 22 4 2
29 8 42 18 42 10 0 16 -13 18 -42 2 -24 7 -43 13 -43 14 0 11 78 -3 87 -7 4
-39 8 -70 8 l-58 0 2 -50z"/>
<path d="M6547 4713 c-14 -13 -7 -25 8 -13 8 6 19 9 25 5 16 -10 12 -25 -9
-25 -10 0 -24 -7 -31 -15 -18 -22 4 -45 41 -42 26 2 29 5 29 38 0 19 -5 40
-12 47 -13 13 -41 16 -51 5z m43 -57 c0 -17 -27 -29 -35 -16 -4 6 -3 15 0 20
9 15 35 12 35 -4z"/>
<path d="M6694 4695 c-15 -23 -15 -27 0 -50 17 -26 50 -33 62 -13 5 8 2 9 -11
5 -18 -7 -45 8 -45 24 0 5 16 9 35 9 38 0 44 10 19 34 -22 23 -41 20 -60 -9z
m54 -3 c2 -7 -7 -12 -22 -12 -27 0 -35 15 -13 23 17 7 30 3 35 -11z"/>
<path d="M6792 4665 c1 -42 2 -44 5 -13 8 70 53 76 53 7 0 -21 5 -39 10 -39
14 0 12 76 -2 88 -7 6 -25 10 -40 9 -27 -2 -28 -4 -26 -52z"/>
<path d="M6960 4670 c0 -27 5 -50 10 -50 6 0 10 23 10 50 0 28 -4 50 -10 50
-5 0 -10 -22 -10 -50z"/>
<path d="M7127 4713 c-14 -13 -7 -25 8 -13 8 6 19 9 25 5 16 -10 12 -25 -9
-25 -10 0 -24 -7 -31 -15 -18 -22 4 -45 41 -42 26 2 29 5 29 38 0 19 -5 40
-12 47 -13 13 -41 16 -51 5z m43 -57 c0 -17 -27 -29 -35 -16 -4 6 -3 15 0 20
9 15 35 12 35 -4z"/>
<path d="M7334 4695 c-15 -23 -15 -27 0 -50 17 -26 50 -33 62 -13 5 8 2 9 -11
5 -18 -7 -45 8 -45 24 0 5 16 9 35 9 38 0 44 10 19 34 -22 23 -41 20 -60 -9z
m54 -3 c2 -7 -7 -12 -22 -12 -27 0 -35 15 -13 23 17 7 30 3 35 -11z"/>
<path d="M6013 4120 c0 -47 2 -65 4 -40 3 24 10 51 16 59 9 11 9 13 0 8 -8 -5
-13 3 -16 25 -2 18 -4 -5 -4 -52z"/>
<path d="M6141 4178 c-1 -10 -7 -18 -13 -18 -10 0 -10 -2 -1 -8 6 -4 13 -29
15 -56 2 -30 8 -50 16 -52 7 -1 8 0 2 3 -15 7 -13 103 3 103 8 0 9 3 1 8 -6 4
-14 14 -17 22 -4 12 -6 11 -6 -2z"/>
<path d="M6201 4178 c-1 -10 -7 -18 -13 -18 -10 0 -10 -2 -1 -8 6 -4 13 -29
15 -56 2 -30 8 -50 16 -52 7 -1 8 0 2 3 -15 7 -13 103 3 103 8 0 9 3 1 8 -6 4
-14 14 -17 22 -4 12 -6 11 -6 -2z"/>
<path d="M6461 4174 c0 -11 3 -14 6 -6 3 7 2 16 -1 19 -3 4 -6 -2 -5 -13z"/>
<path d="M6063 4148 c10 -8 17 -32 20 -63 l3 -50 2 56 c2 44 -2 58 -14 63 -25
10 -29 7 -11 -6z"/>
<path d="M6252 4080 c0 -47 3 -72 5 -57 4 24 8 28 25 23 37 -9 58 11 58 54 0
30 -5 42 -21 51 -16 8 -24 8 -33 -2 -8 -9 -8 -10 2 -5 33 19 59 -57 28 -83
-28 -24 -65 16 -52 57 3 9 1 24 -4 32 -7 10 -9 -12 -8 -70z"/>
<path d="M6380 4140 c0 -5 5 -10 10 -10 6 0 10 5 10 10 0 6 -4 10 -10 10 -5 0
-10 -4 -10 -10z"/>
<path d="M6511 4134 c0 -11 3 -14 6 -6 3 7 2 16 -1 19 -3 4 -6 -2 -5 -13z"/>
<path d="M6441 4104 c0 -11 3 -14 6 -6 3 7 2 16 -1 19 -3 4 -6 -2 -5 -13z"/>
<path d="M6491 4064 c0 -11 3 -14 6 -6 3 7 2 16 -1 19 -3 4 -6 -2 -5 -13z"/>
<path d="M6380 4050 c0 -5 5 -10 10 -10 6 0 10 5 10 10 0 6 -4 10 -10 10 -5 0
-10 -4 -10 -10z"/>
<path d="M1380 3320 l0 -70 43 2 42 1 -37 4 c-34 4 -38 7 -38 33 0 25 4 29 33
33 l32 4 -32 1 c-28 2 -33 6 -33 26 0 21 5 25 38 29 l37 4 -42 1 -43 2 0 -70z"/>
<path d="M1650 3366 c0 -18 -5 -23 -17 -20 -28 7 -46 -11 -46 -45 0 -39 5 -44
48 -47 l35 -3 0 69 c0 40 -4 70 -10 70 -5 0 -10 -11 -10 -24z m-2 -60 c4 -34
-8 -49 -31 -40 -20 7 -23 60 -4 67 22 9 32 1 35 -27z"/>
<path d="M5682 3318 l1 -73 6 55 6 55 34 -52 c19 -29 38 -53 42 -53 5 0 9 32
9 70 0 40 -4 70 -10 70 -5 0 -10 -24 -10 -52 l-1 -53 -32 52 c-18 29 -35 53
-39 53 -5 0 -7 -33 -6 -72z"/>
<path d="M5855 3379 c-11 -17 1 -21 15 -4 8 9 8 15 2 15 -6 0 -14 -5 -17 -11z"/>
<path d="M6399 3363 c-41 -106 -46 -123 -40 -123 3 0 18 34 33 75 15 41 25 75
22 75 -2 0 -9 -12 -15 -27z"/>
<path d="M6456 3368 c-21 -30 -20 -71 3 -99 16 -20 23 -22 47 -14 15 6 30 17
32 25 4 11 -1 10 -17 -5 -33 -29 -56 -10 -56 45 0 54 23 74 54 46 22 -20 30
-9 9 12 -19 19 -55 14 -72 -10z"/>
<path d="M6963 3320 c0 -41 2 -58 4 -37 2 20 2 54 0 75 -2 20 -4 3 -4 -38z"/>
<path d="M7483 3355 c-6 -7 -8 -16 -3 -21 5 -5 10 -24 12 -43 2 -20 9 -36 18
-39 12 -4 13 -2 3 9 -15 15 -17 76 -4 81 5 2 4 8 -3 14 -8 8 -15 7 -23 -1z"/>
<path d="M1482 3295 c1 -42 2 -44 5 -13 8 70 53 76 53 7 0 -21 5 -39 10 -39
14 0 12 76 -2 88 -7 6 -25 10 -40 9 -27 -2 -28 -4 -26 -52z"/>
<path d="M1706 3334 c-20 -20 -20 -48 0 -68 18 -18 32 -20 54 -6 11 7 7 9 -15
7 -21 -1 -30 3 -33 16 -3 13 3 17 27 17 32 0 41 16 19 38 -16 16 -33 15 -52
-4z m44 -9 c11 -13 8 -15 -14 -15 -25 0 -33 10 -19 23 10 11 19 8 33 -8z"/>
<path d="M1802 3295 c1 -44 2 -45 5 -12 2 21 11 41 19 44 21 8 17 22 -6 20
-17 -1 -20 -8 -18 -52z"/>
<path d="M1872 3338 c-7 -7 -12 -24 -12 -38 0 -14 5 -31 12 -38 15 -15 45 -15
54 0 5 8 2 9 -11 5 -18 -7 -45 8 -45 24 0 5 16 9 35 9 38 0 40 2 25 31 -12 21
-40 25 -58 7z m46 -16 c2 -7 -7 -12 -23 -12 -24 0 -26 2 -15 15 14 17 31 16
38 -3z"/>
<path d="M1972 3338 c-18 -18 -14 -63 7 -82 17 -16 20 -15 42 3 13 11 19 20
14 21 -6 0 -16 -5 -23 -12 -14 -14 -42 6 -42 32 0 26 28 46 42 32 17 -17 33
-15 18 3 -15 18 -42 19 -58 3z"/>
<path d="M2072 3338 c-7 -7 -12 -24 -12 -38 0 -30 16 -50 41 -50 23 0 49 27
49 50 0 39 -52 64 -78 38z m42 -4 c32 -12 15 -74 -19 -74 -14 0 -25 42 -15 60
12 22 12 22 34 14z"/>
<path d="M5810 3311 c0 -45 14 -60 52 -58 27 2 28 4 26 52 -1 42 -2 44 -5 13
-8 -70 -53 -76 -53 -7 0 21 -4 39 -10 39 -5 0 -10 -17 -10 -39z"/>
<path d="M5922 3295 c1 -49 2 -49 5 -8 3 25 10 44 19 47 25 10 34 -2 36 -47
l1 -42 4 37 c8 70 53 76 53 7 0 -21 5 -39 10 -39 15 0 12 77 -2 87 -7 4 -39 8
-70 8 l-58 0 2 -50z"/>
<path d="M6094 3325 c-15 -23 -15 -27 0 -50 17 -26 50 -33 62 -13 5 8 2 9 -11
5 -18 -7 -45 8 -45 24 0 5 16 9 35 9 38 0 44 10 19 34 -22 23 -41 20 -60 -9z
m54 -3 c2 -7 -7 -12 -22 -12 -27 0 -35 15 -13 23 17 7 30 3 35 -11z"/>
<path d="M6192 3295 c1 -40 2 -43 5 -15 3 20 13 42 26 52 l21 16 -27 -1 c-26
-2 -27 -4 -25 -52z"/>
<path d="M6262 3338 c-7 -7 -12 -24 -12 -38 0 -30 16 -50 41 -50 23 0 49 27
49 50 0 39 -52 64 -78 38z m42 -4 c32 -12 15 -74 -19 -74 -14 0 -25 42 -15 60
12 22 12 22 34 14z"/>
<path d="M6574 3325 c-15 -23 -15 -27 0 -50 28 -43 76 -27 76 25 0 52 -48 68
-76 25z m54 3 c28 -28 -3 -83 -33 -58 -8 7 -15 20 -15 29 0 17 18 41 30 41 3
0 11 -5 18 -12z"/>
<path d="M6682 3295 c1 -49 2 -49 5 -8 3 25 10 44 19 47 25 10 34 -2 36 -47
l1 -42 4 37 c8 70 53 76 53 7 0 -21 5 -39 10 -39 15 0 12 77 -2 87 -7 4 -39 8
-70 8 l-58 0 2 -50z"/>
<path d="M6851 3275 c1 -38 4 -58 6 -44 3 21 8 25 28 21 33 -6 54 36 37 73 -9
20 -18 25 -42 23 l-30 -2 1 -71z m43 59 c21 -8 21 -60 0 -68 -23 -9 -34 2 -34
33 0 38 7 45 34 35z"/>
<path d="M7012 3338 c-7 -7 -12 -24 -12 -38 0 -14 5 -31 12 -38 15 -15 45 -15
54 0 5 8 2 9 -11 5 -18 -7 -45 8 -45 24 0 5 16 9 35 9 38 0 40 2 25 31 -12 21
-40 25 -58 7z m46 -16 c2 -7 -7 -12 -23 -12 -24 0 -26 2 -15 15 14 17 31 16
38 -3z"/>
<path d="M7100 3298 c0 -26 5 -48 10 -48 6 0 10 18 10 39 0 69 45 63 53 -7 l4
-37 1 42 c2 45 11 57 36 47 9 -3 17 -22 19 -47 4 -36 4 -35 3 8 l-1 50 -67 1
-68 1 0 -49z"/>
<path d="M7282 3338 c-7 -7 -12 -24 -12 -38 0 -14 5 -31 12 -38 15 -15 45 -15
54 0 5 8 2 9 -11 5 -18 -7 -45 8 -45 24 0 5 16 9 35 9 38 0 40 2 25 31 -12 21
-40 25 -58 7z m46 -16 c2 -7 -7 -12 -23 -12 -24 0 -26 2 -15 15 14 17 31 16
38 -3z"/>
<path d="M7370 3298 c0 -26 5 -48 10 -48 6 0 10 18 10 39 0 22 5 43 10 46 19
12 40 -16 41 -54 2 -32 2 -33 6 -7 3 15 2 39 -1 52 -5 19 -12 23 -41 22 -35
-1 -35 -1 -35 -50z"/>
<path d="M7551 3336 c-31 -37 9 -103 47 -80 36 23 23 94 -18 94 -10 0 -23 -6
-29 -14z m47 -8 c28 -28 -3 -83 -33 -58 -8 7 -15 20 -15 29 0 17 18 41 30 41
3 0 11 -5 18 -12z"/>
<path d="M1996 3224 c-4 -10 -1 -14 6 -12 15 5 23 28 10 28 -5 0 -13 -7 -16
-16z"/>
<path d="M1380 1950 l0 -70 43 2 42 1 -37 4 c-34 4 -38 7 -38 33 0 25 4 29 33
33 l32 4 -32 1 c-28 2 -33 6 -33 26 0 21 5 25 38 29 l37 4 -42 1 -43 2 0 -70z"/>
<path d="M1810 1996 c0 -18 -5 -23 -17 -20 -28 7 -46 -11 -46 -45 0 -39 5 -44
48 -47 l35 -3 0 69 c0 40 -4 70 -10 70 -5 0 -10 -11 -10 -24z m-2 -60 c4 -34
-8 -49 -31 -40 -20 7 -23 60 -4 67 22 9 32 1 35 -27z"/>
<path d="M5690 2000 c-24 -24 -26 -67 -4 -98 17 -24 53 -29 72 -10 21 21 13
32 -9 12 -29 -26 -53 -8 -57 44 -3 33 1 43 18 52 18 9 25 8 41 -6 20 -18 27
-6 7 14 -18 18 -45 15 -68 -8z"/>
<path d="M5800 2010 c0 -5 5 -10 10 -10 6 0 10 5 10 10 0 6 -4 10 -10 10 -5 0
-10 -4 -10 -10z"/>
<path d="M5910 1996 c0 -18 -5 -23 -17 -20 -28 7 -46 -11 -46 -45 0 -39 5 -44
48 -47 l35 -3 0 69 c0 40 -4 70 -10 70 -5 0 -10 -11 -10 -24z m-2 -60 c4 -34
-8 -49 -31 -40 -20 7 -23 60 -4 67 22 9 32 1 35 -27z"/>
<path d="M6120 1995 c0 -18 -4 -23 -15 -19 -22 9 -45 -14 -45 -46 0 -33 16
-48 53 -48 27 0 27 1 27 69 0 39 -4 69 -10 69 -5 0 -10 -11 -10 -25z m-2 -59
c4 -36 -12 -54 -33 -36 -18 15 -20 41 -3 58 18 18 33 9 36 -22z"/>
<path d="M1583 1985 c-6 -7 -8 -16 -3 -21 5 -5 10 -24 12 -43 2 -20 9 -36 18
-39 12 -4 13 -2 3 9 -15 15 -17 76 -4 81 5 2 4 8 -3 14 -8 8 -15 7 -23 -1z"/>
<path d="M1493 1973 c-23 -9 -13 -34 17 -44 17 -6 30 -15 30 -20 0 -16 -29
-22 -45 -9 -10 8 -15 9 -15 1 0 -13 45 -26 59 -16 22 13 11 41 -21 53 -26 9
-30 14 -20 24 10 10 17 10 32 0 11 -7 20 -8 20 -3 0 16 -33 24 -57 14z"/>
<path d="M1650 1965 c-14 -17 0 -21 17 -4 6 6 16 8 22 5 18 -11 13 -24 -10
-28 -24 -3 -48 -33 -36 -44 4 -4 23 -9 42 -10 34 -3 35 -2 35 34 0 57 -40 83
-70 47z m50 -49 c0 -15 -24 -28 -34 -19 -13 14 -5 33 14 33 11 0 20 -6 20 -14z"/>
<path d="M1866 1964 c-9 -8 -16 -24 -16 -34 0 -22 25 -50 45 -50 20 0 45 28
45 50 0 22 -25 50 -45 50 -7 0 -21 -7 -29 -16z m49 -34 c0 -28 -4 -35 -20 -35
-13 0 -21 8 -23 23 -5 34 5 54 25 50 13 -2 18 -13 18 -38z"/>
<path d="M5800 1930 c0 -27 5 -50 10 -50 6 0 10 23 10 50 0 28 -4 50 -10 50
-5 0 -10 -22 -10 -50z"/>
<path d="M5967 1973 c-14 -13 -7 -25 8 -13 8 6 19 9 25 5 16 -10 12 -25 -9
-25 -10 0 -24 -7 -31 -15 -18 -22 4 -45 41 -42 26 2 29 5 29 38 0 19 -5 40
-12 47 -13 13 -41 16 -51 5z m43 -57 c0 -17 -27 -29 -35 -16 -4 6 -3 15 0 20
9 15 35 12 35 -4z"/>
<path d="M6182 1968 c-7 -7 -12 -24 -12 -38 0 -14 5 -31 12 -38 15 -15 45 -15
54 0 5 8 2 9 -11 5 -18 -7 -45 8 -45 24 0 5 16 9 35 9 38 0 40 2 25 31 -12 21
-40 25 -58 7z m46 -16 c2 -7 -7 -12 -23 -12 -24 0 -26 2 -15 15 14 17 31 16
38 -3z"/>
<path d="M1722 1448 c-7 -7 -12 -22 -12 -34 0 -17 10 -26 43 -36 30 -11 42
-20 42 -34 0 -26 -54 -33 -72 -8 -7 10 -16 14 -20 10 -11 -11 35 -46 61 -46
34 0 58 23 54 50 -2 19 -14 28 -48 40 -52 18 -60 43 -15 48 19 3 33 -2 42 -14
7 -10 16 -15 20 -11 3 4 -2 16 -12 27 -20 22 -64 27 -83 8z"/>
<path d="M1970 1380 c0 -47 4 -80 10 -80 6 0 10 33 10 80 0 47 -4 80 -10 80
-6 0 -10 -33 -10 -80z"/>
<path d="M2250 1450 c0 -5 5 -10 10 -10 6 0 10 5 10 10 0 6 -4 10 -10 10 -5 0
-10 -4 -10 -10z"/>
<path d="M3400 1437 c0 -18 -5 -23 -27 -22 -19 0 -31 -8 -42 -27 -14 -25 -14
-31 -1 -55 12 -22 24 -28 53 -30 l37 -1 0 79 c0 46 -4 79 -10 79 -5 0 -10 -10
-10 -23z m-2 -70 c5 -38 -14 -60 -39 -46 -19 10 -27 58 -12 73 17 17 48 0 51
-27z"/>
<path d="M3150 1435 c0 -8 -5 -15 -11 -15 -8 0 -8 -4 -1 -13 6 -7 12 -33 14
-57 2 -36 7 -46 23 -48 16 -3 18 -1 8 9 -7 7 -13 32 -13 55 0 25 5 44 13 47
10 4 10 6 0 6 -7 1 -13 8 -13 16 0 8 -4 15 -10 15 -5 0 -10 -7 -10 -15z"/>
<path d="M1856 1398 c-9 -12 -16 -29 -16 -38 0 -45 52 -74 90 -50 20 13 5 24
-16 12 -12 -7 -25 -7 -36 -1 -31 17 -19 29 28 29 42 0 45 1 38 23 -16 52 -61
64 -88 25z m58 -4 c20 -20 12 -34 -19 -34 -31 0 -39 14 -19 34 8 9 17 16 19
16 2 0 11 -7 19 -16z"/>
<path d="M2042 1413 c-21 -8 -33 -50 -22 -77 10 -27 40 -40 70 -31 32 10 23
21 -14 17 -24 -3 -35 1 -39 12 -5 13 2 16 38 16 49 0 56 10 29 48 -15 21 -35
26 -62 15z m53 -33 c0 -16 -28 -25 -50 -16 -9 3 -12 12 -9 21 8 21 59 16 59
-5z"/>
<path d="M2156 1404 c-9 -8 -16 -28 -16 -44 0 -48 48 -78 78 -48 19 19 14 30
-7 17 -28 -18 -51 -4 -51 31 0 35 23 49 51 31 21 -13 26 -2 7 17 -17 17 -44
15 -62 -4z"/>
<path d="M2250 1360 c0 -33 4 -60 10 -60 6 0 10 27 10 60 0 33 -4 60 -10 60
-6 0 -10 -27 -10 -60z"/>
<path d="M2322 1413 c-7 -3 -17 -16 -22 -29 -22 -56 38 -107 80 -69 48 44 1
122 -58 98z m58 -53 c0 -38 -31 -57 -54 -34 -33 33 -4 94 35 74 12 -7 19 -21
19 -40z"/>
<path d="M2420 1358 c0 -32 4 -58 10 -58 6 0 10 20 10 45 0 33 5 47 19 54 26
14 39 -3 44 -59 3 -33 4 -29 3 15 l-1 60 -42 1 -43 1 0 -59z"/>
<path d="M2557 1402 c-10 -10 -17 -30 -17 -44 0 -47 62 -77 90 -43 14 17 3 20
-19 6 -9 -6 -22 -6 -33 0 -30 16 -20 29 22 29 33 0 40 3 40 19 0 24 -26 51
-49 51 -10 0 -25 -8 -34 -18z m63 -28 c0 -17 -46 -19 -56 -2 -11 17 26 40 43
27 7 -6 13 -18 13 -25z"/>
<path d="M2736 1398 c-9 -12 -16 -29 -16 -38 0 -9 7 -26 16 -38 22 -31 63 -26
84 11 13 24 13 30 0 55 -21 36 -62 41 -84 10z m58 -4 c33 -33 4 -94 -35 -74
-33 18 -20 83 18 90 1 0 9 -7 17 -16z"/>
<path d="M2926 1404 c-36 -35 -10 -104 38 -104 13 0 29 7 36 15 14 17 3 20
-19 6 -9 -6 -22 -6 -33 0 -30 16 -20 29 22 29 32 0 40 4 40 18 0 22 -30 52
-53 52 -8 0 -23 -7 -31 -16z m62 -26 c3 -14 -3 -18 -27 -18 -29 0 -41 17 -24
34 13 13 48 1 51 -16z"/>
<path d="M3041 1406 c-19 -22 -7 -43 28 -51 17 -4 31 -13 31 -20 0 -20 -28
-26 -45 -8 -20 19 -33 9 -15 -12 28 -34 96 -3 73 33 -5 10 -19 19 -29 20 -10
2 -23 8 -29 13 -16 15 16 29 38 17 15 -8 18 -7 15 4 -6 19 -52 22 -67 4z"/>
<path d="M3215 1404 c-22 -23 -12 -29 17 -10 16 10 28 12 38 6 13 -9 13 -11 0
-20 -8 -5 -22 -10 -31 -10 -9 0 -22 -7 -30 -16 -21 -26 1 -49 50 -50 l41 -1 0
39 c0 22 -5 48 -10 59 -13 23 -53 25 -75 3z m65 -59 c0 -19 -32 -36 -49 -25
-8 4 -11 15 -8 24 8 20 57 22 57 1z"/>
<path d="M3472 1413 c-7 -3 -17 -16 -22 -29 -22 -56 38 -107 80 -69 48 44 1
122 -58 98z m58 -53 c0 -38 -31 -57 -54 -34 -33 33 -4 94 35 74 12 -7 19 -21
19 -40z"/>
</g>
</svg>
