<?xml version="1.0" standalone="no"?>
<!DOCTYPE svg PUBLIC "-//W3C//DTD SVG 20010904//EN"
 "http://www.w3.org/TR/2001/REC-SVG-20010904/DTD/svg10.dtd">
<svg version="1.0" xmlns="http://www.w3.org/2000/svg"
 width="1232.000000pt" height="882.000000pt" viewBox="0 0 1232.000000 882.000000"
 preserveAspectRatio="xMidYMid meet">

<g transform="translate(0.000000,882.000000) scale(0.100000,-0.100000)"
fill="#000000" stroke="none">
<path d="M3108 7862 c-14 -3 -18 -14 -18 -48 0 -42 -1 -44 -24 -38 -24 6 -65
-10 -78 -30 -4 -6 -8 -30 -8 -53 0 -57 36 -87 98 -80 24 2 45 7 48 9 2 3 3 59
2 124 -3 107 -5 119 -20 116z m-20 -169 c3 -39 1 -43 -20 -43 -30 0 -48 17
-48 45 0 28 20 46 45 43 16 -2 21 -12 23 -45z"/>
<path d="M3828 7863 c-16 -4 -18 -18 -18 -113 0 -101 2 -110 22 -124 30 -22
48 -20 48 4 0 11 -4 20 -10 20 -6 0 -10 43 -10 110 0 61 -3 109 -7 109 -5 -1
-16 -3 -25 -6z"/>
<path d="M2120 7725 l0 -115 25 0 25 0 0 115 0 115 -25 0 -25 0 0 -115z"/>
<path d="M2227 7823 c-17 -4 -19 -14 -15 -95 3 -100 17 -121 73 -116 41 4 47
35 8 40 -25 3 -28 7 -31 46 -3 41 -2 42 27 42 24 0 31 4 31 20 0 16 -7 20 -30
20 -25 0 -30 4 -30 25 0 26 -1 26 -33 18z"/>
<path d="M4122 7822 c-9 -6 -12 -33 -10 -97 3 -84 5 -90 29 -104 16 -9 36 -12
53 -7 33 8 30 30 -5 35 -30 4 -39 17 -39 59 0 29 3 32 30 32 23 0 30 4 30 20
0 16 -7 20 -30 20 -25 0 -30 4 -30 25 0 26 -7 30 -28 17z"/>
<path d="M7842 7788 c-23 -23 -13 -47 24 -63 25 -10 35 -20 32 -32 -4 -24 -32
-28 -52 -7 -9 9 -19 14 -22 11 -8 -8 26 -37 45 -37 9 0 26 6 36 14 25 18 13
44 -30 62 -37 15 -46 38 -19 48 21 8 20 8 39 -10 9 -9 18 -14 21 -11 8 8 -26
37 -45 37 -9 0 -22 -5 -29 -12z"/>
<path d="M8053 7730 c0 -41 2 -58 4 -37 2 20 2 54 0 75 -2 20 -4 3 -4 -38z"/>
<path d="M9760 7790 c0 -5 5 -10 10 -10 6 0 10 5 10 10 0 6 -4 10 -10 10 -5 0
-10 -4 -10 -10z"/>
<path d="M10332 7735 c-2 -70 -2 -70 26 -72 35 -2 52 13 52 47 0 33 -22 54
-49 45 -16 -5 -20 -1 -24 22 -2 15 -5 -3 -5 -42z m56 3 c27 -27 2 -75 -32 -62
-19 7 -22 60 -3 67 19 8 22 8 35 -5z"/>
<path d="M10540 7790 c0 -5 5 -10 10 -10 6 0 10 5 10 10 0 6 -4 10 -10 10 -5
0 -10 -4 -10 -10z"/>
<path d="M2375 7755 c-29 -28 -33 -79 -10 -112 18 -25 63 -37 104 -28 43 9 29
35 -19 35 -21 0 -43 7 -50 15 -11 13 -5 15 49 15 33 0 61 4 61 9 0 23 -24 73
-40 81 -32 17 -70 11 -95 -15z m83 -32 c2 -9 -8 -13 -33 -13 -33 0 -36 2 -25
15 15 18 51 16 58 -2z"/>
<path d="M2568 7773 c-15 -4 -18 -17 -18 -84 0 -78 0 -79 25 -79 24 0 25 2 25
66 0 62 1 65 23 62 20 -3 22 -9 25 -65 3 -60 4 -63 29 -63 26 0 26 0 20 67 -4
53 -10 71 -27 85 -21 17 -63 21 -102 11z"/>
<path d="M2763 7765 c-25 -18 -30 -57 -10 -72 6 -6 25 -13 40 -17 38 -9 23
-29 -19 -24 -25 3 -34 0 -37 -14 -4 -14 3 -19 31 -24 44 -8 86 12 90 44 5 30
-11 48 -49 56 -38 7 -29 26 12 26 24 0 30 4 27 18 -4 23 -56 27 -85 7z"/>
<path d="M3199 7751 c-31 -31 -36 -55 -18 -94 17 -38 78 -58 123 -41 30 12 18
34 -18 34 -40 0 -66 8 -66 21 0 5 25 9 55 9 52 0 55 1 55 25 0 34 -42 75 -75
75 -16 0 -38 -12 -56 -29z m85 -26 c4 -12 -3 -15 -29 -15 -33 0 -43 8 -28 23
12 13 51 7 57 -8z"/>
<path d="M3493 7770 c-50 -20 -60 -105 -16 -140 33 -26 96 -25 101 3 3 13 -4
17 -30 17 -39 0 -58 15 -58 45 0 29 19 45 51 45 30 0 46 25 23 34 -21 8 -44 7
-71 -4z"/>
<path d="M3629 7751 c-17 -18 -29 -40 -29 -56 0 -32 49 -85 79 -85 48 0 91 40
91 85 0 27 -22 63 -47 74 -39 18 -63 13 -94 -18z m86 -56 c0 -36 -3 -40 -27
-43 -30 -4 -44 23 -34 64 5 20 12 25 34 22 24 -3 27 -7 27 -43z"/>
<path d="M3935 7755 c-29 -28 -33 -79 -10 -112 18 -25 63 -37 104 -28 43 9 29
35 -19 35 -21 0 -43 7 -50 15 -11 13 -5 15 49 15 33 0 61 4 61 9 0 23 -24 73
-40 81 -32 17 -70 11 -95 -15z m83 -32 c2 -9 -8 -13 -33 -13 -33 0 -36 2 -25
15 15 18 51 16 58 -2z"/>
<path d="M4267 7773 c-17 -17 -4 -32 30 -35 42 -3 59 -28 19 -28 -50 0 -76
-17 -76 -50 0 -34 26 -50 80 -50 54 0 60 7 60 76 0 54 -3 65 -22 78 -23 16
-79 22 -91 9z m73 -108 c0 -16 -45 -21 -54 -6 -8 12 4 21 31 21 14 0 23 -6 23
-15z"/>
<path d="M9802 7765 c-7 -8 -8 -15 -3 -15 5 0 11 -19 13 -42 4 -62 23 -58 21
4 -1 29 -2 56 -2 61 -1 11 -15 8 -29 -8z"/>
<path d="M7956 7747 c-12 -9 -17 -23 -14 -41 4 -38 29 -54 60 -38 l23 12 -23
-6 c-22 -6 -52 10 -52 27 0 5 16 9 35 9 36 0 46 15 23 38 -15 15 -30 15 -52
-1z m44 -12 c11 -13 8 -15 -20 -15 -28 0 -31 2 -20 15 7 8 16 15 20 15 4 0 13
-7 20 -15z"/>
<path d="M8102 7748 c-7 -7 -12 -24 -12 -38 0 -14 5 -31 12 -38 15 -15 45 -15
54 0 5 8 2 9 -11 5 -18 -7 -45 8 -45 24 0 5 16 9 35 9 38 0 40 2 25 31 -12 21
-40 25 -58 7z m46 -16 c2 -7 -7 -12 -23 -12 -24 0 -26 2 -15 15 14 17 31 16
38 -3z"/>
<path d="M8202 7748 c-7 -7 -12 -24 -12 -38 0 -46 43 -67 70 -35 15 18 -1 20
-18 3 -14 -14 -42 6 -42 32 0 26 28 46 42 32 17 -17 33 -15 18 3 -15 18 -42
19 -58 3z"/>
<path d="M8303 7710 c0 -30 2 -43 4 -27 2 15 2 39 0 55 -2 15 -4 2 -4 -28z"/>
<path d="M8351 7746 c-31 -37 9 -103 47 -80 36 23 23 94 -18 94 -10 0 -23 -6
-29 -14z m47 -8 c28 -28 -3 -83 -33 -58 -8 7 -15 20 -15 29 0 17 18 41 30 41
3 0 11 -5 18 -12z"/>
<path d="M8452 7705 c1 -42 2 -44 5 -13 8 70 53 76 53 7 0 -21 5 -39 10 -39
13 0 13 60 0 80 -5 8 -23 15 -40 15 -30 1 -30 0 -28 -50z"/>
<path d="M8564 7735 c-15 -23 -15 -27 0 -50 17 -26 50 -33 62 -13 5 8 2 9 -9
5 -22 -8 -47 2 -47 19 0 9 12 14 35 14 29 0 33 3 28 18 -14 39 -46 42 -69 7z
m54 -2 c2 -8 -6 -13 -22 -13 -25 0 -33 10 -19 24 10 10 36 3 41 -11z"/>
<path d="M8714 7715 c1 -49 1 -50 34 -50 l32 -1 -2 51 c-1 50 -2 50 -5 8 -2
-24 -8 -44 -14 -44 -30 -5 -34 -1 -40 41 l-7 45 2 -50z"/>
<path d="M8810 7708 c0 -26 5 -48 10 -48 6 0 10 18 10 39 0 22 5 43 10 46 19
12 40 -16 42 -54 1 -34 1 -34 7 9 5 36 10 45 26 45 16 0 21 -9 26 -45 l7 -45
-2 50 -1 50 -67 1 -68 1 0 -49z"/>
<path d="M9034 7735 c-15 -23 -15 -27 0 -50 28 -43 76 -27 76 25 0 52 -48 68
-76 25z m54 3 c27 -27 2 -75 -32 -62 -19 7 -22 60 -3 67 19 8 22 8 35 -5z"/>
<path d="M9144 7715 c1 -49 1 -50 34 -51 l32 -1 -2 51 -1 51 -6 -45 c-5 -36
-10 -45 -26 -45 -16 0 -21 9 -26 45 l-7 45 2 -50z"/>
<path d="M9290 7708 c0 -26 5 -48 10 -48 6 0 10 18 10 39 0 22 5 43 10 46 19
12 40 -16 42 -54 1 -34 1 -34 7 9 5 36 10 45 26 45 16 0 21 -9 26 -45 l7 -45
-2 50 -1 50 -67 1 -68 1 0 -49z"/>
<path d="M9473 7754 c-7 -3 -13 -10 -13 -16 0 -6 6 -6 15 2 15 13 45 7 45 -8
0 -5 -14 -12 -31 -16 -25 -5 -30 -10 -27 -28 2 -19 10 -23 38 -24 l36 -2 -6
47 c-5 46 -22 59 -57 45z m47 -58 c0 -18 -30 -30 -43 -17 -5 5 -6 14 -3 20 10
16 46 13 46 -3z"/>
<path d="M9573 7710 c0 -30 2 -43 4 -27 2 15 2 39 0 55 -2 15 -4 2 -4 -28z"/>
<path d="M9622 7748 c-19 -19 -15 -28 18 -39 17 -6 30 -15 30 -19 0 -16 -21
-23 -33 -11 -17 17 -31 13 -17 -4 19 -23 54 -15 58 12 3 17 -3 24 -22 29 -27
6 -33 18 -16 29 6 4 18 1 27 -7 14 -11 16 -11 11 2 -6 19 -40 24 -56 8z"/>
<path d="M9760 7710 c0 -27 5 -50 10 -50 6 0 10 23 10 50 0 28 -4 50 -10 50
-5 0 -10 -22 -10 -50z"/>
<path d="M9874 7735 c-15 -23 -15 -27 0 -50 17 -26 50 -33 62 -13 5 8 2 9 -9
5 -22 -8 -47 2 -47 19 0 9 12 14 35 14 29 0 33 3 28 18 -14 39 -46 42 -69 7z
m54 -2 c2 -8 -6 -13 -22 -13 -25 0 -33 10 -19 24 10 10 36 3 41 -11z"/>
<path d="M9972 7705 c1 -42 2 -44 5 -13 8 70 53 76 53 7 0 -21 5 -39 10 -39
13 0 13 60 0 80 -5 8 -23 15 -40 15 -30 1 -30 0 -28 -50z"/>
<path d="M10091 7751 c-17 -11 -7 -41 12 -41 8 0 20 -7 27 -15 10 -12 9 -16
-4 -21 -9 -3 -23 -1 -31 6 -10 8 -15 9 -15 2 0 -17 19 -24 46 -18 33 9 30 35
-6 49 -16 6 -30 15 -30 19 0 14 22 20 33 9 17 -17 31 -13 17 4 -14 17 -29 19
-49 6z"/>
<path d="M10237 7753 c-14 -13 -7 -25 8 -13 8 6 19 9 25 5 16 -10 12 -25 -9
-25 -10 0 -24 -7 -31 -15 -18 -22 4 -45 41 -42 26 2 29 5 29 38 0 19 -5 40
-12 47 -13 13 -41 16 -51 5z m43 -57 c0 -8 -5 -18 -11 -22 -14 -8 -33 11 -25
25 10 16 36 13 36 -3z"/>
<path d="M10453 7753 c-7 -2 -13 -9 -13 -15 0 -6 6 -6 15 2 15 13 45 7 45 -8
0 -5 -14 -12 -31 -16 -25 -5 -30 -10 -27 -28 2 -18 9 -23 36 -23 31 -1 32 1
32 41 0 48 -19 63 -57 47z m47 -57 c0 -18 -30 -30 -43 -17 -5 5 -6 14 -3 20
10 16 46 13 46 -3z"/>
<path d="M10540 7710 c0 -27 5 -50 10 -50 6 0 10 23 10 50 0 28 -4 50 -10 50
-5 0 -10 -22 -10 -50z"/>
<path d="M10596 7735 c15 -23 15 -27 0 -50 -19 -28 -10 -34 10 -7 13 16 15 16
28 0 20 -27 29 -21 10 7 -15 23 -15 27 0 50 19 28 10 34 -10 8 -13 -17 -15
-17 -25 0 -5 9 -14 17 -20 17 -5 0 -2 -11 7 -25z"/>
<path d="M10698 7749 c-10 -6 -18 -22 -18 -37 0 -50 42 -69 73 -34 22 24 21
45 -1 65 -21 19 -30 20 -54 6z m36 -5 c21 -8 21 -60 0 -68 -34 -13 -59 35 -32
62 14 14 12 14 32 6z"/>
<path d="M3624 6512 c-20 -12 -54 -99 -54 -136 0 -26 -5 -36 -20 -41 -10 -3
-31 -20 -45 -36 -21 -25 -25 -41 -25 -90 l0 -59 55 0 55 0 0 -215 c0 -247 5
-267 68 -285 46 -14 84 -2 109 37 16 23 18 55 21 245 l3 218 55 0 54 0 0 48
c0 60 -27 113 -68 132 -29 14 -32 19 -32 61 0 29 -6 51 -15 59 -8 7 -15 20
-15 29 0 9 -5 22 -12 29 -13 13 -116 16 -134 4z m116 -37 c0 -5 -25 -11 -55
-13 -45 -2 -55 0 -55 13 0 13 10 15 55 13 30 -2 55 -7 55 -13z m28 -82 l3 -43
-85 0 -86 0 0 38 c0 21 3 42 7 46 4 4 41 5 83 4 l75 -3 3 -42z m45 -84 c31
-14 57 -59 57 -98 l0 -31 -186 0 -187 0 6 36 c8 45 31 82 60 94 32 13 222 12
250 -1z m-163 -379 l0 -220 25 -6 c52 -13 55 0 55 232 0 184 2 214 15 214 13
0 15 -30 15 -214 0 -201 -1 -215 -21 -240 -25 -31 -66 -34 -100 -7 -24 19 -24
22 -27 240 -3 218 -3 221 17 221 21 0 21 -4 21 -220z m48 8 c-4 -284 -22 -283
-26 2 -2 184 0 210 13 210 13 0 15 -27 13 -212z"/>
<path d="M6315 6495 c-16 -15 -25 -36 -25 -55 0 -29 -1 -30 -50 -30 -41 0 -56
-5 -75 -25 l-25 -24 0 -336 0 -336 25 -24 24 -25 241 0 241 0 24 25 25 24 0
336 0 336 -25 24 c-19 20 -34 25 -75 25 -49 0 -50 1 -50 30 0 19 -9 40 -25 55
-22 23 -32 25 -115 25 -83 0 -93 -2 -115 -25z m215 -24 c5 -11 10 -29 10 -40
0 -20 -5 -21 -110 -21 -105 0 -110 1 -110 21 0 51 15 59 110 59 78 0 91 -2
100 -19z m148 -103 c7 -7 12 -16 12 -20 0 -4 -117 -8 -260 -8 -143 0 -260 4
-260 8 0 28 30 32 260 32 170 0 239 -3 248 -12z m12 -343 l0 -285 -260 0 -260
0 0 285 0 285 260 0 260 0 0 -285z m0 -323 c0 -28 -30 -32 -260 -32 -230 0
-260 4 -260 32 0 4 117 8 260 8 143 0 260 -4 260 -8z"/>
<path d="M6356 6108 c-35 -67 -62 -126 -60 -130 3 -4 32 -8 65 -8 l59 0 0 -70
c0 -38 3 -70 8 -70 8 0 130 219 134 242 2 9 -15 14 -57 18 l-60 5 -3 68 c-2
37 -7 67 -12 67 -5 0 -38 -55 -74 -122z m115 -48 c27 0 49 -2 49 -5 0 -3 -14
-34 -32 -68 l-32 -62 -6 35 c-5 34 -6 35 -61 40 l-55 5 40 75 41 75 3 -47 3
-48 50 0z"/>
<path d="M9095 6495 l-25 -24 0 -391 0 -391 25 -24 24 -25 281 0 281 0 24 25
25 24 0 391 0 391 -25 24 -24 25 -281 0 -281 0 -24 -25z m593 -17 c17 -17 17
-779 0 -796 -17 -17 -559 -17 -576 0 -9 9 -12 111 -12 398 0 287 3 389 12 398
9 9 87 12 288 12 201 0 279 -3 288 -12z"/>
<path d="M9170 6010 c0 -6 47 -10 120 -10 73 0 120 4 120 10 0 6 -47 10 -120
10 -73 0 -120 -4 -120 -10z"/>
<path d="M9170 5945 c0 -12 20 -15 120 -15 100 0 120 3 120 15 0 13 -20 15
-120 15 -100 0 -120 -2 -120 -15z"/>
<path d="M9170 5875 c0 -12 20 -15 120 -15 100 0 120 3 120 15 0 13 -20 15
-120 15 -100 0 -120 -2 -120 -15z"/>
<path d="M3095 6470 c-10 -11 -16 -29 -13 -43 3 -17 -1 -28 -15 -36 -14 -9
-18 -20 -15 -42 3 -20 -1 -34 -14 -46 -23 -21 -23 -55 1 -77 11 -10 16 -26 14
-39 -6 -34 18 -58 65 -64 l42 -6 0 -53 0 -54 -70 0 -70 0 0 -51 c0 -67 23
-113 66 -134 31 -15 34 -20 34 -59 0 -27 6 -48 15 -56 8 -7 15 -20 15 -29 0
-9 5 -22 12 -29 13 -13 116 -16 134 -4 19 12 54 99 54 132 0 23 6 33 24 40 45
17 66 57 66 126 l0 64 -65 0 -65 0 0 55 c0 55 0 55 30 55 42 0 83 41 74 73 -4
17 -1 26 10 30 11 4 16 19 16 42 0 23 -5 38 -16 42 -10 4 -14 13 -10 28 7 29
-18 62 -54 70 -23 5 -30 12 -30 29 0 44 -28 56 -127 56 -77 0 -93 -3 -108 -20z
m205 -35 c0 -25 0 -25 -94 -25 -67 0 -96 4 -99 13 -11 31 5 37 99 37 94 0 94
0 94 -25z m85 -85 l0 -25 -148 -3 c-125 -2 -148 0 -153 13 -4 8 -4 22 0 30 5
13 28 15 153 13 l148 -3 0 -25z m32 -76 c13 -35 -23 -44 -176 -44 -80 0 -156
3 -168 6 -22 6 -31 33 -16 47 3 4 84 7 180 7 152 0 174 -2 180 -16z m-32 -94
l0 -25 -148 -3 c-125 -2 -148 0 -153 13 -4 8 -4 22 0 30 5 13 28 15 153 13
l148 -3 0 -25z m-105 -115 l0 -55 -50 0 -50 0 0 55 0 55 50 0 50 0 0 -55z
m137 -125 c-7 -54 -30 -87 -66 -95 -23 -5 -31 -13 -33 -33 -3 -27 -4 -27 -85
-30 l-83 -3 0 31 c0 24 -4 30 -21 30 -11 0 -34 13 -50 29 -23 23 -29 39 -29
70 l0 41 186 0 187 0 -6 -40z m-99 -202 c-3 -9 -29 -13 -83 -13 -54 0 -80 4
-82 13 -4 9 17 12 82 12 65 0 86 -3 83 -12z m-28 -53 c0 -11 -13 -15 -54 -15
-51 0 -74 9 -59 24 3 3 30 6 60 6 40 0 53 -4 53 -15z"/>
<path d="M3109 5193 c-12 -16 -12 -17 2 -6 12 10 18 10 28 0 11 -9 13 -9 9 2
-7 22 -23 24 -39 4z"/>
<path d="M3710 5181 c0 -26 -3 -30 -27 -28 -20 2 -31 -5 -42 -25 -14 -25 -14
-31 -1 -55 13 -22 23 -28 53 -29 l37 -1 0 83 c0 49 -4 84 -10 84 -5 0 -10 -13
-10 -29z m-5 -81 c0 -31 -3 -35 -25 -35 -19 0 -26 6 -28 23 -5 36 5 54 30 50
19 -2 23 -9 23 -38z"/>
<path d="M5834 5125 c0 -49 1 -71 3 -48 2 23 2 64 0 90 -2 26 -3 8 -3 -42z"/>
<path d="M5883 5125 c0 -68 2 -78 6 -40 5 45 8 50 31 50 23 0 25 -4 28 -47 2
-27 7 -48 13 -48 12 0 12 62 -1 96 -9 23 -15 26 -40 21 -26 -6 -29 -4 -33 26
-2 18 -4 -8 -4 -58z"/>
<path d="M9960 5125 c0 -50 4 -85 10 -85 6 0 10 35 10 85 0 50 -4 85 -10 85
-6 0 -10 -35 -10 -85z"/>
<path d="M2972 5123 l-2 -83 48 1 47 2 -40 6 -40 6 -6 75 -5 75 -2 -82z"/>
<path d="M5641 5118 c1 -56 4 -72 8 -48 5 32 9 35 46 40 35 4 40 8 43 35 4 36
-18 55 -65 55 l-33 0 1 -82z m83 46 c9 -24 -12 -44 -45 -44 -26 0 -29 4 -29
30 0 27 3 30 34 30 22 0 36 -6 40 -16z"/>
<path d="M5770 5190 c0 -5 5 -10 10 -10 6 0 10 5 10 10 0 6 -4 10 -10 10 -5 0
-10 -4 -10 -10z"/>
<path d="M6460 5120 l0 -80 38 0 c21 0 43 5 50 12 15 15 16 50 1 65 -8 8 -8
13 0 17 18 11 13 44 -8 56 -11 5 -33 10 -50 10 l-31 0 0 -80z m78 38 c-2 -17
-11 -24 -30 -26 -24 -3 -28 0 -28 22 0 22 4 26 31 26 26 0 30 -3 27 -22z m-7
-48 c31 -17 20 -44 -24 -55 -26 -7 -27 -5 -27 29 0 39 14 45 51 26z"/>
<path d="M6980 5189 c0 -5 5 -7 10 -4 6 3 10 8 10 11 0 2 -4 4 -10 4 -5 0 -10
-5 -10 -11z"/>
<path d="M8580 5120 c0 -47 4 -80 10 -80 6 0 10 16 10 35 0 33 2 35 33 35 36
0 57 15 57 40 0 27 -34 50 -73 50 l-37 0 0 -80z m85 30 c0 -21 -5 -26 -32 -28
-31 -3 -33 -1 -33 28 0 29 2 31 33 28 27 -2 32 -7 32 -28z"/>
<path d="M9070 5190 c0 -5 5 -10 10 -10 6 0 10 5 10 10 0 6 -4 10 -10 10 -5 0
-10 -4 -10 -10z"/>
<path d="M9470 5120 c0 -47 4 -80 10 -80 6 0 10 16 10 35 0 33 2 35 33 35 36
0 57 15 57 40 0 27 -34 50 -73 50 l-37 0 0 -80z m85 30 c0 -21 -5 -26 -32 -28
-31 -3 -33 -1 -33 28 0 29 2 31 33 28 27 -2 32 -7 32 -28z"/>
<path d="M10030 5192 c0 -10 58 -13 64 -3 3 4 -10 8 -29 9 -19 1 -35 -2 -35
-6z"/>
<path d="M6720 5176 c0 -8 -6 -17 -12 -19 -10 -4 -10 -6 0 -6 7 -1 12 -16 12
-40 0 -22 3 -46 6 -55 7 -17 34 -22 34 -6 0 6 -4 10 -10 10 -15 0 -12 87 3 93
10 4 10 6 0 6 -7 1 -13 8 -13 16 0 8 -4 15 -10 15 -5 0 -10 -6 -10 -14z"/>
<path d="M3094 5144 c-19 -15 -19 -16 1 -9 37 12 55 9 55 -10 0 -9 -9 -15 -24
-15 -13 0 -29 -7 -37 -16 -20 -25 1 -49 45 -50 l36 -1 0 46 c0 68 -32 91 -76
55z m54 -61 c-4 -22 -48 -31 -48 -10 0 19 10 27 32 27 13 0 18 -6 16 -17z"/>
<path d="M3200 5098 c0 -32 4 -58 10 -58 6 0 10 23 10 50 0 47 2 50 25 50 23
0 25 -3 25 -50 0 -64 18 -66 22 -2 3 40 6 47 26 50 20 3 22 0 22 -47 0 -28 5
-51 10 -51 6 0 10 22 10 49 0 59 -18 80 -55 63 -15 -7 -27 -8 -30 -2 -3 5 -21
9 -40 8 l-35 -1 0 -59z"/>
<path d="M3401 5076 c1 -45 4 -69 6 -53 4 23 8 26 27 21 30 -7 56 19 56 54 0
41 -15 56 -54 57 l-36 2 1 -81z m67 31 c5 -38 -14 -60 -39 -46 -19 10 -27 58
-12 73 17 17 48 0 51 -27z"/>
<path d="M3530 5145 c-15 -18 1 -20 18 -3 8 8 15 8 27 -2 22 -18 19 -30 -9
-30 -35 0 -59 -26 -46 -50 7 -14 20 -19 48 -17 l37 1 -4 46 c-2 25 -8 51 -13
58 -14 16 -43 15 -58 -3z m55 -65 c0 -9 -11 -16 -27 -18 -20 -2 -28 1 -28 12
0 8 6 17 13 19 21 9 42 2 42 -13z"/>
<path d="M3769 5143 c-12 -15 -12 -16 6 -9 22 8 25 9 43 7 23 -2 13 -31 -11
-31 -28 0 -47 -17 -47 -42 0 -20 0 -20 53 -23 l37 -2 0 43 c0 65 -48 98 -81
57z m61 -58 c0 -19 -24 -29 -46 -21 -13 5 -14 9 -4 21 16 20 50 19 50 0z"/>
<path d="M3892 5148 c-21 -21 -13 -37 23 -52 19 -8 35 -19 35 -24 0 -18 -27
-21 -49 -6 -22 16 -29 6 -9 -14 16 -16 44 -15 62 3 21 21 10 42 -25 50 -30 7
-39 29 -15 38 7 3 19 0 25 -6 6 -6 14 -7 18 -3 9 9 -16 26 -37 26 -9 0 -21 -5
-28 -12z"/>
<path d="M5770 5100 c0 -33 4 -60 10 -60 6 0 10 27 10 60 0 33 -4 60 -10 60
-6 0 -10 -27 -10 -60z"/>
<path d="M6009 5143 c-12 -15 -12 -16 6 -9 22 8 25 9 43 7 23 -2 13 -31 -11
-31 -28 0 -47 -17 -47 -42 0 -20 0 -20 53 -23 l37 -2 0 43 c0 65 -48 98 -81
57z m61 -58 c0 -19 -24 -29 -46 -21 -13 5 -14 9 -4 21 16 20 50 19 50 0z"/>
<path d="M6132 5148 c-21 -21 -13 -37 23 -52 19 -8 35 -19 35 -24 0 -18 -27
-21 -49 -6 -22 16 -29 6 -9 -14 16 -16 44 -15 62 3 21 21 10 42 -25 50 -30 7
-39 29 -15 38 7 3 19 0 25 -6 6 -6 14 -7 18 -3 9 9 -16 26 -37 26 -9 0 -21 -5
-28 -12z"/>
<path d="M6296 5138 c-21 -29 -20 -51 2 -78 14 -18 25 -22 45 -16 15 3 27 11
27 17 0 7 -6 7 -17 0 -21 -11 -53 3 -53 24 0 11 12 15 40 15 22 0 40 3 40 8 0
18 -33 52 -50 52 -10 0 -26 -10 -34 -22z m64 -19 c0 -5 -13 -9 -30 -9 -33 0
-39 14 -13 29 18 10 43 -2 43 -20z"/>
<path d="M6610 5150 c-8 -5 -11 -12 -7 -16 4 -4 12 -3 18 3 14 14 39 6 39 -12
0 -7 -14 -15 -30 -19 -60 -12 -46 -68 16 -63 33 2 34 3 34 48 0 61 -28 86 -70
59z m50 -70 c0 -15 -7 -20 -25 -20 -41 0 -30 37 13 39 6 1 12 -8 12 -19z"/>
<path d="M6796 5138 c-21 -29 -20 -51 2 -78 14 -18 25 -22 45 -16 15 3 27 11
27 17 0 7 -6 7 -17 0 -21 -11 -53 3 -53 24 0 11 12 15 40 15 22 0 40 3 40 8 0
18 -33 52 -50 52 -10 0 -26 -10 -34 -22z m64 -19 c0 -5 -13 -9 -30 -9 -33 0
-39 14 -13 29 18 10 43 -2 43 -20z"/>
<path d="M6900 5098 c0 -32 4 -58 10 -58 6 0 10 21 10 46 0 37 4 47 20 51 30
8 24 22 -10 21 -30 -1 -30 -1 -30 -60z"/>
<path d="M6980 5100 c0 -33 4 -60 10 -60 6 0 10 27 10 60 0 33 -4 60 -10 60
-6 0 -10 -27 -10 -60z"/>
<path d="M7039 5143 c-12 -15 -12 -16 6 -9 22 8 25 9 43 7 23 -2 13 -31 -11
-31 -28 0 -47 -17 -47 -42 0 -20 0 -20 53 -23 l37 -2 0 43 c0 65 -48 98 -81
57z m61 -58 c0 -19 -24 -29 -46 -21 -13 5 -14 9 -4 21 16 20 50 19 50 0z"/>
<path d="M7162 5148 c-21 -21 -13 -37 23 -52 19 -8 35 -19 35 -24 0 -18 -27
-21 -49 -6 -22 16 -29 6 -9 -14 16 -16 44 -15 62 3 21 21 10 42 -25 50 -30 7
-39 29 -15 38 7 3 19 0 25 -6 6 -6 14 -7 18 -3 9 9 -16 26 -37 26 -9 0 -21 -5
-28 -12z"/>
<path d="M8724 5144 c-19 -15 -19 -16 1 -9 37 12 55 9 55 -10 0 -9 -9 -15 -24
-15 -13 0 -29 -7 -37 -16 -20 -25 1 -49 45 -50 l36 -1 0 46 c0 68 -32 91 -76
55z m54 -61 c-4 -22 -48 -31 -48 -10 0 19 10 27 32 27 13 0 18 -6 16 -17z"/>
<path d="M8830 5079 c0 -46 4 -79 10 -79 6 0 10 11 10 24 0 21 5 24 27 23 20
-2 31 5 42 26 14 24 14 30 1 55 -13 21 -23 27 -53 28 l-37 1 0 -78z m78 26 c3
-19 -2 -33 -13 -41 -28 -20 -45 -6 -45 38 0 37 2 39 28 36 22 -2 28 -9 30 -33z"/>
<path d="M8966 5138 c-21 -29 -20 -51 2 -78 14 -18 25 -22 45 -16 15 3 27 11
27 17 0 7 -6 7 -17 0 -21 -11 -53 3 -53 24 0 11 12 15 40 15 22 0 40 3 40 8 0
18 -33 52 -50 52 -10 0 -26 -10 -34 -22z m64 -19 c0 -5 -13 -9 -30 -9 -33 0
-39 14 -13 29 18 10 43 -2 43 -20z"/>
<path d="M9070 5100 c0 -33 4 -60 10 -60 6 0 10 27 10 60 0 33 -4 60 -10 60
-6 0 -10 -27 -10 -60z"/>
<path d="M9143 5153 c-27 -10 -13 -44 24 -60 34 -14 36 -16 19 -28 -18 -14
-46 -10 -46 6 0 5 -4 9 -10 9 -5 0 -7 -7 -4 -15 8 -21 51 -30 69 -15 25 20 17
40 -21 56 -29 12 -34 18 -24 29 9 11 17 12 30 5 27 -14 34 -12 20 5 -12 15
-34 18 -57 8z"/>
<path d="M9306 5138 c-22 -30 -20 -61 4 -83 20 -18 70 -14 70 6 0 7 -6 7 -17
0 -21 -11 -53 3 -53 24 0 11 12 15 40 15 22 0 40 3 40 8 0 18 -33 52 -50 52
-10 0 -26 -10 -34 -22z m62 -15 c2 -9 -7 -13 -27 -13 -30 0 -39 9 -24 24 11
10 46 3 51 -11z"/>
<path d="M9614 5144 c-19 -15 -19 -16 1 -9 37 12 55 9 55 -10 0 -9 -9 -15 -24
-15 -13 0 -29 -7 -37 -16 -20 -25 1 -49 45 -50 l36 -1 0 46 c0 68 -32 91 -76
55z m54 -61 c-4 -22 -48 -31 -48 -10 0 19 10 27 32 27 13 0 18 -6 16 -17z"/>
<path d="M9720 5079 c0 -46 4 -79 10 -79 6 0 10 11 10 24 0 21 5 24 27 23 20
-2 31 5 42 26 14 24 14 30 1 55 -13 21 -23 27 -53 28 l-37 1 0 -78z m78 26 c3
-19 -2 -33 -13 -41 -28 -20 -45 -6 -45 38 0 37 2 39 28 36 22 -2 28 -9 30 -33z"/>
<path d="M9856 5138 c-22 -30 -20 -61 4 -83 20 -18 70 -14 70 6 0 7 -6 7 -17
0 -21 -11 -53 3 -53 24 0 11 12 15 40 15 22 0 40 3 40 8 0 18 -33 52 -50 52
-10 0 -26 -10 -34 -22z m62 -15 c2 -9 -7 -13 -27 -13 -30 0 -39 9 -24 24 11
10 46 3 51 -11z"/>
<path d="M10030 5150 c-8 -5 -11 -12 -7 -16 4 -4 12 -3 18 3 14 14 39 6 39
-12 0 -7 -14 -15 -30 -19 -60 -12 -46 -68 16 -63 33 2 34 3 34 48 0 61 -28 86
-70 59z m50 -70 c0 -15 -7 -20 -25 -20 -41 0 -30 37 13 39 6 1 12 -8 12 -19z"/>
<path d="M10147 5142 c-47 -52 18 -135 67 -86 33 33 10 104 -33 104 -10 0 -25
-8 -34 -18z m73 -43 c0 -29 -28 -51 -51 -39 -25 14 -26 65 -2 79 21 12 53 -12
53 -40z"/>
<path d="M3206 3799 l-26 -20 0 -177 c0 -128 4 -191 15 -226 11 -35 15 -98 15
-223 0 -231 -22 -213 250 -213 272 0 250 -18 250 213 0 125 4 188 15 223 11
35 15 98 15 226 l0 177 -26 20 c-25 20 -39 21 -254 21 -215 0 -229 -1 -254
-21z m504 -28 c16 -31 12 -318 -5 -366 -11 -29 -15 -89 -15 -218 0 -104 -4
-186 -10 -198 -10 -18 -23 -19 -220 -19 -197 0 -210 1 -220 19 -6 12 -10 94
-10 198 0 129 -4 189 -15 218 -17 48 -21 335 -5 366 10 18 24 19 250 19 226 0
240 -1 250 -19z"/>
<path d="M3260 3380 l0 -40 45 0 45 0 0 40 0 40 -45 0 -45 0 0 -40z m55 0 c0
-7 -6 -15 -12 -17 -8 -3 -13 4 -13 17 0 13 5 20 13 18 6 -3 12 -11 12 -18z"/>
<path d="M3392 3408 c-16 -16 -15 -43 2 -57 22 -19 126 -10 140 12 8 12 8 22
0 35 -14 21 -122 30 -142 10z m118 -18 c13 -9 13 -11 0 -20 -8 -5 -31 -10 -50
-10 -19 0 -42 5 -50 10 -13 9 -13 11 0 20 8 5 31 10 50 10 19 0 42 -5 50 -10z"/>
<path d="M3570 3380 l0 -40 45 0 45 0 0 40 0 40 -45 0 -45 0 0 -40z m60 0 c0
-11 -4 -20 -9 -20 -14 0 -23 18 -16 30 10 17 25 11 25 -10z"/>
<path d="M3271 3296 c-7 -8 -11 -25 -9 -38 3 -20 9 -23 56 -26 l53 -3 -3 38
c-3 37 -4 38 -44 41 -27 2 -45 -2 -53 -12z m79 -31 c0 -10 -10 -15 -30 -15
-20 0 -30 5 -30 15 0 10 10 15 30 15 20 0 30 -5 30 -15z"/>
<path d="M3410 3295 c-7 -8 -10 -25 -6 -40 6 -22 11 -25 56 -25 45 0 50 3 56
25 9 35 -11 55 -56 55 -21 0 -43 -7 -50 -15z m80 -30 c0 -10 -10 -15 -30 -15
-20 0 -30 5 -30 15 0 10 10 15 30 15 20 0 30 -5 30 -15z"/>
<path d="M3557 3303 c-4 -3 -7 -22 -7 -40 l0 -34 53 3 c46 3 52 6 55 26 2 13
-2 30 -8 38 -13 14 -81 20 -93 7z m73 -38 c0 -10 -10 -15 -30 -15 -20 0 -30 5
-30 15 0 10 10 15 30 15 20 0 30 -5 30 -15z"/>
<path d="M3264 3176 c-3 -8 -4 -25 -2 -38 3 -21 8 -23 53 -23 l50 0 3 38 3 37
-51 0 c-35 0 -52 -4 -56 -14z m86 -21 c0 -10 -10 -15 -30 -15 -20 0 -30 5 -30
15 0 10 10 15 30 15 20 0 30 -5 30 -15z"/>
<path d="M3404 3165 c-9 -35 11 -55 56 -55 45 0 65 20 56 55 -6 22 -11 25 -56
25 -45 0 -50 -3 -56 -25z m86 -10 c0 -10 -10 -15 -30 -15 -20 0 -30 5 -30 15
0 10 10 15 30 15 20 0 30 -5 30 -15z"/>
<path d="M3552 3153 l3 -38 50 0 50 0 0 35 0 35 -53 3 -53 3 3 -38z m78 2 c0
-10 -10 -15 -30 -15 -20 0 -30 5 -30 15 0 10 10 15 30 15 20 0 30 -5 30 -15z"/>
<path d="M3264 3066 c-3 -8 -4 -25 -2 -38 3 -21 8 -23 53 -23 l50 0 3 38 3 37
-51 0 c-35 0 -52 -4 -56 -14z m84 -28 c-7 -20 -58 -23 -58 -4 0 11 10 16 31
16 20 0 29 -4 27 -12z"/>
<path d="M3405 3060 c-3 -11 -3 -29 0 -40 5 -16 15 -20 55 -20 45 0 50 3 56
25 9 37 -11 55 -62 55 -34 0 -44 -4 -49 -20z m83 -22 c-3 -7 -15 -13 -28 -13
-13 0 -25 6 -27 13 -3 8 6 12 27 12 21 0 30 -4 28 -12z"/>
<path d="M3557 3074 c-4 -4 -7 -23 -7 -41 l0 -34 53 3 52 3 0 35 c0 34 -1 35
-45 38 -25 2 -49 0 -53 -4z m73 -40 c0 -11 -8 -14 -27 -12 -39 4 -42 28 -4 28
21 0 31 -5 31 -16z"/>
<path d="M9116 3804 c-21 -21 -22 -94 -1 -94 22 0 18 -25 -11 -72 -65 -102
-85 -222 -59 -352 18 -92 15 -147 -10 -197 -48 -93 39 -182 130 -133 32 17 35
17 74 0 26 -12 50 -16 68 -12 15 4 33 6 38 5 6 -1 86 -3 179 -6 117 -3 178 0
198 8 57 23 58 30 58 316 0 173 -4 270 -11 287 -6 13 -31 39 -55 56 -37 26
-44 36 -44 66 0 24 5 34 15 34 11 0 15 11 15 39 0 65 -13 71 -159 71 -85 0
-131 -4 -139 -12 -18 -18 -15 -95 3 -102 8 -3 15 -18 15 -34 0 -22 -10 -36
-44 -60 l-44 -32 -31 54 c-35 60 -38 76 -16 76 19 0 21 80 3 98 -19 19 -153
16 -172 -4z m154 -44 l0 -30 -70 0 -70 0 0 30 0 30 70 0 70 0 0 -30z m400 0
l0 -30 -125 0 c-102 0 -127 3 -131 15 -16 40 0 45 131 45 l125 0 0 -30z m-424
-67 c3 -10 18 -43 34 -73 26 -50 28 -62 23 -128 -5 -62 -8 -72 -22 -66 -38 16
-64 15 -101 -1 -31 -14 -47 -16 -72 -8 -32 9 -33 11 -31 57 2 54 14 90 55 157
15 25 28 54 28 63 0 24 79 23 86 -1z m394 -13 l0 -30 -100 0 -100 0 0 30 0 30
100 0 100 0 0 -30z m50 -90 l35 -29 -185 0 -185 0 35 29 c34 29 37 29 150 30
114 0 116 0 150 -30z m61 -62 c2 -7 4 -116 4 -243 l0 -230 -213 -3 -212 -2 0
238 c0 131 3 242 7 245 3 4 97 7 209 7 153 0 203 -3 205 -12z m-476 -130 c29
-13 36 -45 8 -33 -37 16 -71 16 -101 1 -37 -19 -62 -20 -97 -4 -29 13 -36 45
-7 33 36 -16 71 -16 98 -1 35 18 65 20 99 4z m-7 -59 l31 -11 3 -161 c2 -89 7
-170 12 -179 7 -15 3 -18 -18 -18 -14 0 -41 7 -59 16 -32 15 -37 15 -70 -1
-47 -22 -85 -16 -110 16 -19 26 -19 27 3 75 29 67 34 127 16 202 -14 59 -13
63 2 56 36 -15 71 -15 98 0 35 18 51 19 92 5z m482 -323 c0 -8 -10 -22 -22
-30 -18 -13 -55 -16 -190 -16 -155 0 -170 2 -188 20 -11 11 -20 25 -20 30 0 6
77 10 210 10 176 0 210 -2 210 -14z"/>
<path d="M9498 3352 c-56 -70 -50 -130 15 -151 56 -19 117 20 117 73 0 19 -75
126 -88 126 -4 -1 -24 -22 -44 -48z m76 -33 c33 -39 33 -64 0 -85 -19 -13 -32
-15 -51 -8 -40 14 -46 45 -17 88 14 20 29 36 33 36 5 0 21 -14 35 -31z"/>
<path d="M6605 3799 c-21 -10 -115 -184 -115 -213 0 -32 37 -56 86 -56 41 0
45 -2 42 -21 -6 -39 -34 -47 -78 -21 -29 16 -55 22 -102 22 -52 1 -68 5 -90
25 -30 26 -37 55 -13 55 19 0 21 60 3 78 -16 16 -150 16 -166 0 -18 -18 -16
-78 3 -78 25 0 17 -30 -15 -60 l-30 -28 0 -132 c0 -144 -18 -233 -49 -250 -27
-14 -51 -72 -51 -124 l0 -46 401 0 402 0 -6 59 c-6 69 -26 105 -70 121 -96 36
-107 43 -107 67 l0 24 29 -20 c32 -23 47 -26 56 -12 3 6 -15 24 -40 41 -25 17
-45 37 -45 45 0 20 10 18 40 -5 30 -24 36 -24 43 -6 4 10 -10 25 -39 43 -26
16 -44 36 -44 46 0 17 3 17 36 -4 29 -18 38 -19 44 -8 7 10 -4 22 -36 42 -26
17 -44 37 -44 48 0 17 2 17 36 -3 26 -15 38 -18 46 -10 7 7 10 13 7 15 -2 1
-23 15 -46 30 -27 17 -43 35 -43 47 0 17 7 20 45 20 48 0 85 25 85 58 1 32
-92 200 -117 211 -28 13 -31 13 -58 0z m92 -109 c45 -80 53 -114 27 -124 -9
-3 -49 -6 -89 -6 -119 0 -125 9 -74 106 69 130 75 131 136 24z m-379 -57 c3
-10 -14 -13 -62 -13 -61 0 -77 6 -59 24 12 12 116 2 121 -11z m-28 -73 c0 -22
7 -33 27 -43 l26 -14 -56 -36 c-62 -40 -73 -56 -83 -116 -4 -22 -13 -49 -20
-58 -12 -16 -14 -6 -15 70 -2 48 -3 97 -3 109 -1 15 10 29 31 43 23 14 32 28
33 48 0 23 4 27 30 27 27 0 30 -3 30 -30z m227 -98 c13 -8 20 -18 17 -27 -10
-25 24 -28 56 -5 29 21 30 21 30 2 0 -12 -17 -31 -44 -49 -32 -20 -43 -32 -36
-42 6 -11 15 -10 44 8 33 21 36 21 36 4 0 -11 -19 -30 -45 -47 -36 -22 -43
-31 -34 -42 9 -12 16 -11 39 6 34 25 40 25 40 2 0 -10 -15 -26 -35 -36 -19
-11 -40 -25 -46 -33 -20 -24 18 -26 51 -3 l30 21 0 -23 c0 -18 -10 -29 -36
-41 -39 -19 -67 -71 -62 -116 3 -22 7 -26 33 -23 16 2 41 12 54 22 25 17 26
17 51 0 14 -10 39 -20 55 -21 29 -4 30 -3 29 39 0 23 3 42 7 42 16 0 39 -46
39 -77 l0 -33 -360 0 -360 0 0 34 c0 19 9 44 19 57 17 22 29 24 115 27 74 3
96 7 96 18 0 11 -18 14 -80 14 -46 0 -80 4 -80 10 0 24 34 91 51 100 10 6 61
10 113 10 89 0 96 1 96 20 0 18 -7 20 -85 20 l-84 0 5 33 c11 57 28 81 82 113
46 28 61 32 115 30 34 -1 72 -8 84 -14z m93 -371 c-6 -11 -19 -25 -30 -31 -31
-17 -26 25 7 58 23 23 28 24 31 10 2 -9 -2 -26 -8 -37z m90 8 c6 -11 10 -27 8
-36 -5 -24 -45 14 -54 51 -6 26 -5 27 14 17 12 -6 26 -21 32 -32z"/>
<path d="M3405 2639 c-11 -17 1 -21 15 -4 8 9 8 15 2 15 -6 0 -14 -5 -17 -11z"/>
<path d="M3520 2621 c0 -26 -3 -30 -27 -28 -20 2 -31 -5 -42 -25 -14 -25 -14
-31 -1 -55 13 -22 23 -28 53 -29 l37 -1 0 83 c0 49 -4 84 -10 84 -5 0 -10 -13
-10 -29z m-5 -81 c0 -31 -3 -35 -25 -35 -19 0 -26 6 -28 23 -5 36 5 54 30 50
19 -2 23 -9 23 -38z"/>
<path d="M3030 2560 c0 -47 4 -80 10 -80 6 0 10 16 10 35 0 25 4 35 15 35 9 0
25 -16 36 -35 26 -43 46 -47 23 -4 -11 23 -13 34 -5 42 6 6 11 23 11 39 0 32
-24 48 -69 48 l-31 0 0 -80z m84 44 c9 -22 -11 -44 -40 -44 -20 0 -24 5 -24
30 0 26 3 30 29 30 17 0 31 -6 35 -16z"/>
<path d="M3176 2584 c-9 -8 -16 -28 -16 -44 0 -52 52 -79 81 -43 13 15 12 15
-7 5 -16 -9 -26 -8 -43 4 -28 20 -18 34 25 34 26 0 34 4 34 18 0 39 -45 55
-74 26z m58 -20 c4 -10 -3 -14 -24 -14 -32 0 -37 9 -19 27 14 14 35 7 43 -13z"/>
<path d="M3293 2593 c-27 -10 -13 -44 24 -60 34 -14 36 -16 19 -28 -18 -14
-46 -10 -46 6 0 5 -4 9 -10 9 -5 0 -7 -7 -4 -15 8 -21 51 -30 69 -15 25 20 17
40 -21 56 -29 12 -34 18 -24 29 9 11 17 12 30 5 27 -14 34 -12 20 5 -12 15
-34 18 -57 8z"/>
<path d="M3390 2540 c0 -33 4 -60 10 -60 6 0 10 27 10 60 0 33 -4 60 -10 60
-6 0 -10 -27 -10 -60z"/>
<path d="M3570 2551 c0 -56 12 -70 58 -69 l32 1 0 59 c0 32 -4 58 -10 58 -5 0
-10 -22 -10 -50 0 -47 -2 -50 -25 -50 -23 0 -25 3 -25 50 0 28 -4 50 -10 50
-5 0 -10 -22 -10 -49z"/>
<path d="M3706 2584 c-33 -33 -10 -104 33 -104 10 0 25 8 34 18 47 52 -18 135
-67 86z m64 -44 c0 -39 -31 -57 -54 -31 -20 22 -20 31 0 59 21 30 54 14 54
-28z"/>
<path d="M3833 2593 c-27 -10 -13 -44 24 -60 34 -14 36 -16 19 -28 -18 -14
-46 -10 -46 6 0 5 -4 9 -10 9 -5 0 -7 -7 -4 -15 8 -21 51 -30 69 -15 25 20 17
40 -21 56 -29 12 -34 18 -24 29 9 11 17 12 30 5 27 -14 34 -12 20 5 -12 15
-34 18 -57 8z"/>
<path d="M8685 2539 c-11 -17 1 -21 15 -4 8 9 8 15 2 15 -6 0 -14 -5 -17 -11z"/>
<path d="M5850 2505 c-8 -9 -8 -15 -2 -15 12 0 26 19 19 26 -2 2 -10 -2 -17
-11z"/>
<path d="M5970 2490 c0 -27 -2 -30 -25 -24 -34 8 -55 -11 -55 -50 0 -45 14
-60 54 -61 l36 -2 0 84 c0 46 -2 83 -5 83 -3 0 -5 -14 -5 -30z m-5 -80 c0 -30
-4 -35 -26 -38 -29 -3 -42 20 -32 59 4 15 12 19 32 17 22 -3 26 -8 26 -38z"/>
<path d="M6807 2513 c-13 -12 -7 -26 6 -14 10 8 17 7 27 -2 12 -10 12 -9 1 6
-14 18 -24 21 -34 10z"/>
<path d="M8784 2435 c0 -49 1 -71 3 -48 2 23 2 64 0 90 -2 26 -3 8 -3 -42z"/>
<path d="M9200 2490 c0 -27 -3 -30 -24 -24 -30 7 -56 -18 -56 -54 0 -42 15
-56 59 -58 l41 -2 0 84 c0 49 -4 84 -10 84 -5 0 -10 -14 -10 -30z m-5 -80 c0
-31 -3 -35 -25 -35 -19 0 -26 6 -28 23 -5 36 5 54 30 50 19 -2 23 -9 23 -38z"/>
<path d="M9970 2435 c0 -90 17 -118 22 -37 3 40 6 47 26 50 20 3 22 0 22 -47
0 -28 5 -51 10 -51 6 0 10 22 10 49 0 54 -17 77 -50 66 -17 -5 -20 -2 -20 24
0 17 -4 31 -10 31 -6 0 -10 -35 -10 -85z"/>
<path d="M5481 2428 c1 -56 4 -72 8 -48 8 49 36 52 58 6 9 -20 20 -36 25 -36
11 0 10 7 -7 39 -13 26 -13 30 0 41 36 30 4 80 -51 80 l-34 0 1 -82z m74 32
c0 -21 -5 -26 -32 -28 -31 -3 -33 -1 -33 28 0 29 2 31 33 28 27 -2 32 -7 32
-28z"/>
<path d="M6450 2490 c-43 -43 -15 -140 40 -140 33 0 60 35 60 80 0 45 -27 80
-60 80 -11 0 -29 -9 -40 -20z m74 -16 c3 -9 6 -28 6 -44 0 -45 -10 -60 -40
-60 -16 0 -30 7 -34 16 -8 21 -8 89 1 97 13 13 61 7 67 -9z"/>
<path d="M7020 2499 c0 -5 5 -7 10 -4 6 3 10 8 10 11 0 2 -4 4 -10 4 -5 0 -10
-5 -10 -11z"/>
<path d="M8644 2489 c-40 -44 -12 -139 41 -139 33 0 60 36 60 80 0 44 -27 80
-60 80 -12 0 -30 -9 -41 -21z m80 -31 c20 -58 -28 -112 -70 -78 -17 15 -19 81
-2 98 22 22 62 10 72 -20z"/>
<path d="M9440 2490 c-41 -41 -15 -140 36 -140 26 0 54 20 54 38 -1 16 -2 15
-14 -1 -10 -12 -24 -17 -43 -15 -27 3 -28 5 -28 58 0 53 1 55 28 58 19 2 33
-3 43 -15 12 -16 13 -17 14 -1 0 18 -28 38 -54 38 -9 0 -25 -9 -36 -20z"/>
<path d="M9800 2499 c0 -5 5 -7 10 -4 6 3 10 8 10 11 0 2 -4 4 -10 4 -5 0 -10
-5 -10 -11z"/>
<path d="M5616 2448 c-21 -29 -20 -51 2 -78 14 -18 25 -22 45 -16 15 3 27 11
27 17 0 7 -6 7 -17 0 -21 -11 -53 3 -53 24 0 11 12 15 40 15 44 0 47 5 24 38
-19 28 -49 28 -68 0z m64 -19 c0 -5 -13 -9 -30 -9 -33 0 -39 14 -13 29 18 10
43 -2 43 -20z"/>
<path d="M5732 2458 c-21 -21 -13 -37 23 -52 19 -8 35 -19 35 -24 0 -18 -27
-21 -49 -6 -22 16 -29 6 -9 -14 16 -16 40 -15 62 1 24 17 10 47 -25 54 -16 3
-29 11 -29 18 0 18 25 26 39 12 6 -6 14 -7 18 -3 9 9 -16 26 -37 26 -9 0 -21
-5 -28 -12z"/>
<path d="M5840 2410 c0 -33 4 -60 10 -60 6 0 10 27 10 60 0 33 -4 60 -10 60
-6 0 -10 -27 -10 -60z"/>
<path d="M6024 2415 l1 -60 38 0 37 -1 -2 61 -1 60 -6 -50 c-5 -45 -8 -50 -31
-50 -23 0 -26 5 -31 50 l-6 50 1 -60z"/>
<path d="M6144 2444 c-32 -49 10 -109 60 -86 22 10 26 18 26 51 0 62 -55 84
-86 35z m60 0 c33 -33 4 -94 -35 -74 -33 18 -20 83 18 90 1 0 9 -7 17 -16z"/>
<path d="M6272 2458 c-21 -21 -13 -37 23 -52 19 -8 35 -19 35 -24 0 -18 -27
-21 -49 -6 -22 16 -29 6 -9 -14 16 -16 40 -15 62 1 24 17 10 47 -25 54 -16 3
-29 11 -29 18 0 18 25 26 39 12 6 -6 14 -7 18 -3 9 9 -16 26 -37 26 -9 0 -21
-5 -28 -12z"/>
<path d="M6580 2408 c0 -32 4 -58 10 -58 6 0 10 21 10 46 0 37 4 47 20 51 30
8 24 22 -10 21 -30 -1 -30 -1 -30 -60z"/>
<path d="M6662 2458 c-17 -17 -15 -74 4 -93 11 -10 25 -14 40 -11 13 4 24 2
24 -3 0 -16 -31 -29 -54 -23 -17 4 -19 2 -9 -9 10 -9 20 -10 40 -3 27 9 28 13
31 79 l3 70 -34 2 c-18 2 -39 -3 -45 -9z m63 -48 c0 -28 -4 -36 -22 -38 -29
-4 -48 30 -33 59 7 13 19 19 33 17 18 -2 22 -10 22 -38z"/>
<path d="M6790 2455 c-15 -18 1 -20 18 -3 8 8 15 8 27 -2 22 -18 19 -30 -9
-30 -35 0 -59 -26 -46 -50 7 -14 20 -19 48 -17 l37 1 -4 46 c-2 25 -8 51 -13
58 -14 16 -43 15 -58 -3z m55 -65 c0 -9 -11 -16 -27 -18 -20 -2 -28 1 -28 12
0 8 6 17 13 19 21 9 42 2 42 -13z"/>
<path d="M6902 2405 l1 -60 6 50 c5 45 8 50 31 50 23 0 25 -4 28 -47 2 -27 7
-48 13 -48 12 0 12 62 -1 94 -8 22 -15 26 -45 24 l-35 -3 2 -60z"/>
<path d="M7020 2410 c0 -33 4 -60 10 -60 6 0 10 27 10 60 0 33 -4 60 -10 60
-6 0 -10 -27 -10 -60z"/>
<path d="M7088 2459 c-27 -15 -25 -85 3 -100 24 -12 69 2 69 21 0 6 -11 4 -24
-5 -22 -14 -25 -14 -40 0 -9 9 -16 25 -16 35 0 10 7 26 16 35 15 14 18 14 40
0 25 -16 33 -8 12 13 -15 15 -37 15 -60 1z"/>
<path d="M7194 2444 c-32 -49 10 -109 60 -86 22 10 26 18 26 51 0 62 -55 84
-86 35z m60 0 c33 -33 4 -94 -35 -74 -33 18 -20 83 18 90 1 0 9 -7 17 -16z"/>
<path d="M7322 2458 c-21 -21 -13 -37 23 -52 19 -8 35 -19 35 -24 0 -18 -27
-21 -49 -6 -22 16 -29 6 -9 -14 16 -16 40 -15 62 1 24 17 10 47 -25 54 -16 3
-29 11 -29 18 0 18 25 26 39 12 6 -6 14 -7 18 -3 9 9 -16 26 -37 26 -9 0 -21
-5 -28 -12z"/>
<path d="M8846 2457 c-13 -9 -17 -23 -14 -52 2 -33 8 -41 30 -49 19 -7 31 -6
43 4 21 17 12 24 -13 11 -16 -9 -24 -7 -36 5 -22 22 -11 34 30 34 38 0 45 18
18 44 -19 19 -35 20 -58 3z m54 -23 c0 -9 -11 -14 -30 -14 -34 0 -36 3 -15 24
18 17 45 11 45 -10z"/>
<path d="M8957 2452 c-47 -52 18 -135 67 -86 33 33 10 104 -33 104 -10 0 -25
-8 -34 -18z m73 -43 c0 -29 -28 -51 -51 -39 -25 14 -26 65 -2 79 21 12 53 -12
53 -40z"/>
<path d="M9266 2457 c-13 -9 -17 -23 -14 -52 2 -33 8 -41 30 -49 19 -7 31 -6
43 4 21 17 12 24 -13 11 -16 -9 -24 -7 -36 5 -22 22 -11 34 30 34 38 0 45 18
18 44 -19 19 -35 20 -58 3z m54 -23 c0 -9 -11 -14 -30 -14 -34 0 -36 3 -15 24
18 17 45 11 45 -10z"/>
<path d="M9577 2452 c-47 -52 18 -135 67 -86 33 33 10 104 -33 104 -10 0 -25
-8 -34 -18z m73 -43 c0 -29 -28 -51 -51 -39 -25 14 -26 65 -2 79 21 12 53 -12
53 -40z"/>
<path d="M9708 2463 c17 -2 32 -8 32 -12 0 -4 -13 -25 -30 -47 -16 -21 -30
-42 -30 -46 0 -5 21 -7 48 -6 36 1 39 2 15 5 -18 2 -33 8 -33 12 0 4 14 27 30
49 17 23 30 44 30 47 0 3 -21 4 -47 3 -37 -1 -40 -2 -15 -5z"/>
<path d="M9800 2410 c0 -33 4 -60 10 -60 6 0 10 27 10 60 0 33 -4 60 -10 60
-6 0 -10 -27 -10 -60z"/>
<path d="M9850 2408 c0 -32 4 -58 10 -58 6 0 10 23 10 50 0 47 2 50 25 50 23
0 25 -3 25 -50 0 -27 5 -50 10 -50 15 0 12 96 -2 107 -7 6 -28 10 -45 10 l-33
0 0 -59z"/>
<path d="M10104 2454 c-19 -15 -19 -16 1 -9 37 12 55 9 55 -10 0 -9 -9 -15
-24 -15 -13 0 -29 -7 -37 -16 -20 -25 1 -49 45 -50 l36 -1 0 46 c0 68 -32 91
-76 55z m54 -61 c-4 -22 -48 -31 -48 -10 0 19 10 27 32 27 13 0 18 -6 16 -17z"/>
<path d="M3060 2295 c0 -50 4 -85 10 -85 6 0 10 35 10 85 0 50 -4 85 -10 85
-6 0 -10 -35 -10 -85z"/>
<path d="M3398 2362 c-11 -15 -11 -15 3 -5 12 10 18 10 27 1 8 -8 12 -9 12 -1
0 19 -28 22 -42 5z"/>
<path d="M2940 2290 l0 -80 48 1 47 2 -40 6 c-36 5 -40 9 -40 36 0 26 4 31 35
36 l35 6 -37 2 c-33 1 -38 4 -38 26 0 23 4 25 40 25 22 0 40 5 40 10 0 6 -20
10 -45 10 l-45 0 0 -80z"/>
<path d="M3620 2359 c0 -5 5 -7 10 -4 6 3 10 8 10 11 0 2 -4 4 -10 4 -5 0 -10
-5 -10 -11z"/>
<path d="M3230 2346 c0 -8 -6 -17 -12 -19 -10 -4 -10 -6 0 -6 7 -1 12 -16 12
-39 0 -41 23 -83 37 -68 4 5 2 11 -4 13 -16 6 -17 75 -1 91 9 9 9 12 0 12 -7
0 -12 7 -12 15 0 8 -4 15 -10 15 -5 0 -10 -6 -10 -14z"/>
<path d="M3126 2317 c-13 -9 -17 -23 -14 -52 2 -33 8 -41 30 -49 19 -7 31 -6
43 4 21 17 12 24 -13 11 -16 -9 -24 -7 -36 5 -22 22 -11 34 30 34 38 0 45 18
18 44 -19 19 -35 20 -58 3z m54 -23 c0 -9 -11 -14 -30 -14 -34 0 -36 3 -15 24
18 17 45 11 45 -10z"/>
<path d="M3302 2265 c2 -58 2 -59 5 -11 3 37 8 49 24 53 27 8 24 21 -6 19 -24
-1 -25 -4 -23 -61z"/>
<path d="M3388 2319 c-13 -7 -18 -22 -18 -50 0 -33 4 -41 26 -51 50 -23 92 37
60 86 -17 27 -39 32 -68 15z m62 -49 c0 -38 -31 -57 -54 -34 -33 33 -4 94 35
74 12 -7 19 -21 19 -40z"/>
<path d="M3502 2265 l1 -60 6 50 c5 45 8 50 31 50 23 0 25 -4 28 -47 2 -27 7
-48 13 -48 12 0 12 62 -1 94 -8 22 -15 26 -45 24 l-35 -3 2 -60z"/>
<path d="M3620 2270 c0 -33 4 -60 10 -60 6 0 10 27 10 60 0 33 -4 60 -10 60
-6 0 -10 -27 -10 -60z"/>
<path d="M3688 2319 c-27 -15 -25 -85 3 -100 24 -12 69 2 69 21 0 6 -11 4 -24
-5 -22 -14 -25 -14 -40 0 -9 9 -16 25 -16 35 0 10 7 26 16 35 15 14 18 14 40
0 25 -16 33 -8 12 13 -15 15 -37 15 -60 1z"/>
<path d="M3794 2304 c-32 -49 10 -109 60 -86 22 10 26 18 26 51 0 62 -55 84
-86 35z m60 0 c33 -33 4 -94 -35 -74 -33 18 -20 83 18 90 1 0 9 -7 17 -16z"/>
<path d="M3922 2318 c-21 -21 -13 -37 23 -52 19 -8 35 -19 35 -24 0 -18 -27
-21 -49 -6 -22 16 -29 6 -9 -14 16 -16 40 -15 62 1 24 17 10 47 -25 54 -16 3
-29 11 -29 18 0 18 25 26 39 12 6 -6 14 -7 18 -3 9 9 -16 26 -37 26 -9 0 -21
-5 -28 -12z"/>
</g>
</svg>
