<?xml version="1.0" standalone="no"?>
<!DOCTYPE svg PUBLIC "-//W3C//DTD SVG 20010904//EN"
 "http://www.w3.org/TR/2001/REC-SVG-20010904/DTD/svg10.dtd">
<svg version="1.0" xmlns="http://www.w3.org/2000/svg"
 width="1896.000000pt" height="884.000000pt" viewBox="0 0 1896.000000 884.000000"
 preserveAspectRatio="xMidYMid meet">

<g transform="translate(0.000000,884.000000) scale(0.100000,-0.100000)"
fill="#000000" stroke="none">
<path d="M2325 8195 c-21 -39 -45 -78 -53 -87 -13 -16 -13 -18 2 -24 22 -8 27
-3 71 76 28 49 34 69 27 84 -7 18 -14 11 -47 -49z"/>
<path d="M3793 8172 l-33 -3 0 -145 c0 -132 2 -146 21 -165 25 -25 72 -23 77
4 2 10 -3 24 -12 30 -13 10 -16 38 -18 147 l-3 135 -32 -3z"/>
<path d="M3030 7990 l0 -150 105 0 105 0 0 25 c0 24 -2 25 -70 25 l-70 0 0 40
0 40 60 0 c57 0 60 1 60 25 0 24 -3 25 -60 25 l-60 0 0 35 0 35 65 0 c63 0 65
1 65 25 l0 25 -100 0 -100 0 0 -150z"/>
<path d="M4160 8006 c0 -150 9 -167 81 -168 55 -1 69 6 62 32 -4 15 -14 20
-38 20 -39 0 -45 12 -45 81 l0 49 40 0 c36 0 40 3 40 25 0 23 -4 25 -40 25
-38 0 -40 2 -40 30 0 27 -3 30 -30 30 l-30 0 0 -124z"/>
<path d="M14700 8075 c0 -21 -5 -25 -30 -25 -33 0 -50 -22 -50 -67 0 -39 17
-53 62 -53 l38 0 0 85 c0 50 -4 85 -10 85 -5 0 -10 -11 -10 -25z m-5 -85 c0
-29 -4 -36 -22 -38 -17 -3 -24 3 -29 22 -7 30 11 58 35 54 11 -2 16 -14 16
-38z"/>
<path d="M16350 8076 c0 -19 -6 -25 -27 -28 -40 -4 -61 -45 -44 -87 12 -28 18
-31 57 -31 l44 0 0 85 c0 69 -3 85 -15 85 -9 0 -15 -9 -15 -24z m-2 -89 c3
-35 1 -38 -20 -35 -24 3 -35 34 -24 64 12 30 41 11 44 -29z"/>
<path d="M16817 8093 c-4 -3 -7 -42 -7 -85 0 -63 3 -78 15 -78 12 0 15 16 15
85 0 78 -5 96 -23 78z"/>
<path d="M14380 8070 c-27 -27 -28 -100 -1 -124 24 -22 80 -18 95 6 14 23 -2
37 -18 15 -20 -26 -55 -22 -67 10 -23 62 25 120 62 74 20 -25 29 -27 29 -7 0
43 -66 60 -100 26z"/>
<path d="M14990 8066 c0 -8 -6 -17 -12 -20 -10 -5 -10 -7 0 -12 7 -3 12 -24
12 -50 0 -31 5 -46 15 -51 9 -3 19 -2 23 2 4 4 1 10 -5 12 -8 3 -13 21 -13 43
0 21 6 41 13 44 10 5 10 7 0 12 -7 3 -13 12 -13 20 0 8 -4 14 -10 14 -5 0 -10
-6 -10 -14z"/>
<path d="M16036 8058 c-11 -13 -14 -23 -8 -27 6 -3 12 -27 14 -51 2 -38 7 -46
26 -48 12 -2 22 1 22 7 0 6 -4 11 -10 11 -14 0 -12 78 2 82 8 3 6 11 -8 26
l-20 21 -18 -21z"/>
<path d="M16990 8066 c0 -8 -6 -17 -12 -19 -10 -4 -10 -7 -1 -14 6 -5 13 -29
15 -53 2 -38 7 -46 26 -48 25 -4 30 13 7 22 -9 3 -15 18 -15 36 0 18 6 33 15
36 8 4 15 10 15 15 0 5 -7 9 -15 9 -8 0 -15 7 -15 15 0 8 -4 15 -10 15 -5 0
-10 -6 -10 -14z"/>
<path d="M3331 8056 c-34 -19 -50 -54 -51 -107 0 -79 63 -129 145 -113 29 5
36 10 33 28 -2 17 -11 22 -45 24 -30 2 -47 10 -58 25 -36 51 0 114 60 104 29
-5 34 -2 38 19 2 13 2 26 -1 29 -11 10 -98 4 -121 -9z"/>
<path d="M3525 8048 c-47 -41 -50 -135 -5 -183 47 -50 143 -37 175 26 26 49
15 116 -24 151 -41 37 -107 39 -146 6z m96 -38 c14 -8 19 -21 19 -53 0 -48
-13 -67 -47 -67 -41 0 -59 76 -26 112 19 21 27 22 54 8z"/>
<path d="M3929 8042 c-25 -23 -32 -38 -36 -78 -8 -92 55 -144 157 -128 37 6
41 9 38 33 -3 24 -6 25 -51 22 -45 -2 -77 10 -77 30 0 5 31 9 69 9 39 0 72 3
74 8 2 4 2 24 0 44 -11 85 -108 119 -174 60z m99 -34 c21 -21 13 -28 -28 -28
-22 0 -40 4 -40 8 0 14 23 32 40 32 9 0 21 -5 28 -12z"/>
<path d="M4356 8061 c-4 -5 -3 -17 1 -28 6 -14 19 -18 53 -18 35 0 45 -4 48
-17 3 -15 -4 -18 -36 -18 -50 0 -92 -31 -92 -69 0 -58 48 -81 145 -71 l50 5 0
94 c0 85 -2 95 -24 112 -17 14 -39 19 -82 19 -32 0 -60 -4 -63 -9z m109 -151
c0 -19 -6 -26 -26 -28 -34 -4 -57 22 -39 44 8 8 25 14 39 12 20 -2 26 -9 26
-28z"/>
<path d="M14514 8033 c-12 -12 -13 -18 -4 -21 6 -2 17 1 23 7 16 16 37 14 37
-3 0 -8 -12 -16 -26 -18 -66 -8 -51 -68 17 -68 l39 0 0 48 c0 26 -5 53 -12 60
-17 17 -54 15 -74 -5z m56 -68 c0 -8 -9 -15 -20 -15 -11 0 -20 7 -20 15 0 8 9
15 20 15 11 0 20 -7 20 -15z"/>
<path d="M14760 8035 c-17 -20 -5 -32 15 -15 8 7 22 9 32 6 21 -8 6 -23 -27
-28 -20 -2 -25 -9 -25 -33 0 -28 3 -30 43 -33 l42 -3 0 48 c0 27 -5 54 -12 61
-17 17 -53 15 -68 -3z m58 -67 c-7 -20 -48 -23 -48 -4 0 11 9 16 26 16 16 0
24 -5 22 -12z"/>
<path d="M14883 8043 c-7 -2 -13 -15 -13 -28 0 -17 8 -26 30 -34 34 -11 40
-31 10 -31 -11 0 -20 5 -20 10 0 6 -7 10 -15 10 -13 0 -14 -4 -5 -21 17 -30
84 -24 88 9 3 18 -4 26 -33 38 -20 8 -33 19 -30 24 8 13 35 13 35 0 0 -5 7
-10 15 -10 18 0 19 12 3 28 -12 12 -43 15 -65 5z"/>
<path d="M15050 7990 c0 -47 3 -60 15 -60 11 0 15 12 15 45 0 31 5 47 15 51
25 10 17 24 -15 24 l-30 0 0 -60z"/>
<path d="M15136 8028 c-35 -49 -11 -102 44 -96 44 4 52 27 9 25 -18 -1 -34 4
-36 11 -3 8 7 12 31 12 31 0 36 3 36 23 0 48 -56 65 -84 25z m62 -15 c2 -8 -6
-13 -22 -13 -25 0 -33 10 -19 24 10 10 36 3 41 -11z"/>
<path d="M15302 7993 l3 -58 43 -3 42 -3 0 60 c0 72 -18 82 -22 14 -3 -41 -6
-48 -25 -51 -21 -3 -23 0 -23 47 0 29 -5 51 -10 51 -7 0 -10 -22 -8 -57z"/>
<path d="M15420 7990 c0 -71 18 -81 22 -12 3 39 6 47 23 47 17 0 20 -8 23 -47
4 -57 22 -65 22 -9 0 39 20 68 40 56 5 -3 10 -26 10 -51 0 -32 4 -44 15 -44
11 0 15 11 15 41 0 69 -9 76 -95 77 l-75 1 0 -59z"/>
<path d="M15670 7965 c0 -50 4 -85 10 -85 6 0 10 11 10 25 0 21 5 25 30 25 32
0 50 22 50 63 0 32 -30 57 -68 57 l-32 0 0 -85z m65 25 c0 -28 -4 -35 -20 -35
-13 0 -21 8 -23 23 -5 34 5 54 25 50 13 -2 18 -13 18 -38z"/>
<path d="M15796 8028 c-9 -12 -16 -29 -16 -38 0 -29 30 -60 59 -60 36 0 51 17
51 56 0 60 -63 87 -94 42z m64 -13 c7 -9 10 -25 6 -41 -9 -33 -49 -31 -54 4
-7 48 21 69 48 37z"/>
<path d="M15910 7989 c0 -45 3 -59 14 -59 11 0 16 14 18 47 2 36 7 49 21 51
14 3 17 -4 17 -47 0 -39 4 -51 15 -51 11 0 15 12 15 49 0 57 -11 69 -62 69
l-38 0 0 -59z"/>
<path d="M16122 8038 c-37 -48 -13 -111 40 -106 43 4 49 27 7 25 -18 -1 -34 4
-36 11 -3 8 8 12 36 12 45 0 51 11 25 48 -17 24 -56 29 -72 10z m56 -25 c2 -8
-6 -13 -22 -13 -25 0 -33 10 -19 24 10 10 36 3 41 -11z"/>
<path d="M16417 8032 c-21 -23 -22 -75 -3 -91 18 -15 78 -10 83 6 3 8 -6 10
-31 6 -29 -4 -36 -2 -36 11 0 12 9 16 35 16 25 0 35 4 35 16 0 50 -51 72 -83
36z m51 -20 c2 -7 -6 -12 -17 -12 -21 0 -27 11 -14 24 9 9 26 2 31 -12z"/>
<path d="M16586 8035 c-19 -19 -21 -76 -4 -93 17 -17 63 -15 78 3 16 19 5 34
-12 17 -33 -33 -78 17 -48 53 16 20 30 19 46 -2 16 -22 32 -8 18 15 -15 23
-58 27 -78 7z"/>
<path d="M16696 8028 c-9 -12 -16 -29 -16 -38 0 -29 30 -60 59 -60 36 0 51 17
51 56 0 60 -63 87 -94 42z m64 -13 c7 -9 10 -25 6 -41 -9 -33 -49 -31 -54 4
-7 48 21 69 48 37z"/>
<path d="M16882 8038 c-37 -48 -13 -111 40 -106 43 4 49 27 7 25 -18 -1 -34 4
-36 11 -3 8 8 12 36 12 45 0 51 11 25 48 -17 24 -56 29 -72 10z m56 -25 c2 -8
-6 -13 -22 -13 -25 0 -33 10 -19 24 10 10 36 3 41 -11z"/>
<path d="M17064 8033 c-12 -12 -13 -18 -4 -21 6 -2 17 1 23 7 16 16 37 14 37
-3 0 -8 -12 -16 -26 -18 -66 -8 -51 -68 17 -68 l39 0 0 48 c0 26 -5 53 -12 60
-17 17 -54 15 -74 -5z m56 -68 c0 -8 -9 -15 -20 -15 -11 0 -20 7 -20 15 0 8 9
15 20 15 11 0 20 -7 20 -15z"/>
<path d="M2130 7818 c-22 -37 -24 -44 -11 -52 5 -4 21 14 34 39 20 34 22 45
11 45 -8 0 -23 -15 -34 -32z"/>
<path d="M2298 7774 c3 -64 6 -75 20 -72 14 3 18 17 20 76 3 69 2 72 -20 72
-22 0 -23 -2 -20 -76z"/>
<path d="M2560 7835 c0 -3 7 -17 17 -31 15 -23 15 -28 0 -60 -13 -27 -14 -34
-3 -34 18 0 46 33 46 54 0 25 -32 76 -47 76 -7 0 -13 -2 -13 -5z"/>
<path d="M11330 6157 c-29 -60 -53 -69 -191 -68 -140 1 -232 -15 -307 -53 -59
-30 -114 -91 -130 -143 -9 -30 -21 -43 -56 -62 -77 -40 -103 -123 -72 -236 16
-61 70 -173 103 -212 21 -25 24 -26 33 -11 15 25 48 40 70 33 26 -8 46 -48 54
-108 l8 -49 36 7 c20 4 38 8 38 8 1 1 -5 46 -13 99 l-14 97 33 58 c30 52 33
66 32 136 l0 77 35 -7 c60 -11 213 -8 271 6 112 27 201 104 239 205 28 75 27
78 -14 60 -19 -7 -36 -14 -37 -14 -2 0 -2 30 0 67 2 51 -3 78 -17 108 l-19 40
-1 -42 c-1 -56 -14 -61 -36 -12 -10 22 -21 42 -24 43 -3 2 -13 -10 -21 -27z"/>
<path d="M5005 5983 c-11 -2 -30 -6 -42 -9 l-23 -4 0 -275 0 -275 50 0 50 0 0
80 c0 44 4 80 8 80 12 0 65 -59 101 -112 l32 -48 60 0 60 0 -23 41 c-13 23
-48 72 -79 108 l-56 67 64 70 c95 104 95 104 25 104 l-59 0 -59 -70 c-32 -38
-62 -70 -66 -70 -4 0 -8 72 -8 160 0 88 -3 159 -7 159 -5 -1 -17 -3 -28 -6z"/>
<path d="M6635 5985 c-5 -2 -27 -6 -48 -10 l-38 -6 3 -245 3 -246 31 -27 c32
-29 101 -49 114 -34 4 4 10 25 13 46 4 27 2 37 -8 37 -7 0 -21 7 -29 16 -14
13 -16 50 -16 245 0 126 -3 229 -7 228 -5 0 -12 -2 -18 -4z"/>
<path d="M8475 5983 c-70 -14 -64 -6 -67 -96 -2 -67 -6 -81 -18 -77 -8 2 -41
4 -72 4 -42 0 -65 -5 -85 -20 -93 -69 -106 -243 -24 -326 47 -46 104 -62 191
-54 36 4 75 9 88 13 l22 5 0 279 c0 153 -3 278 -7 278 -5 -1 -17 -3 -28 -6z
m-82 -266 c15 -10 17 -27 15 -112 l-3 -100 -42 -3 c-34 -3 -48 2 -67 21 -44
44 -46 147 -5 188 22 22 76 25 102 6z"/>
<path d="M2191 5928 c-75 -21 -111 -66 -111 -138 0 -78 29 -110 135 -149 87
-32 105 -46 105 -81 0 -19 -7 -33 -19 -40 -27 -14 -119 -12 -164 4 -36 13 -39
13 -46 -7 -24 -65 -24 -67 11 -81 83 -35 212 -31 270 7 77 52 88 161 22 223
-18 18 -63 43 -99 55 -98 35 -125 67 -88 104 13 14 29 16 77 13 34 -3 69 -8
79 -13 13 -6 20 0 32 29 8 19 15 40 15 45 0 15 -96 41 -144 40 -23 0 -56 -5
-75 -11z"/>
<path d="M5840 5913 c-77 -12 -70 8 -70 -198 0 -266 18 -300 157 -300 84 0 98
9 89 58 -6 34 -6 34 -54 29 -73 -7 -82 8 -82 124 l0 94 65 0 65 0 0 45 0 45
-65 0 -65 0 0 55 c0 30 -3 54 -7 54 -5 -1 -19 -3 -33 -6z"/>
<path d="M2620 5804 c-76 -33 -110 -91 -110 -189 0 -78 16 -122 59 -158 54
-45 125 -57 221 -36 43 9 50 14 50 34 0 50 -7 55 -75 48 -77 -7 -120 8 -141
48 l-15 29 132 0 132 0 -6 60 c-4 33 -13 73 -21 88 -42 80 -140 113 -226 76z
m118 -90 c12 -8 22 -24 22 -35 0 -17 -7 -19 -70 -19 -77 0 -88 12 -50 50 24
24 67 26 98 4z"/>
<path d="M3623 5809 l-53 -11 0 -189 0 -189 55 0 55 0 0 155 0 155 39 0 c60 0
66 -13 69 -172 l4 -138 49 0 49 0 0 149 c0 160 0 161 55 161 45 0 55 -32 55
-177 l0 -133 56 0 56 0 -3 154 c-4 137 -6 158 -25 183 -45 61 -135 79 -210 41
-26 -13 -33 -13 -52 0 -28 18 -131 24 -199 11z"/>
<path d="M4270 5812 c-37 -7 -46 -25 -36 -66 5 -22 9 -23 75 -18 60 4 71 2 90
-17 11 -11 21 -30 21 -41 0 -17 -5 -19 -25 -14 -14 3 -51 3 -82 -1 -46 -6 -63
-13 -90 -40 -28 -28 -33 -40 -33 -78 0 -92 72 -134 210 -123 130 10 120 -3
120 155 0 149 -10 186 -61 224 -29 21 -127 31 -189 19z m150 -267 l0 -45 -47
0 c-27 0 -53 4 -59 8 -19 13 -23 39 -8 61 12 17 26 21 65 21 l49 0 0 -45z"/>
<path d="M4710 5814 c-14 -3 -40 -10 -57 -15 l-33 -11 0 -184 0 -184 55 0 55
0 0 156 0 157 64 -5 65 -6 6 40 c4 22 5 41 2 44 -7 7 -129 13 -157 8z"/>
<path d="M5442 5807 c-74 -23 -129 -123 -120 -218 13 -135 125 -202 282 -169
52 11 57 14 52 33 -3 12 -6 30 -6 39 0 15 -9 17 -78 11 -74 -5 -79 -4 -110 22
-58 48 -47 55 93 55 l125 0 0 53 c0 135 -109 216 -238 174z m104 -85 c11 -7
34 -45 34 -56 0 -3 -34 -6 -75 -6 -41 0 -75 4 -75 9 0 4 9 20 21 35 20 26 69
36 95 18z"/>
<path d="M6153 5809 l-53 -11 0 -259 0 -259 55 0 55 0 0 73 0 74 49 -10 c60
-13 131 10 159 51 75 106 46 279 -54 327 -45 21 -140 27 -211 14z m171 -110
c21 -25 26 -41 26 -88 0 -74 -25 -111 -75 -111 -64 0 -65 1 -65 121 l0 109 44
0 c37 0 48 -5 70 -31z"/>
<path d="M6855 5813 c-41 -6 -47 -15 -40 -55 l7 -36 64 6 c74 6 114 -13 114
-52 0 -22 -3 -23 -43 -19 -53 6 -119 -11 -153 -40 -38 -33 -44 -100 -12 -147
32 -47 88 -63 195 -56 45 3 88 9 97 12 14 5 16 28 16 145 0 161 -10 198 -61
225 -34 17 -130 26 -184 17z m145 -268 l0 -45 -48 0 c-53 0 -72 12 -72 47 0
29 25 42 78 43 l42 0 0 -45z"/>
<path d="M7315 5805 c-114 -40 -162 -208 -92 -315 43 -64 145 -95 236 -70 37
10 42 14 37 33 -3 12 -6 29 -6 38 0 14 -9 16 -64 12 -62 -5 -66 -4 -97 26 -30
30 -31 35 -27 93 4 52 9 65 33 86 25 21 36 24 82 20 59 -5 58 -6 67 39 7 30 5
32 -31 42 -50 14 -90 13 -138 -4z"/>
<path d="M7660 5804 c-77 -33 -114 -97 -113 -194 1 -153 110 -226 283 -189 51
11 57 18 44 64 -5 19 -13 21 -88 20 -89 0 -118 12 -129 56 -5 18 1 19 118 19
117 0 123 1 128 22 7 23 -7 109 -22 136 -37 69 -142 100 -221 66z m120 -94
c39 -39 27 -50 -54 -50 -70 0 -74 1 -69 20 13 48 87 66 123 30z"/>
<path d="M8720 5804 c-77 -33 -114 -97 -113 -194 1 -153 110 -226 283 -189 51
11 57 18 44 64 -5 19 -13 21 -88 20 -89 0 -118 12 -129 56 -5 18 1 19 118 19
117 0 123 1 128 22 7 23 -7 109 -22 136 -37 69 -142 100 -221 66z m120 -94
c39 -39 27 -50 -54 -50 -70 0 -74 1 -69 20 13 48 87 66 123 30z"/>
<path d="M2952 5668 c4 -160 17 -201 68 -231 42 -25 115 -31 198 -17 l72 12 0
189 0 189 -55 0 -55 0 0 -156 0 -155 -47 3 c-66 4 -73 21 -73 181 l0 127 -56
0 -56 0 4 -142z"/>
<path d="M16235 5592 c-59 -36 -117 -119 -150 -211 -12 -34 -12 -32 -11 42 1
67 -2 81 -18 93 -17 12 -23 12 -40 1 -31 -21 -47 -83 -53 -199 -3 -61 -10
-108 -16 -108 -5 0 -25 9 -43 21 -106 65 -256 93 -369 68 l-60 -13 48 -7 c116
-18 227 -111 294 -245 34 -70 38 -86 38 -155 0 -43 -2 -79 -5 -82 -3 -2 -22
-7 -43 -10 -38 -6 -38 -6 -62 49 -36 82 -132 173 -220 209 -63 26 -82 29 -189
29 l-120 1 -32 -42 c-18 -23 -42 -73 -55 -110 -21 -62 -23 -87 -23 -273 -1
-195 0 -207 23 -258 14 -31 43 -70 73 -97 107 -96 254 -112 381 -42 36 20 84
41 106 47 39 10 41 12 41 51 0 30 6 46 23 59 12 11 52 44 88 74 149 124 239
298 239 462 l0 62 38 -10 c20 -6 82 -12 137 -12 161 -2 235 39 188 103 -28 36
-85 54 -158 48 -33 -3 -69 -8 -80 -12 -11 -3 -9 0 5 6 203 92 246 121 234 154
-12 30 -93 15 -161 -30 l-58 -38 61 64 c116 122 164 222 134 278 -25 48 -130
66 -185 33z m-731 -1173 c-12 -20 -89 -49 -132 -49 -44 0 -93 16 -127 44 -18
14 -9 15 123 16 102 0 141 -3 136 -11z"/>
<path d="M11316 5564 c-32 -33 -34 -48 -3 -37 12 4 40 8 62 8 22 0 50 -4 63
-8 32 -12 29 16 -4 42 -37 29 -85 27 -118 -5z"/>
<path d="M11034 5556 c-29 -13 -69 -55 -60 -63 2 -2 27 3 55 13 33 11 71 15
106 12 30 -3 55 -1 55 4 0 15 -65 48 -95 48 -16 -1 -44 -7 -61 -14z"/>
<path d="M11439 5385 c-18 -38 -44 -43 -76 -13 -24 21 -25 21 -15 2 27 -52 84
-57 103 -7 14 38 5 53 -12 18z"/>
<path d="M11150 5337 c-19 -40 -52 -47 -74 -15 -12 16 -16 18 -16 7 0 -9 9
-24 20 -34 36 -33 97 4 88 55 -2 14 -6 11 -18 -13z"/>
<path d="M6654 5104 l-47 -55 24 -24 24 -23 60 54 60 55 -30 24 c-16 14 -33
25 -37 25 -3 0 -28 -25 -54 -56z"/>
<path d="M2975 5135 c-5 -2 -27 -6 -47 -10 l-38 -6 0 -217 c0 -234 7 -280 46
-311 22 -17 101 -39 108 -29 2 1 6 22 10 46 5 32 3 42 -7 42 -8 0 -21 8 -30
18 -15 16 -17 48 -17 245 0 125 -3 227 -7 226 -5 0 -12 -2 -18 -4z"/>
<path d="M4785 5135 c-5 -2 -27 -6 -47 -10 l-38 -6 0 -84 0 -85 -26 10 c-70
27 -164 -9 -198 -75 -16 -31 -21 -59 -21 -121 0 -70 3 -85 27 -121 47 -71 130
-95 257 -73 l71 12 0 279 c0 153 -3 279 -7 278 -5 0 -12 -2 -18 -4z m-101
-261 c13 -5 16 -25 16 -115 l0 -109 -44 0 c-37 0 -48 5 -70 31 -35 41 -37 132
-5 173 20 26 65 35 103 20z"/>
<path d="M7145 5133 c-70 -14 -64 -6 -67 -96 -2 -67 -6 -81 -18 -77 -8 2 -41
4 -72 4 -42 0 -65 -5 -85 -20 -93 -69 -106 -243 -24 -326 47 -46 104 -62 191
-54 36 4 75 9 88 13 l22 5 0 279 c0 153 -3 278 -7 278 -5 -1 -17 -3 -28 -6z
m-82 -266 c15 -10 17 -27 15 -112 l-3 -100 -42 -3 c-34 -3 -48 2 -67 21 -44
44 -46 147 -5 188 22 22 76 25 102 6z"/>
<path d="M3630 5063 c-77 -12 -70 8 -70 -198 0 -266 18 -300 157 -300 84 0 98
9 89 58 -6 34 -6 34 -54 29 -73 -7 -82 8 -82 124 l0 94 65 0 65 0 0 45 0 45
-65 0 -65 0 0 55 c0 30 -3 54 -7 54 -5 -1 -19 -3 -33 -6z"/>
<path d="M2208 4960 c-83 -25 -132 -99 -131 -200 0 -102 47 -167 136 -191 44
-12 145 -5 161 11 5 5 6 24 2 43 l-7 35 -59 -5 c-73 -7 -104 10 -121 66 -15
51 -4 107 28 138 22 23 30 25 82 20 l57 -5 11 39 10 39 -36 10 c-42 12 -95 12
-133 0z"/>
<path d="M2547 4956 c-80 -29 -117 -90 -117 -193 0 -52 6 -77 23 -108 72 -127
261 -124 327 6 39 75 19 212 -38 262 -26 24 -88 46 -127 46 -16 0 -47 -6 -68
-13z m127 -109 c28 -38 28 -126 0 -164 -26 -34 -77 -43 -105 -17 -43 39 -47
139 -7 190 28 35 82 31 112 -9z"/>
<path d="M3232 4957 c-74 -23 -129 -123 -120 -218 13 -135 125 -202 282 -169
52 11 57 14 52 33 -3 12 -6 30 -6 39 0 15 -9 17 -78 11 -74 -5 -79 -4 -110 22
-58 48 -47 55 93 55 l125 0 0 53 c0 135 -109 216 -238 174z m104 -85 c11 -7
34 -45 34 -56 0 -3 -34 -6 -75 -6 -41 0 -75 4 -75 9 0 4 9 20 21 35 20 26 69
36 95 18z"/>
<path d="M3937 4960 c-47 -9 -48 -9 -41 -52 l6 -35 69 5 c76 5 109 -10 109
-52 0 -19 -6 -21 -68 -21 -84 0 -130 -24 -151 -79 -13 -33 -13 -44 0 -79 22
-63 62 -82 174 -82 50 1 102 4 118 8 l27 7 0 149 c0 137 -2 151 -22 181 -36
52 -116 71 -221 50z m143 -265 l0 -45 -41 0 c-53 0 -79 15 -79 45 0 31 24 44
78 45 l42 0 0 -45z"/>
<path d="M5010 4954 c-76 -33 -110 -91 -110 -189 0 -78 16 -122 59 -158 54
-45 125 -57 221 -36 43 9 50 14 50 34 0 50 -7 55 -75 48 -77 -7 -120 8 -141
48 l-15 29 132 0 132 0 -6 60 c-4 33 -13 73 -21 88 -42 80 -140 113 -226 76z
m118 -90 c12 -8 22 -24 22 -35 0 -17 -7 -19 -70 -19 -77 0 -88 12 -50 50 24
24 67 26 98 4z"/>
<path d="M5585 4956 l-50 -11 -3 -188 -2 -187 50 0 49 0 3 153 3 152 62 0 c66
0 73 6 73 61 0 35 -84 44 -185 20z"/>
<path d="M5930 4954 c-76 -33 -110 -91 -110 -189 0 -78 16 -122 59 -158 54
-45 125 -57 221 -36 43 9 50 14 50 34 0 50 -7 55 -75 48 -77 -7 -120 8 -141
48 l-15 29 132 0 132 0 -6 60 c-4 33 -13 73 -21 88 -42 80 -140 113 -226 76z
m118 -90 c12 -8 22 -24 22 -35 0 -17 -7 -19 -70 -19 -77 0 -88 12 -50 50 24
24 67 26 98 4z"/>
<path d="M6323 4951 c-50 -23 -63 -45 -63 -104 0 -60 24 -87 105 -122 55 -23
66 -31 63 -49 -3 -18 -10 -21 -58 -21 -30 0 -67 3 -82 7 -25 8 -27 6 -33 -33
-9 -49 -2 -55 72 -65 85 -10 142 3 180 41 26 26 33 41 33 73 0 54 -30 88 -105
122 -71 32 -82 44 -64 67 11 12 26 14 75 10 l62 -6 5 36 c4 21 5 39 2 41 -7 8
-81 22 -115 22 -19 0 -54 -9 -77 -19z"/>
<path d="M7832 4956 c-80 -28 -129 -117 -120 -213 10 -102 68 -166 160 -179
146 -20 249 114 204 268 -31 108 -139 163 -244 124z m108 -86 c39 -21 52 -117
24 -176 -28 -58 -101 -59 -130 -2 -24 47 -15 145 15 169 25 21 62 24 91 9z"/>
<path d="M8240 4955 c-50 -23 -70 -52 -70 -106 0 -62 23 -89 105 -124 55 -23
66 -31 63 -49 -3 -18 -10 -21 -58 -21 -30 0 -67 3 -82 7 -25 8 -27 6 -33 -33
-9 -50 -2 -55 73 -65 133 -16 212 28 212 120 0 47 -33 84 -105 116 -71 32 -82
44 -64 67 11 12 26 14 75 10 l62 -6 7 36 c3 19 2 40 -3 45 -18 18 -145 20
-182 3z"/>
<path d="M6630 4765 l0 -195 50 0 50 0 0 195 0 195 -50 0 -50 0 0 -195z"/>
<path d="M7290 4813 c0 -129 3 -152 20 -180 39 -65 112 -85 238 -63 l72 12 0
189 0 189 -55 0 -55 0 0 -155 0 -155 -37 0 c-21 0 -43 4 -50 8 -24 15 -33 66
-33 183 l0 119 -50 0 -50 0 0 -147z"/>
<path d="M11283 4711 c-87 -81 -181 -100 -307 -61 -47 15 -78 32 -109 62 l-42
41 -67 -12 c-144 -24 -250 -74 -299 -141 -40 -54 -51 -164 -56 -560 -5 -337
10 -1034 23 -1102 4 -21 12 -27 42 -31 472 -63 828 -69 1146 -20 l108 18 -7
215 c-4 118 -9 217 -11 219 -4 4 -56 -9 -359 -93 -211 -59 -319 -78 -440 -79
-84 -1 -107 2 -141 20 -99 52 -200 212 -263 418 -34 110 -93 367 -86 374 3 2
91 25 197 51 l193 46 3 -28 c2 -15 5 -28 7 -28 1 0 16 13 33 28 27 25 56 34
254 75 424 89 612 119 676 107 42 -7 42 -7 42 24 0 63 -41 278 -61 321 -41 87
-134 149 -258 171 -136 24 -158 20 -218 -35z"/>
<path d="M13455 3996 c-129 -47 -140 -53 -143 -77 -4 -36 24 -100 46 -106 20
-5 47 -63 34 -74 -4 -4 -34 -16 -67 -28 -134 -49 -183 -112 -172 -220 6 -56
181 -550 212 -597 8 -13 34 -36 57 -52 34 -22 53 -27 102 -27 52 0 105 17 376
115 341 124 366 138 396 216 22 59 15 111 -36 248 -22 61 -40 111 -40 113 0 2
16 3 36 3 30 0 53 -15 156 -100 198 -163 385 -280 448 -280 62 0 162 92 262
241 83 125 83 124 59 205 l-20 69 -97 48 c-53 26 -97 47 -98 45 -2 -2 -36 -69
-76 -150 l-74 -147 -51 28 c-207 116 -421 215 -617 284 -10 3 -24 21 -31 39
-18 42 -55 81 -98 104 -52 27 -120 21 -233 -20 -54 -20 -100 -36 -101 -36 -2
0 -9 16 -15 35 -9 27 -9 39 0 50 15 18 -13 110 -36 119 -24 9 -29 8 -179 -48z
m568 -178 c12 -13 31 -49 41 -81 19 -57 19 -58 0 -72 -19 -14 -19 -14 1 -28
17 -13 18 -17 5 -32 -12 -15 -12 -19 2 -29 12 -9 14 -17 7 -29 -14 -24 -3 -37
31 -37 36 0 38 -4 96 -166 28 -80 42 -134 38 -149 -6 -24 -40 -62 -49 -54 -3
4 -181 491 -236 647 l-18 52 30 0 c18 0 39 -9 52 -22z m168 -136 c-19 -6 -41
6 -41 23 0 14 3 13 26 -2 15 -9 21 -19 15 -21z"/>
<path d="M10826 3945 c4 -33 7 -61 8 -62 1 -1 20 4 41 12 22 8 48 14 58 15 23
0 22 20 -2 20 -33 0 -83 27 -98 51 -12 22 -13 18 -7 -36z"/>
<path d="M2650 3926 l0 -44 -29 11 c-23 9 -34 7 -55 -6 -74 -49 -25 -190 55
-160 16 6 29 7 29 2 0 -5 7 -9 15 -9 13 0 15 21 15 125 0 104 -2 125 -15 125
-11 0 -15 -12 -15 -44z m-8 -70 c4 -6 8 -27 8 -46 0 -57 -31 -80 -69 -54 -29
21 -29 87 0 108 22 15 48 11 61 -8z"/>
<path d="M8360 3926 l0 -44 -29 11 c-57 21 -102 -39 -86 -113 10 -43 48 -67
86 -53 16 6 29 7 29 2 0 -5 7 -9 15 -9 13 0 15 21 15 125 0 104 -2 125 -15
125 -11 0 -15 -12 -15 -44z m-19 -56 c28 -16 27 -105 -2 -120 -16 -9 -26 -8
-45 5 -33 21 -34 87 -2 109 27 19 24 19 49 6z"/>
<path d="M9050 3845 c0 -104 2 -125 15 -125 13 0 15 21 15 125 0 104 -2 125
-15 125 -13 0 -15 -21 -15 -125z"/>
<path d="M2092 3846 c-47 -129 -47 -126 -28 -126 7 0 17 15 22 33 9 30 13 32
57 35 46 3 48 2 62 -32 9 -20 22 -36 30 -36 11 0 9 14 -11 68 -14 37 -35 91
-46 120 -11 28 -25 52 -32 52 -7 0 -31 -51 -54 -114z m77 17 l21 -53 -40 0
c-22 0 -40 3 -40 6 0 9 34 103 36 101 1 -1 12 -26 23 -54z"/>
<path d="M2280 3944 c0 -9 5 -14 12 -12 18 6 21 28 4 28 -9 0 -16 -7 -16 -16z"/>
<path d="M6110 3920 c0 -11 -7 -20 -15 -20 -8 0 -15 -4 -15 -10 0 -5 7 -10 15
-10 12 0 15 -13 15 -61 0 -69 12 -99 40 -99 23 0 27 18 5 26 -11 5 -15 22 -15
70 0 50 3 64 15 64 8 0 15 5 15 10 0 6 -7 10 -15 10 -8 0 -15 9 -15 20 0 11
-7 20 -15 20 -8 0 -15 -9 -15 -20z"/>
<path d="M7710 3920 c0 -11 -7 -20 -15 -20 -8 0 -15 -4 -15 -10 0 -5 7 -10 15
-10 11 0 15 -13 15 -52 0 -29 3 -63 6 -75 7 -25 41 -40 56 -25 7 7 3 12 -11
17 -18 6 -21 14 -21 71 0 50 3 64 15 64 8 0 15 5 15 10 0 6 -7 10 -15 10 -8 0
-15 9 -15 20 0 11 -7 20 -15 20 -8 0 -15 -9 -15 -20z"/>
<path d="M9320 3920 c0 -11 -7 -20 -15 -20 -8 0 -15 -4 -15 -10 0 -5 7 -10 15
-10 12 0 15 -14 15 -68 0 -40 5 -73 12 -80 17 -17 48 -15 48 3 0 8 -6 14 -12
13 -9 -2 -14 17 -16 65 -2 55 0 67 13 67 8 0 15 5 15 10 0 6 -7 10 -15 10 -8
0 -15 9 -15 20 0 11 -7 20 -15 20 -8 0 -15 -9 -15 -20z"/>
<path d="M2280 3791 c0 -103 -1 -110 -21 -116 -14 -5 -18 -10 -11 -17 15 -15
49 0 56 25 3 12 6 66 6 120 0 80 -3 97 -15 97 -12 0 -15 -19 -15 -109z"/>
<path d="M2360 3826 c0 -92 10 -105 80 -104 l50 1 0 89 c0 72 -3 88 -15 88
-12 0 -15 -14 -15 -70 0 -58 -3 -71 -19 -80 -25 -13 -27 -13 -45 6 -11 11 -16
35 -16 80 0 36 -4 64 -10 64 -6 0 -10 -31 -10 -74z"/>
<path d="M2738 3878 c-27 -27 -6 -39 23 -12 16 14 24 15 44 6 37 -17 32 -42
-8 -42 -65 0 -101 -56 -59 -93 21 -19 45 -21 73 -7 13 7 19 7 19 0 0 -5 6 -10
13 -10 21 0 11 151 -11 168 -25 19 -70 14 -94 -10z m92 -87 c0 -11 -9 -26 -21
-34 -28 -20 -59 -10 -59 18 0 26 11 33 53 34 20 1 27 -4 27 -18z"/>
<path d="M2900 3810 c0 -73 3 -90 15 -90 12 0 15 14 15 70 0 64 2 71 23 79 43
17 57 -3 57 -79 0 -56 3 -70 15 -70 12 0 15 14 15 70 0 59 3 71 20 80 14 8 26
8 40 0 17 -9 20 -21 20 -80 0 -58 3 -70 16 -70 25 0 16 146 -11 166 -25 18
-59 18 -75 -1 -12 -14 -15 -14 -30 0 -19 18 -43 19 -71 5 -13 -7 -19 -7 -19 0
0 5 -7 10 -15 10 -12 0 -15 -17 -15 -90z"/>
<path d="M3214 3877 c-21 -19 -27 -32 -27 -67 0 -35 6 -48 27 -67 56 -48 126
-11 126 67 0 78 -70 115 -126 67z m74 -13 c32 -22 31 -88 -2 -109 -45 -30 -85
12 -71 75 6 26 27 49 45 50 3 0 16 -7 28 -16z"/>
<path d="M3402 3884 c-43 -30 -19 -72 51 -88 32 -7 38 -41 8 -51 -21 -6 -51 3
-51 16 0 5 -7 9 -15 9 -22 0 -18 -17 7 -34 29 -20 58 -20 86 0 36 25 25 55
-30 82 -27 12 -48 29 -48 37 0 22 39 29 59 11 19 -18 41 -21 41 -7 0 15 -42
41 -65 41 -11 0 -31 -7 -43 -16z"/>
<path d="M3630 3775 c0 -104 2 -125 15 -125 11 0 15 12 15 44 l0 44 29 -11
c57 -21 102 39 86 113 -10 43 -48 67 -86 53 -16 -6 -29 -7 -29 -2 0 5 -7 9
-15 9 -13 0 -15 -21 -15 -125z m116 60 c14 -58 -24 -107 -66 -85 -16 9 -20 21
-20 61 0 42 3 51 23 58 29 11 55 -3 63 -34z"/>
<path d="M3840 3882 c-15 -12 -24 -33 -27 -64 -5 -40 -2 -50 20 -72 29 -29 72
-34 103 -12 26 20 10 32 -22 17 -22 -10 -31 -9 -50 4 -13 8 -24 24 -24 35 0
18 7 20 60 20 l60 0 -6 28 c-13 56 -71 79 -114 44z m74 -18 c26 -25 19 -34
-29 -34 -25 0 -45 4 -45 9 0 14 30 41 45 41 7 0 21 -7 29 -16z"/>
<path d="M4012 3884 c-43 -30 -19 -72 51 -88 32 -7 38 -41 8 -51 -21 -6 -51 3
-51 16 0 5 -7 9 -15 9 -22 0 -18 -17 7 -34 29 -20 58 -20 86 0 36 25 25 55
-30 82 -27 12 -48 29 -48 37 0 22 39 29 59 11 19 -18 41 -21 41 -7 0 15 -42
41 -65 41 -11 0 -31 -7 -43 -16z"/>
<path d="M4182 3884 c-43 -30 -19 -72 51 -88 32 -7 38 -41 8 -51 -21 -6 -51 3
-51 16 0 5 -7 9 -15 9 -22 0 -18 -17 7 -34 29 -20 58 -20 86 0 36 25 25 55
-30 82 -27 12 -48 29 -48 37 0 22 39 29 59 11 19 -18 41 -21 41 -7 0 15 -42
41 -65 41 -11 0 -31 -7 -43 -16z"/>
<path d="M4354 3877 c-21 -19 -27 -32 -27 -67 0 -35 6 -48 27 -67 56 -48 126
-11 126 67 0 78 -70 115 -126 67z m74 -13 c32 -22 31 -88 -2 -109 -45 -30 -85
12 -71 75 6 26 27 49 45 50 3 0 16 -7 28 -16z"/>
<path d="M4542 3884 c-12 -8 -22 -19 -22 -25 0 -14 22 -11 41 7 22 20 59 10
59 -17 0 -14 -7 -19 -28 -19 -38 0 -72 -26 -72 -55 0 -46 46 -68 91 -45 13 7
19 7 19 0 0 -5 6 -10 13 -10 18 0 10 140 -10 163 -20 21 -61 22 -91 1z m78
-99 c0 -27 -24 -45 -51 -38 -43 12 -21 63 27 63 19 0 24 -5 24 -25z"/>
<path d="M4722 3884 c-43 -30 -19 -72 51 -88 32 -7 38 -41 8 -51 -21 -6 -51 3
-51 16 0 5 -7 9 -15 9 -22 0 -18 -17 7 -34 29 -20 58 -20 86 0 36 25 25 55
-30 82 -27 12 -48 29 -48 37 0 22 39 29 59 11 19 -18 41 -21 41 -7 0 15 -42
41 -65 41 -11 0 -31 -7 -43 -16z"/>
<path d="M4972 3884 c-12 -8 -22 -19 -22 -25 0 -14 22 -11 41 7 22 20 59 10
59 -17 0 -14 -7 -19 -28 -19 -38 0 -72 -26 -72 -55 0 -46 46 -68 91 -45 13 7
19 7 19 0 0 -5 6 -10 13 -10 18 0 10 140 -10 163 -20 21 -61 22 -91 1z m78
-99 c0 -27 -24 -45 -51 -38 -43 12 -21 63 27 63 19 0 24 -5 24 -25z"/>
<path d="M5235 3875 c-36 -35 -35 -105 1 -134 33 -26 65 -27 95 -1 27 22 13
26 -27 8 -24 -11 -29 -10 -50 16 -14 15 -22 32 -19 37 4 5 31 9 61 9 51 0 54
1 54 25 0 32 -33 65 -65 65 -14 0 -37 -11 -50 -25z m66 -5 c34 -19 23 -40 -21
-40 -43 0 -55 20 -22 39 21 13 20 13 43 1z"/>
<path d="M5407 3882 c-33 -37 -11 -71 56 -86 18 -4 27 -13 27 -26 0 -27 -36
-35 -66 -15 -35 23 -53 14 -26 -13 26 -26 68 -28 100 -6 43 30 19 72 -50 89
-18 5 -28 14 -28 25 0 26 29 33 57 15 34 -23 52 -14 25 13 -27 27 -73 29 -95
4z"/>
<path d="M5579 3881 c-20 -16 -24 -29 -24 -71 0 -42 4 -55 24 -71 13 -10 34
-19 48 -19 26 0 85 51 66 57 -7 3 -21 -5 -32 -16 -12 -12 -27 -21 -34 -21 -46
0 -65 96 -25 124 29 21 34 20 59 -5 11 -11 25 -19 32 -16 19 6 -40 57 -66 57
-14 0 -35 -9 -48 -19z"/>
<path d="M5754 3877 c-21 -19 -27 -32 -27 -67 0 -35 6 -48 27 -67 56 -48 126
-11 126 67 0 78 -70 115 -126 67z m74 -13 c32 -22 31 -88 -2 -109 -45 -30 -85
12 -71 75 6 26 27 49 45 50 3 0 16 -7 28 -16z"/>
<path d="M5920 3810 c0 -73 3 -90 15 -90 12 0 15 14 15 70 0 58 3 71 19 80 25
13 27 13 45 -6 11 -11 16 -35 16 -80 0 -36 4 -64 10 -64 6 0 10 33 10 80 0 76
-1 81 -25 92 -19 8 -31 8 -50 0 -15 -7 -25 -8 -25 -2 0 6 -7 10 -15 10 -12 0
-15 -17 -15 -90z"/>
<path d="M6210 3810 c0 -72 3 -90 15 -90 11 0 15 17 17 73 3 66 5 72 26 75 12
2 22 10 22 18 0 17 -22 18 -38 2 -9 -9 -12 -9 -12 0 0 7 -7 12 -15 12 -12 0
-15 -17 -15 -90z"/>
<path d="M6328 3878 c-27 -27 -6 -39 23 -12 16 14 24 15 44 6 37 -17 32 -42
-8 -42 -65 0 -101 -56 -59 -93 21 -19 45 -21 73 -7 13 7 19 7 19 0 0 -5 6 -10
13 -10 21 0 11 151 -11 168 -25 19 -70 14 -94 -10z m92 -87 c0 -11 -9 -26 -21
-34 -28 -20 -59 -10 -59 18 0 26 11 33 53 34 20 1 27 -4 27 -18z"/>
<path d="M6490 3810 c0 -73 3 -90 15 -90 12 0 15 14 15 63 0 65 11 87 42 87
10 0 18 7 18 15 0 18 -14 19 -41 5 -13 -7 -19 -7 -19 0 0 5 -7 10 -15 10 -12
0 -15 -17 -15 -90z"/>
<path d="M6624 3877 c-39 -34 -40 -100 -1 -133 34 -29 67 -31 98 -3 l24 21
-22 -6 c-13 -3 -31 -8 -40 -11 -22 -7 -49 13 -58 43 -6 21 -4 22 54 22 53 0
61 2 61 19 0 29 -39 71 -65 71 -13 0 -36 -10 -51 -23z m67 -7 c36 -20 23 -40
-26 -40 -42 0 -45 2 -35 19 8 16 21 26 38 30 2 1 12 -4 23 -9z"/>
<path d="M6780 3810 c0 -53 4 -90 10 -90 6 0 10 28 10 65 0 57 3 66 24 80 43
28 56 12 56 -71 0 -59 3 -74 15 -74 12 0 15 14 15 64 0 55 3 67 22 80 15 11
26 12 40 5 15 -8 18 -22 18 -79 0 -56 3 -70 15 -70 24 0 21 141 -3 163 -21 19
-45 21 -72 7 -13 -7 -27 -6 -45 2 -20 9 -34 9 -56 1 -16 -6 -29 -7 -29 -2 0 5
-4 9 -10 9 -6 0 -10 -37 -10 -90z"/>
<path d="M7150 3775 c0 -104 2 -125 15 -125 11 0 15 11 15 39 0 40 0 40 34 34
50 -8 76 22 76 87 0 37 -5 55 -20 70 -23 23 -60 26 -79 8 -11 -10 -14 -10 -18
0 -3 6 -9 12 -14 12 -5 0 -9 -56 -9 -125z m90 95 c10 -5 21 -21 24 -35 15 -58
-23 -107 -64 -85 -27 15 -29 104 -2 119 21 13 20 13 42 1z"/>
<path d="M7355 3875 c-52 -51 -18 -155 50 -155 14 0 37 11 50 25 52 51 18 155
-50 155 -14 0 -37 -11 -50 -25z m77 -12 c35 -31 16 -123 -25 -123 -51 1 -71
84 -31 124 20 20 33 20 56 -1z"/>
<path d="M7520 3810 c0 -73 3 -90 15 -90 12 0 15 14 15 63 0 34 4 67 8 73 11
17 35 22 55 12 14 -7 17 -22 17 -78 0 -56 3 -70 15 -70 12 0 15 14 15 68 0 97
-32 133 -91 102 -13 -7 -19 -7 -19 0 0 5 -7 10 -15 10 -12 0 -15 -17 -15 -90z"/>
<path d="M7830 3880 c-55 -55 -24 -160 48 -160 33 0 69 30 78 65 20 82 -71
150 -126 95z m80 -20 c11 -11 20 -33 20 -50 0 -27 -29 -70 -48 -70 -4 0 -18 7
-30 16 -16 11 -22 25 -22 54 0 29 6 43 22 54 29 20 34 20 58 -4z"/>
<path d="M8016 3884 c-28 -27 -20 -60 17 -74 69 -25 82 -41 47 -60 -17 -9 -26
-8 -46 5 -35 23 -53 14 -26 -13 28 -28 75 -29 102 -2 11 11 20 24 20 28 0 19
-28 42 -64 54 -46 15 -56 32 -26 48 17 9 26 8 45 -4 30 -20 35 -20 35 -1 0 33
-76 47 -104 19z"/>
<path d="M8455 3875 c-36 -35 -35 -105 1 -134 33 -26 65 -27 95 -1 27 22 13
26 -27 8 -24 -11 -29 -10 -50 16 -14 15 -22 32 -19 37 4 5 31 9 61 9 51 0 54
1 54 25 0 32 -33 65 -65 65 -14 0 -37 -11 -50 -25z m66 -5 c34 -19 23 -40 -21
-40 -43 0 -55 20 -22 39 21 13 20 13 43 1z"/>
<path d="M8714 3877 c-21 -19 -27 -32 -27 -67 0 -35 6 -48 27 -67 15 -13 37
-23 50 -23 23 0 66 33 66 50 0 16 -19 11 -40 -10 -11 -11 -24 -20 -30 -20 -21
0 -50 41 -50 70 0 29 29 70 50 70 6 0 19 -9 30 -20 22 -22 40 -26 40 -10 0 19
-40 50 -64 50 -14 0 -37 -10 -52 -23z"/>
<path d="M8885 3875 c-52 -51 -18 -155 50 -155 14 0 37 11 50 25 52 51 18 155
-50 155 -14 0 -37 -11 -50 -25z m77 -12 c35 -31 16 -123 -25 -123 -51 1 -71
84 -31 124 20 20 33 20 56 -1z"/>
<path d="M9154 3877 c-39 -34 -40 -100 -1 -133 34 -29 67 -31 98 -3 l24 21
-22 -6 c-13 -3 -31 -8 -40 -11 -22 -7 -49 13 -58 43 -6 21 -4 22 54 22 53 0
61 2 61 19 0 29 -39 71 -65 71 -13 0 -36 -10 -51 -23z m67 -7 c36 -20 23 -40
-26 -40 -42 0 -45 2 -35 19 8 16 21 26 38 30 2 1 12 -4 23 -9z"/>
<path d="M9428 3878 c-27 -27 -6 -39 23 -12 16 14 24 15 44 6 37 -17 32 -42
-8 -42 -65 0 -101 -56 -59 -93 21 -19 45 -21 73 -7 13 7 19 7 19 0 0 -5 6 -10
13 -10 21 0 11 151 -11 168 -25 19 -70 14 -94 -10z m92 -87 c0 -11 -9 -26 -21
-34 -28 -20 -59 -10 -59 18 0 26 11 33 53 34 20 1 27 -4 27 -18z"/>
<path d="M16074 3482 l-191 -15 -7 -101 c-9 -132 -35 -379 -41 -384 -7 -8
-198 18 -258 35 -32 9 -59 14 -61 12 -2 -2 -26 -44 -53 -94 -71 -132 -165
-340 -227 -505 l-55 -144 32 -11 c48 -15 57 -44 57 -187 0 -158 -3 -162 -113
-172 l-75 -7 -7 -244 -7 -243 41 -83 c59 -117 139 -224 264 -355 l109 -113
-71 -398 c-38 -219 -71 -409 -73 -422 -5 -44 50 -52 351 -49 l264 3 44 130
c23 72 45 136 48 144 4 10 52 -32 153 -132 l147 -147 77 0 c75 0 78 1 92 29
13 25 13 31 -1 51 -9 13 -33 58 -53 99 -20 42 -89 172 -153 289 -65 117 -117
218 -117 226 0 7 36 123 79 257 221 681 321 1075 321 1267 0 258 -99 526 -275
745 -26 32 -36 37 -71 37 l-42 0 10 43 c9 39 62 335 75 420 4 28 2 37 -8 36
-8 -1 -100 -9 -205 -17z"/>
<path d="M2170 3405 c0 -41 -2 -44 -18 -34 -25 16 -69 4 -83 -22 -16 -30 -15
-83 1 -114 16 -30 55 -43 82 -26 11 7 18 7 18 1 0 -5 7 -10 15 -10 13 0 15 21
15 125 0 104 -2 125 -15 125 -11 0 -15 -12 -15 -45z m-19 -55 c28 -16 28 -105
-1 -120 -25 -13 -56 1 -65 30 -9 29 4 78 23 90 21 12 20 12 43 0z"/>
<path d="M2536 3434 c-9 -8 -16 -24 -16 -35 0 -10 -7 -19 -15 -19 -8 0 -15 -4
-15 -10 0 -5 7 -10 15 -10 12 0 15 -16 15 -80 0 -64 3 -80 15 -80 12 0 15 16
15 80 0 64 3 80 15 80 8 0 15 5 15 10 0 6 -7 10 -15 10 -22 0 -18 38 5 45 11
3 20 11 20 16 0 15 -37 10 -54 -7z"/>
<path d="M3670 3430 c-11 -11 -20 -26 -20 -34 0 -8 -6 -17 -12 -20 -10 -5 -10
-7 0 -12 8 -4 12 -31 12 -85 0 -64 3 -79 15 -79 12 0 15 16 15 80 0 73 2 80
20 80 11 0 20 5 20 10 0 6 -9 10 -21 10 -14 0 -19 5 -17 18 2 12 14 18 41 20
38 3 49 15 21 26 -29 11 -54 6 -74 -14z"/>
<path d="M4000 3425 c0 -8 7 -15 15 -15 8 0 15 7 15 15 0 8 -7 15 -15 15 -8 0
-15 -7 -15 -15z"/>
<path d="M4450 3400 c0 -11 -7 -20 -15 -20 -8 0 -15 -4 -15 -10 0 -5 7 -10 15
-10 12 0 15 -14 15 -68 0 -40 5 -73 12 -80 17 -17 48 -15 48 3 0 8 -6 14 -12
13 -9 -2 -14 17 -16 65 -2 55 0 67 13 67 8 0 15 5 15 10 0 6 -7 10 -15 10 -8
0 -15 9 -15 20 0 11 -7 20 -15 20 -8 0 -15 -9 -15 -20z"/>
<path d="M2270 3362 c-15 -12 -24 -33 -27 -64 -5 -40 -2 -50 20 -72 29 -29 72
-34 103 -12 26 20 10 32 -22 17 -22 -10 -31 -9 -50 4 -13 8 -24 24 -24 35 0
18 7 20 60 20 l60 0 -6 28 c-13 56 -71 79 -114 44z m74 -18 c26 -25 19 -34
-29 -34 -25 0 -45 4 -45 9 0 14 30 41 45 41 7 0 21 -7 29 -16z"/>
<path d="M2640 3360 c-38 -38 -38 -102 0 -140 55 -55 146 13 126 95 -15 59
-86 85 -126 45z m80 -20 c11 -11 20 -33 20 -50 0 -27 -29 -70 -48 -70 -4 0
-18 7 -30 16 -16 11 -22 25 -22 54 0 29 6 43 22 54 29 20 34 20 58 -4z"/>
<path d="M2810 3290 c0 -72 3 -90 15 -90 11 0 15 17 17 73 3 66 5 72 26 75 12
2 22 10 22 18 0 17 -14 18 -41 4 -13 -7 -19 -7 -19 0 0 5 -4 10 -10 10 -6 0
-10 -37 -10 -90z"/>
<path d="M2920 3290 c0 -73 3 -90 15 -90 12 0 15 14 15 70 0 58 3 71 19 80 25
13 27 13 45 -6 11 -11 16 -35 16 -80 0 -36 4 -64 10 -64 6 0 10 24 10 54 0 64
6 83 30 96 38 21 50 3 50 -76 0 -59 3 -74 15 -74 22 0 21 142 -1 164 -18 18
-47 21 -73 6 -12 -6 -29 -5 -50 3 -25 9 -36 9 -51 -1 -12 -7 -20 -8 -20 -2 0
5 -7 10 -15 10 -12 0 -15 -17 -15 -90z"/>
<path d="M3232 3364 c-25 -17 -29 -34 -7 -34 8 0 15 4 15 9 0 13 30 22 51 16
11 -4 19 -15 19 -26 0 -15 -7 -19 -30 -19 -30 0 -80 -37 -80 -60 0 -16 38 -50
56 -50 8 0 24 5 34 10 13 7 21 7 25 0 16 -26 25 -3 25 64 0 66 -3 77 -22 90
-12 9 -32 16 -43 16 -11 0 -31 -7 -43 -16z m78 -99 c0 -30 -35 -48 -62 -33
-36 18 -13 58 34 58 23 0 28 -4 28 -25z"/>
<path d="M3499 3370 c-44 -26 -48 -125 -6 -155 27 -19 67 -19 93 -1 24 18 13
31 -14 17 -29 -15 -39 -14 -62 9 -37 37 -26 50 41 50 l61 0 -6 28 c-12 50 -65
76 -107 52z m65 -26 c26 -25 19 -34 -29 -34 -50 0 -57 11 -23 34 28 20 33 20
52 0z"/>
<path d="M3750 3290 c0 -73 3 -90 15 -90 12 0 15 17 15 90 0 73 -3 90 -15 90
-12 0 -15 -17 -15 -90z"/>
<path d="M3845 3355 c-51 -50 -18 -155 47 -155 29 0 68 26 68 46 0 20 -13 18
-33 -6 -9 -11 -23 -20 -31 -20 -45 0 -64 91 -27 124 22 20 56 15 65 -9 7 -19
26 -19 26 -1 0 20 -39 46 -68 46 -12 0 -34 -11 -47 -25z"/>
<path d="M4000 3290 c0 -73 3 -90 15 -90 12 0 15 17 15 90 0 73 -3 90 -15 90
-12 0 -15 -17 -15 -90z"/>
<path d="M4109 3370 c-44 -26 -48 -125 -6 -155 27 -19 67 -19 93 -1 24 18 13
31 -14 17 -29 -15 -39 -14 -62 9 -37 37 -26 50 41 50 l61 0 -6 28 c-12 50 -65
76 -107 52z m65 -26 c26 -25 19 -34 -29 -34 -50 0 -57 11 -23 34 28 20 33 20
52 0z"/>
<path d="M4250 3290 c0 -73 3 -90 15 -90 12 0 15 14 15 64 0 55 3 67 22 80 15
11 26 12 40 5 15 -8 18 -22 18 -79 0 -56 3 -70 15 -70 24 0 21 141 -3 163 -21
19 -45 21 -73 7 -13 -7 -19 -7 -19 0 0 5 -7 10 -15 10 -12 0 -15 -17 -15 -90z"/>
<path d="M4565 3355 c-36 -35 -35 -105 1 -134 33 -26 65 -27 95 -1 27 22 13
26 -27 8 -24 -11 -29 -10 -50 16 -14 15 -22 32 -19 37 4 5 31 9 61 9 51 0 54
1 54 25 0 32 -33 65 -65 65 -14 0 -37 -11 -50 -25z m66 -5 c34 -19 23 -40 -21
-40 -43 0 -55 20 -22 39 21 13 20 13 43 1z"/>
<path d="M4722 3218 c6 -18 28 -21 28 -4 0 9 -7 16 -16 16 -9 0 -14 -5 -12
-12z"/>
<path d="M11830 2270 c-355 -4 -689 -8 -743 -9 -90 -1 -100 -3 -122 -26 -24
-23 -25 -31 -25 -132 1 -123 11 -182 36 -200 11 -8 47 -13 89 -13 l71 0 13
-192 c10 -159 81 -1636 81 -1684 0 -12 102 -14 734 -14 l734 0 6 162 c3 90 13
467 21 838 8 371 18 728 21 793 l6 117 42 0 c56 1 117 16 127 32 5 7 9 76 9
154 0 105 -4 145 -14 160 -13 18 -29 19 -228 20 -117 0 -503 -2 -858 -6z m244
-751 c14 -11 33 -34 41 -50 11 -19 20 -26 31 -22 18 7 15 -9 -18 -86 -15 -37
-22 -42 -41 -37 -12 3 -47 6 -77 6 -49 1 -53 2 -37 15 18 13 18 15 -9 62 -15
26 -41 67 -56 91 l-29 42 84 0 c70 0 89 -3 111 -21z m-179 -21 c50 -60 51 -69
10 -142 -20 -36 -38 -66 -41 -66 -8 0 -134 72 -134 78 0 9 50 94 77 130 30 41
54 41 88 0z m334 -227 c63 -107 55 -133 -45 -146 l-50 -7 -36 59 c-20 32 -38
64 -40 71 -2 10 104 89 123 91 4 1 25 -30 48 -68z m-403 -46 c21 -38 30 -64
21 -56 -9 7 -23 11 -30 8 -16 -6 -87 -138 -87 -161 0 -30 -15 -16 -57 55 -48
78 -51 99 -24 151 12 25 15 40 8 47 -12 12 -2 17 68 29 28 5 53 6 56 3 4 -3
24 -37 45 -76z m292 -115 c37 0 84 4 105 9 20 5 37 7 37 4 0 -16 -86 -155
-100 -163 -10 -6 -35 -10 -55 -10 -28 0 -38 -5 -42 -20 -4 -16 -12 -12 -49 32
-24 29 -44 55 -44 59 0 4 17 37 38 73 32 56 37 62 40 41 3 -24 6 -25 70 -25z
m-178 -27 c0 -16 3 -52 6 -80 l7 -53 -87 0 c-48 0 -96 5 -107 10 -25 14 -24
49 3 105 l22 45 78 0 78 0 0 -27z"/>
</g>
</svg>
