<?xml version="1.0" standalone="no"?>
<!DOCTYPE svg PUBLIC "-//W3C//DTD SVG 20010904//EN"
 "http://www.w3.org/TR/2001/REC-SVG-20010904/DTD/svg10.dtd">
<svg version="1.0" xmlns="http://www.w3.org/2000/svg"
 width="1913.000000pt" height="879.000000pt" viewBox="0 0 1913.000000 879.000000"
 preserveAspectRatio="xMidYMid meet">

<g transform="translate(0.000000,879.000000) scale(0.100000,-0.100000)"
fill="#000000" stroke="none">
<path d="M0 4395 l0 -4395 9565 0 9565 0 0 4395 0 4395 -9565 0 -9565 0 0
-4395z m8760 965 l0 -190 -26 -10 c-38 -15 -131 -12 -163 4 -118 61 -76 266
55 266 l44 0 0 54 c0 58 3 61 68 65 l22 1 0 -190z m1160 31 c0 -151 1 -161 21
-174 13 -10 19 -23 17 -39 -5 -35 -59 -38 -93 -4 -25 25 -25 27 -25 195 0 184
-2 177 58 180 22 1 22 1 22 -158z m-444 119 c23 -9 26 -14 20 -42 -3 -17 -8
-33 -10 -35 -2 -3 -22 1 -44 8 -97 29 -161 -44 -132 -151 15 -57 59 -78 127
-62 53 12 59 9 68 -29 6 -24 3 -28 -30 -39 -53 -18 -158 -9 -192 16 -43 32
-67 89 -67 158 1 85 38 149 104 175 33 13 122 14 156 1z m-2522 -14 c44 -18
66 -52 66 -101 0 -71 -53 -115 -140 -115 l-40 0 0 -60 0 -60 -45 0 -45 0 0
168 c0 93 3 172 7 175 12 13 163 7 197 -7z m776 -36 l0 -40 45 0 c43 0 45 -1
45 -30 0 -29 -2 -30 -45 -30 l-45 0 0 -69 c0 -77 11 -89 65 -75 25 6 26 5 23
-27 -3 -34 -4 -34 -56 -37 -102 -6 -122 31 -122 220 0 113 1 117 23 121 62 12
67 10 67 -33z m2630 0 l0 -40 45 0 c43 0 45 -1 45 -30 0 -29 -2 -30 -46 -30
l-46 0 4 -66 c4 -72 15 -86 63 -82 25 3 31 -1 33 -21 5 -31 -12 -41 -70 -41
-35 0 -54 6 -75 24 -28 24 -28 24 -31 169 -4 158 -6 153 56 156 19 1 22 -4 22
-39z m-3112 -50 c75 -46 82 -173 13 -234 -29 -26 -109 -33 -149 -12 -85 44
-90 193 -9 245 41 27 103 27 145 1z m293 10 c36 -20 49 -63 49 -165 l0 -95
-40 0 -40 0 0 89 c0 95 -11 121 -51 121 -18 0 -19 -8 -19 -105 l0 -105 -40 0
-40 0 0 129 c0 115 2 130 18 134 34 9 144 7 163 -3z m530 -28 c50 -56 50 -148
0 -204 -52 -58 -170 -47 -205 20 -25 49 -29 95 -10 141 24 60 63 83 133 78 46
-3 59 -9 82 -35z m256 30 c6 -4 9 -19 6 -34 -5 -26 -8 -27 -51 -25 -63 3 -64
-17 -3 -47 73 -37 92 -88 52 -137 -17 -22 -27 -24 -99 -24 -44 0 -83 3 -86 6
-3 3 -3 20 0 37 6 29 9 31 33 25 78 -21 121 5 54 33 -21 9 -48 25 -60 37 -38
35 -26 108 20 127 27 11 118 12 134 2z m674 -8 c34 -17 59 -66 59 -114 l0 -30
-85 0 c-90 0 -99 -6 -64 -41 16 -16 30 -20 72 -17 50 3 52 2 55 -23 4 -31 -15
-39 -94 -39 -117 0 -176 109 -119 221 29 55 113 76 176 43z m750 -23 c36 -36
39 -43 39 -96 0 -95 -46 -145 -134 -145 -39 0 -52 6 -84 34 -36 34 -37 36 -37
106 0 70 1 72 37 106 33 29 45 34 89 34 46 0 55 -4 90 -39z m428 24 c30 -15
61 -76 61 -120 0 -25 -1 -25 -85 -25 -68 0 -85 -3 -85 -15 0 -28 46 -48 95
-41 42 7 45 6 51 -19 3 -14 3 -29 0 -33 -4 -3 -37 -8 -74 -10 -54 -2 -73 1
-100 18 -83 51 -78 199 7 245 34 19 95 19 130 0z m502 -14 c28 -29 29 -32 29
-135 l0 -105 -35 -7 c-20 -3 -63 -4 -97 -2 -71 5 -98 28 -98 83 0 53 27 77 93
83 58 5 71 18 42 42 -10 8 -30 10 -59 6 -41 -7 -44 -5 -50 20 -9 36 5 44 82
44 57 0 67 -3 93 -29z m1661 -28 l38 -37 38 37 c36 35 62 47 62 29 0 -4 -18
-26 -40 -47 l-40 -39 41 -42 c56 -57 33 -71 -25 -15 l-42 41 -39 -40 c-26 -27
-42 -37 -49 -30 -7 7 3 23 29 50 l39 40 -37 38 c-20 21 -37 41 -37 45 0 17 27
4 62 -30z m-5518 -1025 c14 -23 -1 -36 -17 -14 -7 10 -22 16 -33 14 -15 -3
-19 -12 -19 -48 0 -36 4 -45 19 -48 11 -2 26 4 33 14 16 22 31 9 17 -14 -17
-27 -69 -27 -88 0 -36 50 -7 121 46 116 17 -2 36 -11 42 -20z m46 12 c0 -5 -4
-10 -10 -10 -5 0 -10 5 -10 10 0 6 5 10 10 10 6 0 10 -4 10 -10z m110 -60 l0
-70 -35 0 c-28 0 -38 5 -47 25 -16 36 3 75 37 75 18 0 25 5 25 20 0 11 5 20
10 20 6 0 10 -30 10 -70z m220 0 l0 -70 -40 0 c-34 0 -42 4 -50 25 -14 37 3
75 35 75 18 0 25 5 25 20 0 11 7 20 15 20 12 0 15 -14 15 -70z m-330 -20 c0
-27 -4 -50 -10 -50 -5 0 -10 23 -10 50 0 28 5 50 10 50 6 0 10 -22 10 -50z
m208 38 c7 -7 12 -29 12 -50 0 -38 0 -38 -40 -38 -27 0 -43 5 -46 15 -8 20 13
45 37 45 11 0 19 5 19 11 0 7 -11 8 -32 3 -29 -6 -31 -5 -19 10 16 19 52 21
69 4z m221 -10 c12 -31 6 -38 -30 -38 -19 0 -28 -4 -23 -11 3 -6 17 -9 31 -6
15 3 22 0 20 -7 -2 -6 -15 -12 -30 -14 -19 -2 -30 4 -43 22 -15 24 -15 28 0
51 21 33 63 34 75 3z m5131 -253 c60 -31 60 -35 60 -480 0 -446 0 -449 -60
-480 -26 -14 -337 -15 -2844 -13 l-2816 3 -27 28 -28 27 0 434 c0 420 1 435
20 456 11 12 29 26 40 31 11 4 1281 8 2823 8 2487 1 2806 -1 2832 -14z m-4950
-1295 c0 -33 -4 -60 -10 -60 -6 0 -10 27 -10 60 0 33 4 60 10 60 6 0 10 -27
10 -60z m-540 40 c0 -5 -11 -10 -25 -10 -32 0 -32 -14 1 -28 38 -18 30 -56
-13 -60 -23 -2 -33 1 -33 11 0 10 8 13 25 9 14 -2 25 0 25 5 0 5 -11 15 -25
21 -23 11 -33 40 -18 55 10 11 63 8 63 -3z m80 -2 c0 -4 -14 -8 -31 -8 -17 0
-28 4 -24 10 7 11 55 9 55 -2z m4 -34 c3 -9 6 -27 6 -40 0 -23 -3 -25 -37 -22
-45 4 -51 26 -13 45 24 12 25 13 3 13 -13 0 -23 5 -23 10 0 17 57 12 64 -6z
m96 -4 c17 -33 -4 -62 -43 -58 -25 2 -33 8 -35 26 -7 48 56 73 78 32z m145 -5
c9 -18 13 -19 35 -8 l25 13 -24 0 c-18 0 -22 3 -14 11 6 6 21 9 34 7 20 -2 25
-10 27 -40 3 -37 2 -38 -30 -38 -19 0 -39 5 -45 11 -8 8 -13 8 -17 0 -4 -6
-16 -11 -27 -11 -12 0 -19 -7 -19 -20 0 -11 -7 -20 -15 -20 -12 0 -15 13 -15
61 l0 60 37 -3 c26 -2 41 -9 48 -23z m125 -6 c0 -38 24 -35 28 4 5 42 22 32
22 -13 0 -39 -1 -40 -34 -40 -36 0 -46 12 -46 56 0 15 6 24 15 24 10 0 15 -10
15 -31z m190 11 c17 -33 -4 -62 -43 -58 -25 2 -33 8 -35 26 -7 48 56 73 78 32z"/>
<path d="M8606 5355 c-10 -11 -16 -34 -16 -65 0 -39 4 -52 22 -64 12 -9 31
-16 41 -16 16 0 18 8 15 78 -3 70 -5 77 -24 80 -12 2 -29 -4 -38 -13z"/>
<path d="M6840 5395 c0 -38 3 -45 19 -45 41 0 71 19 71 44 0 28 -25 46 -64 46
-24 0 -26 -3 -26 -45z"/>
<path d="M7147 5352 c-25 -27 -23 -104 3 -127 16 -15 25 -16 44 -7 42 19 47
120 6 142 -26 14 -35 13 -53 -8z"/>
<path d="M7947 5352 c-25 -27 -23 -104 3 -127 16 -15 25 -16 44 -7 42 19 47
120 6 142 -26 14 -35 13 -53 -8z"/>
<path d="M8906 5354 c-26 -25 -19 -34 29 -34 25 0 45 4 45 9 0 14 -30 41 -45
41 -7 0 -21 -7 -29 -16z"/>
<path d="M9630 5350 c-40 -40 -15 -140 34 -140 23 0 46 41 46 80 0 39 -23 80
-46 80 -8 0 -23 -9 -34 -20z"/>
<path d="M10088 5359 c-35 -20 -21 -39 28 -39 46 0 46 0 32 23 -18 26 -36 31
-60 16z"/>
<path d="M10573 5263 c-18 -7 -16 -40 3 -47 37 -14 54 -7 54 24 0 25 -4 30
-22 29 -13 0 -29 -3 -35 -6z"/>
<path d="M6920 4280 c0 -23 4 -30 20 -30 16 0 20 7 20 30 0 23 -4 30 -20 30
-16 0 -20 -7 -20 -30z"/>
<path d="M7130 4280 c0 -23 4 -30 20 -30 16 0 20 7 20 30 0 23 -4 30 -20 30
-16 0 -20 -7 -20 -30z"/>
<path d="M7032 4273 c-15 -6 -6 -23 14 -23 8 0 14 7 14 15 0 15 -6 17 -28 8z"/>
<path d="M7240 4300 c0 -5 9 -10 20 -10 11 0 20 5 20 10 0 6 -9 10 -20 10 -11
0 -20 -4 -20 -10z"/>
<path d="M7081 3643 c-31 -25 -19 -49 32 -66 30 -10 42 -19 42 -33 0 -27 -64
-33 -83 -7 -13 17 -14 17 -10 -1 4 -26 53 -42 85 -27 19 9 24 17 21 39 -2 22
-11 29 -45 40 -31 10 -43 19 -43 33 0 25 57 27 76 2 7 -10 13 -13 14 -8 0 37
-56 55 -89 28z"/>
<path d="M7227 3654 c-13 -14 -7 -19 23 -20 17 -1 30 3 30 7 0 5 -4 9 -9 9 -5
0 -16 2 -23 5 -8 3 -17 2 -21 -1z"/>
<path d="M7522 3578 c0 -46 3 -69 5 -52 4 27 9 32 39 37 43 7 64 23 64 48 0
29 -28 49 -71 49 l-39 0 2 -82z m86 35 c-3 -24 -8 -28 -40 -31 -36 -3 -38 -2
-38 27 0 30 2 31 41 31 38 0 40 -1 37 -27z"/>
<path d="M7913 3580 c0 -47 2 -66 4 -42 2 23 2 61 0 85 -2 23 -4 4 -4 -43z"/>
<path d="M7222 3608 c-7 -7 -12 -16 -12 -21 0 -5 7 -1 16 8 19 19 49 16 49 -5
0 -8 -12 -17 -29 -20 -40 -7 -56 -34 -34 -57 14 -13 22 -14 41 -6 14 7 28 8
33 3 5 -5 7 13 5 43 -2 29 -8 55 -15 59 -17 11 -41 9 -54 -4z m58 -63 c0 -22
-38 -39 -56 -24 -11 9 -12 15 -3 25 15 19 59 18 59 -1z"/>
<path d="M7352 3613 c-38 -15 -32 -95 7 -108 36 -11 61 11 61 55 0 48 -27 69
-68 53z m47 -17 c17 -20 10 -67 -11 -79 -23 -15 -48 8 -48 42 0 45 35 66 59
37z"/>
<path d="M7678 3609 c-10 -5 -18 -15 -18 -21 0 -6 9 -3 20 7 20 18 55 14 48
-7 -3 -7 -19 -16 -36 -20 -25 -7 -32 -14 -32 -33 0 -28 33 -43 56 -24 13 10
17 10 25 -2 6 -9 9 3 9 38 0 42 -4 54 -19 63 -24 12 -31 12 -53 -1z m50 -65
c-5 -25 -35 -41 -49 -27 -18 18 -3 43 26 43 19 0 26 -5 23 -16z"/>
<path d="M7781 3578 c-1 -30 4 -52 15 -62 18 -18 23 -19 44 -6 9 6 17 5 22 -3
4 -7 7 17 7 53 -2 65 -2 65 -8 17 -6 -43 -21 -66 -43 -67 -12 0 -22 24 -29 70
l-6 45 -2 -47z"/>
<path d="M7968 3609 c-27 -15 -25 -85 2 -99 45 -24 90 23 71 74 -13 33 -42 44
-73 25z m51 -13 c17 -20 10 -67 -11 -79 -23 -15 -48 8 -48 42 0 45 35 66 59
37z"/>
<path d="M7065 2750 c-8 -14 3 -30 21 -30 8 0 14 9 14 20 0 21 -24 28 -35 10z"/>
<path d="M7210 2740 c0 -11 7 -20 15 -20 8 0 15 9 15 20 0 11 -7 20 -15 20 -8
0 -15 -9 -15 -20z"/>
<path d="M7525 2750 c-8 -14 3 -30 21 -30 8 0 14 9 14 20 0 21 -24 28 -35 10z"/>
</g>
</svg>
