<?xml version="1.0" standalone="no"?>
<!DOCTYPE svg PUBLIC "-//W3C//DTD SVG 20010904//EN"
 "http://www.w3.org/TR/2001/REC-SVG-20010904/DTD/svg10.dtd">
<svg version="1.0" xmlns="http://www.w3.org/2000/svg"
 width="1892.000000pt" height="862.000000pt" viewBox="0 0 1892.000000 862.000000"
 preserveAspectRatio="xMidYMid meet">

<g transform="translate(0.000000,862.000000) scale(0.100000,-0.100000)"
fill="#000000" stroke="none">
<path d="M2325 8055 c-21 -39 -45 -78 -53 -87 -13 -16 -13 -18 2 -24 22 -8 27
-3 71 76 28 49 34 69 27 84 -7 18 -14 11 -47 -49z"/>
<path d="M3793 8032 l-33 -3 0 -145 c0 -132 2 -146 21 -165 25 -25 72 -23 77
4 2 10 -3 24 -12 30 -13 10 -16 38 -18 147 l-3 135 -32 -3z"/>
<path d="M3030 7850 l0 -150 105 0 105 0 0 25 c0 24 -2 25 -70 25 l-70 0 0 40
0 40 60 0 c57 0 60 1 60 25 0 24 -3 25 -60 25 l-60 0 0 35 0 35 65 0 c63 0 65
1 65 25 l0 25 -100 0 -100 0 0 -150z"/>
<path d="M4160 7866 c0 -150 9 -167 81 -168 55 -1 69 6 62 32 -4 15 -14 20
-38 20 -39 0 -45 12 -45 81 l0 49 40 0 c36 0 40 3 40 25 0 23 -4 25 -40 25
-38 0 -40 2 -40 30 0 27 -3 30 -30 30 l-30 0 0 -124z"/>
<path d="M15760 7865 c0 -50 4 -85 10 -85 6 0 10 35 10 85 0 50 -4 85 -10 85
-6 0 -10 -35 -10 -85z"/>
<path d="M16620 7865 c0 -50 4 -85 10 -85 6 0 10 17 10 39 0 39 20 68 40 56 5
-3 10 -26 10 -51 0 -32 4 -44 15 -44 11 0 15 11 15 41 0 56 -14 79 -50 79 -25
0 -30 4 -30 25 0 14 -4 25 -10 25 -6 0 -10 -35 -10 -85z"/>
<path d="M15490 7933 c0 -24 55 -153 65 -153 10 0 65 129 65 153 0 25 -26 -5
-39 -46 -9 -26 -20 -48 -25 -49 -5 -2 -17 19 -26 46 -9 28 -22 52 -28 54 -7 2
-12 0 -12 -5z"/>
<path d="M3331 7916 c-34 -19 -50 -54 -51 -107 0 -79 63 -129 145 -113 29 5
36 10 33 28 -2 17 -11 22 -45 24 -30 2 -47 10 -58 25 -36 51 0 114 60 104 29
-5 34 -2 38 19 2 13 2 26 -1 29 -11 10 -98 4 -121 -9z"/>
<path d="M3525 7908 c-47 -41 -50 -135 -5 -183 47 -50 143 -37 175 26 26 49
15 116 -24 151 -41 37 -107 39 -146 6z m96 -38 c14 -8 19 -21 19 -53 0 -48
-13 -67 -47 -67 -41 0 -59 76 -26 112 19 21 27 22 54 8z"/>
<path d="M3929 7902 c-25 -23 -32 -38 -36 -78 -8 -92 55 -144 157 -128 37 6
41 9 38 33 -3 24 -6 25 -51 22 -45 -2 -77 10 -77 30 0 5 31 9 69 9 39 0 72 3
74 8 2 4 2 24 0 44 -11 85 -108 119 -174 60z m99 -34 c21 -21 13 -28 -28 -28
-22 0 -40 4 -40 8 0 14 23 32 40 32 9 0 21 -5 28 -12z"/>
<path d="M4356 7921 c-4 -5 -3 -17 1 -28 6 -14 19 -18 53 -18 35 0 45 -4 48
-17 3 -15 -4 -18 -36 -18 -50 0 -92 -31 -92 -69 0 -58 48 -81 145 -71 l50 5 0
94 c0 85 -2 95 -24 112 -17 14 -39 19 -82 19 -32 0 -60 -4 -63 -9z m109 -151
c0 -19 -6 -26 -26 -28 -34 -4 -57 22 -39 44 8 8 25 14 39 12 20 -2 26 -9 26
-28z"/>
<path d="M15820 7916 c0 -8 -6 -17 -12 -20 -10 -5 -10 -7 0 -12 7 -3 12 -24
12 -50 0 -31 5 -46 15 -51 9 -3 19 -2 23 2 4 4 1 10 -5 12 -8 3 -13 21 -13 43
0 21 6 41 13 44 10 5 10 7 0 12 -7 3 -13 12 -13 20 0 8 -4 14 -10 14 -5 0 -10
-6 -10 -14z"/>
<path d="M15646 7885 c-20 -20 -21 -78 -2 -94 24 -20 69 -9 86 22 13 24 13 30
0 55 -18 32 -60 41 -84 17z m59 -45 c0 -29 -4 -36 -22 -38 -17 -3 -24 3 -29
22 -7 30 11 58 35 54 11 -2 16 -14 16 -38z"/>
<path d="M15898 7889 c-10 -5 -18 -14 -18 -19 0 -14 28 -12 32 2 5 13 38 4 38
-11 0 -5 -12 -11 -26 -13 -31 -3 -50 -28 -41 -52 5 -11 19 -16 52 -16 l45 0 0
41 c0 70 -32 97 -82 68z m52 -68 c0 -6 -5 -13 -10 -16 -15 -9 -43 3 -35 15 8
13 45 13 45 1z"/>
<path d="M16000 7840 c0 -47 3 -60 15 -60 11 0 15 12 15 45 0 31 5 47 15 51
25 10 17 24 -15 24 l-30 0 0 -60z"/>
<path d="M16132 7818 c2 -49 7 -82 13 -81 6 1 11 11 13 23 3 15 11 20 31 20
39 0 59 45 39 87 -11 23 -20 29 -56 31 l-43 3 3 -83z m66 53 c8 -5 12 -21 10
-37 -2 -21 -9 -30 -25 -32 -20 -3 -23 1 -23 31 0 45 11 56 38 38z"/>
<path d="M16264 7883 c-12 -12 -13 -18 -4 -21 6 -2 17 1 23 7 16 16 37 14 37
-3 0 -8 -12 -16 -26 -18 -66 -8 -51 -68 17 -68 l39 0 0 48 c0 26 -5 53 -12 60
-17 17 -54 15 -74 -5z m56 -68 c0 -8 -9 -15 -20 -15 -11 0 -20 7 -20 15 0 8 9
15 20 15 11 0 20 -7 20 -15z"/>
<path d="M16380 7840 c0 -33 4 -60 10 -60 6 0 10 20 10 44 0 36 4 46 20 51 30
10 24 25 -10 25 l-30 0 0 -60z"/>
<path d="M16454 7883 c-12 -12 -13 -18 -4 -21 6 -2 17 1 23 7 16 16 37 14 37
-3 0 -8 -12 -16 -26 -18 -66 -8 -51 -68 17 -68 l39 0 0 48 c0 26 -5 53 -12 60
-17 17 -54 15 -74 -5z m56 -68 c0 -8 -9 -15 -20 -15 -11 0 -20 7 -20 15 0 8 9
15 20 15 11 0 20 -7 20 -15z"/>
<path d="M16758 7889 c-22 -13 -24 -81 -4 -98 25 -21 69 -9 84 22 26 55 -29
107 -80 76z m52 -23 c6 -8 10 -25 8 -38 -2 -17 -10 -23 -28 -23 -18 0 -26 6
-28 23 -3 22 13 52 28 52 4 0 13 -7 20 -14z"/>
<path d="M16870 7840 c0 -71 18 -81 22 -12 3 39 6 47 23 47 17 0 20 -8 23 -47
2 -27 7 -48 12 -48 5 0 10 21 12 48 3 39 6 47 23 47 17 0 20 -8 23 -47 2 -27
8 -48 13 -48 6 0 9 24 7 58 l-3 57 -77 2 -78 2 0 -59z"/>
<path d="M17072 7888 c-37 -48 -13 -111 40 -106 43 4 49 27 7 25 -18 -1 -34 4
-36 11 -3 8 8 12 36 12 45 0 51 11 25 48 -17 24 -56 29 -72 10z m56 -25 c2 -8
-6 -13 -22 -13 -25 0 -33 10 -19 24 10 10 36 3 41 -11z"/>
<path d="M2130 7678 c-22 -37 -24 -44 -11 -52 5 -4 21 14 34 39 20 34 22 45
11 45 -8 0 -23 -15 -34 -32z"/>
<path d="M2298 7634 c3 -64 6 -75 20 -72 14 3 18 17 20 76 3 69 2 72 -20 72
-22 0 -23 -2 -20 -76z"/>
<path d="M2560 7695 c0 -3 7 -17 17 -31 15 -23 15 -28 0 -60 -13 -27 -14 -34
-3 -34 18 0 46 33 46 54 0 25 -32 76 -47 76 -7 0 -13 -2 -13 -5z"/>
<path d="M3900 6831 c0 -26 -3 -30 -27 -28 -20 2 -31 -5 -42 -25 -14 -25 -14
-31 -1 -55 13 -22 23 -28 53 -29 l37 -1 0 83 c0 49 -4 84 -10 84 -5 0 -10 -13
-10 -29z m-5 -81 c0 -31 -3 -35 -25 -35 -19 0 -26 6 -28 23 -5 36 5 54 30 50
19 -2 23 -9 23 -38z"/>
<path d="M2078 6838 c-32 -11 -38 -33 -8 -25 18 5 20 0 20 -59 0 -50 3 -64 15
-64 12 0 15 16 15 80 0 44 -3 80 -7 79 -5 0 -20 -5 -35 -11z"/>
<path d="M2610 6825 c0 -8 -7 -15 -15 -15 -8 0 -15 -4 -15 -9 0 -5 7 -11 15
-15 10 -4 15 -20 15 -51 0 -38 3 -45 20 -45 11 0 20 5 20 10 0 6 -4 10 -10 10
-15 0 -12 77 3 84 10 5 10 7 0 12 -7 3 -13 12 -13 20 0 8 -4 14 -10 14 -5 0
-10 -7 -10 -15z"/>
<path d="M3570 6826 c0 -8 -6 -17 -12 -19 -10 -4 -10 -6 0 -6 7 -1 12 -16 12
-39 0 -41 23 -83 37 -68 4 5 2 11 -4 13 -16 6 -17 75 -1 91 9 9 9 12 0 12 -7
0 -12 7 -12 15 0 8 -4 15 -10 15 -5 0 -10 -6 -10 -14z"/>
<path d="M2230 6725 c0 -50 4 -85 10 -85 6 0 10 11 10 25 0 21 5 25 28 25 36
0 52 16 52 53 0 49 -16 67 -60 67 l-40 0 0 -85z m69 47 c16 -29 2 -64 -23 -60
-34 5 -36 78 -2 78 9 0 20 -8 25 -18z"/>
<path d="M2366 6795 c-20 -20 -21 -78 -2 -94 24 -20 69 -9 86 22 13 24 13 30
0 55 -18 32 -60 41 -84 17z m59 -45 c0 -29 -4 -36 -22 -38 -17 -3 -24 3 -29
22 -7 30 11 58 35 54 11 -2 16 -14 16 -38z"/>
<path d="M2480 6749 c0 -33 4 -59 10 -59 6 0 10 20 10 44 0 31 5 46 16 50 26
10 34 -2 34 -50 0 -24 5 -44 10 -44 7 0 10 22 8 58 l-3 57 -42 1 -43 2 0 -59z"/>
<path d="M2676 6788 c-9 -12 -16 -29 -16 -38 0 -29 30 -60 59 -60 36 0 51 17
51 56 0 60 -63 87 -94 42z m64 -13 c7 -9 10 -25 6 -41 -9 -33 -49 -31 -54 4
-7 48 21 69 48 37z"/>
<path d="M2799 6794 c-16 -20 -1 -46 31 -54 13 -3 25 -11 28 -18 5 -15 -30
-16 -46 0 -17 17 -27 2 -12 -17 8 -10 25 -15 44 -13 25 2 32 8 34 29 3 22 -2
29 -27 37 -17 6 -31 16 -31 21 0 14 27 14 35 1 9 -15 25 -12 25 4 0 28 -60 35
-81 10z"/>
<path d="M2976 6788 c-21 -29 -20 -51 2 -78 14 -18 25 -22 45 -16 15 3 27 11
27 17 0 7 -6 7 -17 0 -21 -11 -53 3 -53 24 0 11 12 15 40 15 22 0 40 3 40 8 0
18 -33 52 -50 52 -10 0 -26 -10 -34 -22z m64 -19 c0 -5 -13 -9 -30 -9 -33 0
-39 14 -13 29 18 10 43 -2 43 -20z"/>
<path d="M3080 6748 c0 -69 18 -78 22 -10 3 40 6 47 26 50 20 3 22 0 22 -47 0
-28 5 -51 10 -51 15 0 12 96 -2 107 -7 6 -28 10 -45 10 l-33 0 0 -59z"/>
<path d="M3217 6792 c-44 -48 16 -135 61 -90 19 19 14 30 -7 17 -28 -18 -51
-4 -51 31 0 35 23 49 51 31 21 -13 26 -2 7 17 -17 17 -42 15 -61 -6z"/>
<path d="M3338 6799 c-13 -7 -18 -22 -18 -50 0 -33 4 -41 26 -51 50 -23 92 37
60 86 -17 27 -39 32 -68 15z m62 -49 c0 -38 -31 -57 -54 -34 -33 33 -4 94 35
74 12 -7 19 -21 19 -40z"/>
<path d="M3452 6745 l1 -60 6 50 c5 45 8 50 31 50 23 0 26 -5 31 -50 l6 -50
-1 60 -1 60 -37 0 -38 1 2 -61z"/>
<path d="M3642 6745 c2 -58 2 -59 5 -11 3 37 8 49 24 53 27 8 24 21 -6 19 -24
-1 -25 -4 -23 -61z"/>
<path d="M3720 6795 c-15 -18 1 -20 18 -3 8 8 15 8 27 -2 22 -18 19 -30 -9
-30 -35 0 -59 -26 -46 -50 7 -14 20 -19 48 -17 l37 1 -4 46 c-2 25 -8 51 -13
58 -14 16 -43 15 -58 -3z m55 -65 c0 -9 -11 -16 -27 -18 -20 -2 -28 1 -28 12
0 8 6 17 13 19 21 9 42 2 42 -13z"/>
<path d="M3966 6794 c-33 -33 -10 -104 33 -104 10 0 25 8 34 18 47 52 -18 135
-67 86z m64 -44 c0 -39 -31 -57 -54 -31 -20 22 -20 31 0 59 21 30 54 14 54
-28z"/>
<path d="M4093 6803 c-27 -10 -13 -44 24 -60 34 -14 36 -16 19 -28 -18 -14
-46 -10 -46 6 0 5 -4 9 -10 9 -5 0 -7 -7 -4 -15 8 -21 51 -30 69 -15 25 20 17
40 -21 56 -29 12 -34 18 -24 29 9 11 17 12 30 5 27 -14 34 -12 20 5 -12 15
-34 18 -57 8z"/>
<path d="M2103 6175 c-66 -29 -63 30 -63 -1065 l0 -990 300 0 c165 0 300 3
300 8 0 4 -9 18 -20 32 -11 14 -20 30 -20 36 0 6 -13 28 -29 49 -29 39 -29 39
-10 64 10 13 19 31 19 39 0 8 11 30 25 48 14 18 25 37 25 41 0 14 39 91 49 98
5 3 26 40 45 83 20 42 41 84 46 92 26 41 111 200 128 240 11 25 36 66 56 93
20 26 36 51 36 56 0 5 -14 19 -31 32 -85 64 -133 105 -136 116 -8 22 37 33
169 43 73 6 189 19 258 29 69 11 135 18 146 17 25 -2 97 -74 119 -117 8 -15
15 -41 15 -56 0 -19 14 -43 43 -75 59 -65 135 -218 108 -218 -6 0 -11 -7 -11
-15 0 -8 -4 -15 -10 -15 -5 0 -10 5 -10 10 0 6 -11 10 -25 10 -14 0 -25 4 -25
9 0 5 -12 9 -28 9 -15 -1 -37 2 -49 6 -12 4 -24 2 -28 -4 -5 -7 -11 -8 -19 -1
-9 7 -17 2 -30 -19 -9 -17 -21 -30 -27 -30 -5 0 -9 -8 -9 -18 0 -9 -9 -23 -20
-30 -11 -7 -20 -17 -20 -23 0 -6 -14 -30 -30 -55 -17 -24 -29 -44 -26 -44 3 0
-8 -23 -24 -50 -17 -28 -30 -53 -30 -56 0 -3 15 -23 32 -45 45 -56 86 -71 177
-66 40 2 182 -1 315 -8 132 -6 363 -10 511 -8 311 5 418 -3 423 -30 2 -9 -24
-53 -57 -98 -35 -46 -58 -86 -54 -92 4 -7 21 -29 37 -49 30 -36 34 -38 91 -38
54 0 61 2 61 20 0 15 -5 19 -21 15 -11 -3 -14 -2 -7 1 15 7 16 34 0 34 -6 0
-9 3 -5 6 3 4 -3 14 -14 23 -22 18 -17 51 7 51 8 0 25 18 39 40 14 22 85 101
159 175 123 123 169 157 194 141 5 -3 13 -46 16 -95 4 -49 13 -96 19 -104 8
-10 45 -19 117 -26 58 -5 147 -15 198 -22 116 -14 137 -7 180 64 17 29 34 59
37 68 6 17 -31 89 -46 89 -5 0 -9 6 -9 14 0 7 -10 16 -22 19 -12 4 -19 9 -15
13 4 4 -7 22 -24 40 -16 17 -31 38 -33 46 -1 8 -15 28 -31 44 -17 16 -43 47
-60 68 -16 22 -37 47 -46 56 -8 9 -18 24 -22 33 -3 9 -13 14 -21 11 -19 -7
-32 16 -15 27 10 6 8 10 -11 18 -14 5 -18 10 -10 10 10 1 5 10 -15 29 -17 15
-44 46 -59 70 -16 23 -31 40 -34 37 -8 -8 -32 45 -32 71 0 13 -6 24 -12 24 -7
0 -21 17 -31 38 -26 53 -54 105 -66 118 -15 18 -51 101 -51 118 0 9 -8 24 -17
34 -16 15 -20 36 -13 67 1 6 3 17 4 25 1 14 14 17 119 35 56 9 34 26 -36 26
-130 1 -152 3 -165 16 -7 7 -22 13 -32 13 -10 0 -20 6 -23 13 -3 9 -7 9 -19
-1 -9 -7 -27 -10 -47 -6 -23 5 -31 3 -31 -7 0 -9 -3 -10 -8 -3 -12 17 -80 55
-94 52 -40 -8 -86 20 -120 73 -19 29 -14 69 9 69 7 0 32 17 54 39 37 35 40 41
33 75 -3 20 -13 43 -20 51 -8 7 -14 18 -14 24 0 6 -6 11 -13 11 -14 0 -37 40
-37 65 0 18 -16 20 -23 3 -4 -10 -6 -10 -6 0 -1 9 -32 12 -120 12 -66 0 -126
-3 -135 -6 -9 -3 -16 -17 -16 -30 0 -15 -10 -29 -30 -40 -18 -11 -25 -21 -18
-25 6 -4 3 -9 -10 -13 -11 -4 -22 -14 -26 -24 -13 -38 -47 -86 -86 -121 -38
-34 -40 -39 -24 -46 17 -7 17 -8 -5 -14 -30 -8 -49 -42 -57 -101 -2 -14 -8
-26 -14 -28 -14 -5 -13 -52 3 -52 6 -1 1 -7 -13 -15 -14 -7 -32 -29 -40 -49
-7 -20 -17 -36 -22 -36 -4 0 -8 -9 -8 -21 0 -12 -8 -23 -20 -26 -18 -5 -21 -9
-20 -28 1 -3 -6 -13 -15 -21 -8 -9 -15 -23 -15 -32 0 -17 -60 -72 -79 -72 -5
0 -13 -9 -16 -20 -3 -11 -13 -20 -20 -20 -8 0 -18 -6 -22 -14 -10 -17 -93 -26
-111 -12 -34 28 -79 73 -93 96 -16 24 -20 25 -113 23 -75 -2 -102 1 -121 13
-31 20 -31 33 0 94 14 27 25 61 25 75 0 32 60 146 109 204 21 25 44 57 51 71
19 36 69 103 117 158 24 26 43 53 43 60 0 6 6 12 14 12 7 0 16 8 20 18 3 9 9
23 12 30 9 19 -1528 17 -1573 -3z"/>
<path d="M5430 6180 c0 -5 0 -13 -1 -17 -2 -11 -29 -84 -41 -110 -6 -12 -8
-29 -4 -39 3 -9 1 -23 -5 -30 -6 -8 -9 -21 -5 -29 4 -11 0 -15 -11 -13 -11 2
-19 -5 -21 -17 -3 -11 -13 -32 -23 -47 -23 -32 -23 -35 -1 -41 10 -3 6 -5 -10
-6 -21 -1 -28 -6 -28 -22 0 -13 -4 -18 -12 -13 -8 5 -9 0 -5 -15 3 -14 0 -24
-8 -28 -11 -4 -12 -9 -2 -24 14 -22 27 -25 27 -5 0 35 128 140 158 129 23 -9
106 -98 158 -169 10 -14 34 -45 53 -67 18 -23 47 -71 64 -107 17 -36 34 -67
38 -70 3 -3 16 -27 28 -55 12 -27 31 -68 43 -90 51 -99 111 -211 118 -220 4
-5 24 -40 44 -77 19 -37 46 -85 59 -105 13 -21 27 -49 32 -61 4 -13 19 -43 33
-65 48 -75 51 -81 90 -157 45 -91 106 -193 143 -240 15 -19 37 -54 49 -78 12
-23 26 -45 31 -48 5 -3 18 -22 29 -43 17 -34 17 -40 4 -60 l-15 -21 210 0 211
0 0 990 c0 1088 3 1032 -60 1065 -25 13 -120 15 -700 15 -440 0 -670 -3 -670
-10z"/>
<path d="M2936 3534 c-9 -8 -16 -22 -16 -29 0 -7 7 -21 16 -29 8 -9 22 -16 29
-16 7 0 21 7 29 16 9 8 16 22 16 29 0 7 -7 21 -16 29 -8 9 -22 16 -29 16 -7 0
-21 -7 -29 -16z"/>
<path d="M3348 3543 l-28 -4 0 -165 c0 -91 4 -174 10 -184 14 -26 79 -47 91
-29 14 23 10 43 -11 57 -19 11 -20 23 -20 172 0 88 -3 159 -7 159 -5 -1 -20
-4 -35 -6z"/>
<path d="M4460 3536 c-28 -35 11 -93 48 -70 35 22 22 84 -18 84 -10 0 -23 -7
-30 -14z"/>
<path d="M2103 3504 c-23 -5 -23 -7 -23 -175 l0 -169 35 0 35 0 0 60 c0 58 1
60 25 60 20 0 33 -12 63 -60 36 -57 38 -59 80 -60 41 0 42 1 31 23 -7 12 -25
41 -41 65 l-30 43 26 24 c51 47 43 135 -15 169 -32 19 -139 30 -186 20z m138
-74 c11 -6 19 -21 19 -35 0 -29 -26 -45 -74 -45 -36 0 -36 0 -36 45 0 45 0 45
36 45 19 0 44 -5 55 -10z"/>
<path d="M2450 3412 c-68 -33 -92 -137 -47 -203 29 -44 86 -64 150 -55 43 7
47 10 47 35 0 27 -1 28 -54 23 -45 -4 -57 -1 -75 17 -35 35 -26 41 64 41 l85
0 0 34 c0 52 -16 84 -52 106 -41 25 -72 25 -118 2z m94 -64 c15 -24 5 -30 -48
-26 -46 3 -47 3 -30 26 19 27 61 27 78 0z"/>
<path d="M2740 3412 c-42 -23 -70 -73 -70 -127 0 -85 70 -143 159 -131 24 3
46 7 47 9 1 1 0 13 -3 27 -4 23 -8 25 -48 22 -57 -5 -85 21 -85 78 0 55 29 83
80 78 34 -3 40 0 45 20 8 31 5 33 -47 39 -30 3 -54 -2 -78 -15z"/>
<path d="M3130 3412 c-42 -23 -70 -73 -70 -127 0 -85 70 -143 159 -131 24 3
46 7 47 9 1 1 0 13 -3 27 -4 23 -8 25 -48 22 -57 -5 -85 21 -85 78 0 55 29 83
80 78 34 -3 40 0 45 20 8 31 5 33 -47 39 -30 3 -54 -2 -78 -15z"/>
<path d="M3517 3423 c-20 -3 -27 -9 -23 -20 3 -8 6 -20 6 -26 0 -8 15 -11 45
-9 47 4 75 -9 75 -34 0 -9 -12 -14 -34 -14 -46 0 -94 -18 -106 -40 -16 -30
-11 -79 9 -99 26 -26 78 -35 147 -26 l56 7 -4 109 c-3 95 -6 111 -25 130 -22
22 -87 32 -146 22z m103 -183 c0 -28 -3 -30 -35 -30 -22 0 -38 6 -41 15 -11
28 4 45 41 45 32 0 35 -2 35 -30z"/>
<path d="M3793 3423 l-33 -4 0 -130 0 -129 35 0 35 0 0 105 c0 103 0 105 23
105 40 0 47 -18 47 -117 l0 -93 35 0 34 0 3 103 3 102 27 3 c37 4 48 -25 48
-129 l0 -79 36 0 37 0 -5 103 c-2 56 -10 112 -16 123 -19 36 -66 49 -122 35
-35 -9 -54 -10 -69 -2 -19 11 -54 12 -118 4z"/>
<path d="M4217 3423 c-20 -3 -27 -9 -23 -20 3 -8 6 -20 6 -26 0 -8 15 -11 45
-9 47 4 75 -9 75 -34 0 -9 -12 -14 -34 -14 -46 0 -94 -18 -106 -40 -16 -30
-11 -79 9 -99 26 -26 78 -35 147 -26 l56 7 -4 109 c-3 95 -6 111 -25 130 -22
22 -87 32 -146 22z m103 -183 c0 -28 -3 -30 -35 -30 -22 0 -38 6 -41 15 -11
28 4 45 41 45 32 0 35 -2 35 -30z"/>
<path d="M4643 3420 c-37 -15 -57 -56 -46 -93 7 -25 20 -37 61 -57 34 -17 52
-31 52 -43 0 -17 -7 -18 -57 -15 -56 3 -58 2 -61 -24 -3 -25 0 -27 42 -33 50
-8 89 -1 124 21 16 11 22 24 22 53 0 43 -13 58 -78 90 -54 28 -50 46 11 46 40
0 47 3 52 24 3 13 4 25 2 27 -10 10 -104 13 -124 4z"/>
<path d="M2930 3290 l0 -130 35 0 35 0 0 130 0 130 -35 0 -35 0 0 -130z"/>
<path d="M4460 3290 l0 -130 35 0 35 0 0 130 0 130 -35 0 -35 0 0 -130z"/>
<path d="M2874 1315 c0 -49 1 -71 3 -48 2 23 2 64 0 90 -2 26 -3 8 -3 -42z"/>
<path d="M3950 1315 c0 -50 4 -85 10 -85 6 0 10 35 10 85 0 50 -4 85 -10 85
-6 0 -10 -35 -10 -85z"/>
<path d="M2076 1377 c-27 -20 -16 -50 27 -70 23 -12 37 -26 37 -38 0 -29 -55
-29 -77 -1 -8 11 -12 12 -13 5 0 -21 46 -44 73 -38 52 14 41 66 -18 85 -25 8
-35 17 -33 28 5 25 56 28 74 5 14 -17 14 -17 5 3 -16 34 -46 42 -75 21z"/>
<path d="M2208 1383 c7 -3 16 -2 19 1 4 3 -2 6 -13 5 -11 0 -14 -3 -6 -6z"/>
<path d="M2491 1308 c1 -56 4 -72 8 -48 5 32 9 35 46 40 35 4 40 8 43 35 4 36
-18 55 -65 55 l-33 0 1 -82z m84 32 c0 -22 -5 -25 -37 -28 -36 -3 -38 -2 -38
28 0 30 2 31 38 28 32 -3 37 -6 37 -28z"/>
<path d="M3155 1374 c-25 -25 -14 -47 33 -68 46 -21 53 -39 22 -56 -22 -12
-54 0 -63 22 -3 8 -6 6 -6 -5 -1 -26 43 -43 75 -29 37 18 29 52 -20 77 -21 11
-38 23 -37 28 0 4 1 12 1 17 0 17 58 11 69 -7 10 -17 10 -17 11 -1 0 18 -28
38 -54 38 -8 0 -22 -7 -31 -16z"/>
<path d="M3286 1382 c-5 -8 50 -10 57 -2 3 3 -8 6 -24 7 -15 1 -30 -1 -33 -5z"/>
<path d="M3582 1308 c1 -46 3 -66 5 -45 4 34 7 37 37 37 36 0 56 15 56 41 0
28 -29 49 -66 49 l-34 0 2 -82z m83 52 c3 -6 3 -19 0 -30 -5 -15 -15 -20 -41
-20 -31 0 -34 2 -34 30 0 28 3 30 34 30 19 0 38 -5 41 -10z"/>
<path d="M2199 1333 c-13 -15 -12 -15 9 -4 18 10 27 10 38 0 21 -17 17 -29
-10 -29 -30 0 -57 -25 -50 -45 7 -16 9 -17 54 -19 29 -1 30 0 30 46 0 37 -4
50 -19 58 -27 14 -36 13 -52 -7z m59 -60 c-4 -22 -58 -31 -58 -10 0 20 10 27
37 27 18 0 24 -5 21 -17z"/>
<path d="M2320 1330 c-11 -11 -20 -29 -20 -40 0 -23 33 -60 53 -60 41 0 61 74
29 103 -24 22 -38 21 -62 -3z m54 -6 c9 -8 16 -24 16 -34 0 -19 -25 -50 -40
-50 -5 0 -17 11 -26 25 -15 23 -15 27 0 50 19 29 29 31 50 9z"/>
<path d="M2643 1343 c-7 -2 -13 -9 -13 -15 0 -6 6 -6 15 2 8 7 22 10 30 6 21
-8 19 -36 -3 -36 -10 0 -27 -6 -38 -14 -29 -22 -7 -51 38 -51 l35 0 -5 50 c-6
59 -21 74 -59 58z m47 -73 c0 -14 -7 -20 -23 -20 -30 0 -40 10 -26 27 18 20
49 16 49 -7z"/>
<path d="M2740 1308 c0 -57 12 -73 55 -73 l35 0 -2 60 c-2 57 -2 57 -5 13 -3
-35 -9 -51 -24 -58 -29 -16 -39 -4 -39 51 0 27 -4 49 -10 49 -5 0 -10 -19 -10
-42z"/>
<path d="M2935 1336 c-37 -27 -15 -106 31 -106 22 0 44 30 44 60 0 30 -22 60
-44 60 -7 0 -21 -6 -31 -14z m46 -6 c27 -15 26 -66 -2 -80 -15 -9 -24 -8 -35
1 -17 14 -19 60 -2 77 15 15 15 15 39 2z"/>
<path d="M3284 1335 c-10 -8 -14 -15 -8 -15 5 0 15 5 21 11 7 7 19 9 27 6 22
-9 20 -37 -2 -37 -10 0 -27 -6 -38 -14 -28 -21 -7 -51 37 -52 l34 -1 -4 51
c-4 65 -26 82 -67 51z m56 -65 c0 -16 -7 -20 -30 -20 -49 0 -37 37 13 39 11 1
17 -6 17 -19z"/>
<path d="M3406 1334 c-30 -29 -11 -104 25 -104 31 0 49 22 49 60 0 29 -5 42
-19 50 -27 14 -37 13 -55 -6z m52 -6 c17 -17 15 -63 -2 -77 -23 -20 -56 4 -56
39 0 39 34 62 58 38z"/>
<path d="M3724 1334 c-18 -14 -18 -15 4 -4 18 9 27 8 38 -1 21 -17 17 -29 -9
-29 -28 0 -47 -17 -47 -42 0 -18 4 -20 53 -22 26 -2 27 1 27 44 0 65 -25 87
-66 54z m54 -61 c-4 -22 -58 -31 -58 -10 0 20 10 27 37 27 18 0 24 -5 21 -17z"/>
<path d="M3832 1304 c-2 -58 9 -73 50 -71 27 2 28 3 26 62 l-2 60 -3 -51 c-3
-41 -8 -53 -23 -57 -26 -7 -38 10 -43 63 l-4 45 -1 -51z"/>
<path d="M4017 1332 c-31 -34 -10 -102 31 -102 19 0 52 38 52 60 0 23 -33 60
-53 60 -8 0 -21 -8 -30 -18z m51 -4 c23 -23 9 -88 -19 -88 -14 0 -39 32 -39
50 0 18 25 50 39 50 4 0 12 -5 19 -12z"/>
<path d="M3042 1230 c0 -14 2 -19 5 -12 2 6 2 18 0 25 -3 6 -5 1 -5 -13z"/>
<path d="M2649 1033 c-12 -16 -12 -17 2 -6 12 10 18 10 29 0 12 -10 12 -9 1 6
-7 9 -15 17 -16 17 -1 0 -9 -8 -16 -17z"/>
<path d="M3680 965 c0 -50 4 -85 10 -85 6 0 10 35 10 85 0 50 -4 85 -10 85 -6
0 -10 -35 -10 -85z"/>
<path d="M2061 958 c1 -56 4 -72 8 -48 9 51 41 53 64 4 10 -20 20 -34 23 -31
3 3 -1 19 -10 35 -14 26 -14 31 -1 42 36 30 4 80 -51 80 l-34 0 1 -82z m83 46
c9 -24 -12 -44 -45 -44 -26 0 -29 4 -29 30 0 27 3 30 34 30 22 0 36 -6 40 -16z"/>
<path d="M2491 958 c1 -56 4 -72 8 -48 5 32 9 35 46 40 35 4 40 8 43 35 4 36
-18 55 -65 55 l-33 0 1 -82z m84 32 c0 -22 -5 -25 -37 -28 -36 -3 -38 -2 -38
28 0 30 2 31 38 28 32 -3 37 -6 37 -28z"/>
<path d="M2992 958 l2 -83 6 70 c6 77 5 77 46 -25 l18 -44 18 39 c9 22 23 54
30 70 12 29 12 27 18 -40 l6 -70 2 83 c2 99 -11 105 -42 20 -12 -30 -25 -56
-31 -56 -5 0 -19 26 -31 56 -31 85 -44 79 -42 -20z"/>
<path d="M2192 960 c-2 -58 9 -75 53 -76 l35 -1 0 58 c0 33 -4 59 -10 59 -5 0
-10 -22 -10 -49 0 -36 -4 -51 -16 -55 -26 -10 -43 12 -47 62 l-3 47 -2 -45z"/>
<path d="M2333 993 c-7 -2 -13 -9 -13 -15 0 -6 6 -6 15 2 8 7 22 10 30 6 21
-8 19 -36 -3 -36 -10 0 -27 -6 -38 -14 -29 -22 -7 -51 38 -51 l35 0 -5 50 c-6
59 -21 74 -59 58z m47 -73 c0 -14 -7 -20 -23 -20 -30 0 -40 10 -26 27 18 20
49 16 49 -7z"/>
<path d="M2637 982 c-23 -25 -21 -65 3 -87 16 -15 24 -16 42 -6 22 11 22 11 2
6 -21 -6 -54 16 -54 36 0 5 18 9 40 9 44 0 52 16 24 44 -20 21 -37 20 -57 -2z
m53 -7 c17 -21 9 -27 -31 -23 -31 3 -32 4 -15 21 21 21 30 21 46 2z"/>
<path d="M2741 935 c1 -33 4 -46 6 -30 7 58 13 75 28 75 8 0 15 3 15 8 0 4
-11 7 -25 7 -24 0 -25 -2 -24 -60z"/>
<path d="M2824 985 c-10 -8 -14 -15 -8 -15 5 0 15 5 21 11 7 7 19 9 27 6 22
-9 20 -37 -2 -37 -10 0 -27 -6 -38 -14 -28 -21 -7 -51 37 -52 l34 -1 -4 51
c-4 65 -26 82 -67 51z m56 -65 c0 -16 -7 -20 -30 -20 -49 0 -37 37 13 39 11 1
17 -6 17 -19z"/>
<path d="M3189 983 c-13 -15 -12 -15 9 -4 18 10 27 10 38 0 21 -17 17 -29 -10
-29 -30 0 -57 -25 -50 -45 7 -16 9 -17 54 -19 29 -1 30 0 30 46 0 37 -4 50
-19 58 -27 14 -36 13 -52 -7z m59 -60 c-4 -22 -58 -31 -58 -10 0 20 10 27 37
27 18 0 24 -5 21 -17z"/>
<path d="M3302 935 c2 -58 2 -59 5 -11 3 37 8 49 24 53 27 8 24 21 -6 19 -24
-1 -25 -4 -23 -61z"/>
<path d="M3372 935 c1 -53 2 -55 5 -15 7 84 63 92 63 9 0 -27 5 -49 10 -49 6
0 10 22 10 49 0 83 56 75 63 -9 l4 -45 1 51 c2 62 -15 83 -52 66 -13 -6 -27
-8 -31 -4 -4 4 -22 7 -41 7 l-34 0 2 -60z"/>
<path d="M3577 982 c-23 -25 -21 -65 3 -87 16 -15 24 -16 42 -6 22 11 22 11 2
6 -21 -6 -54 16 -54 36 0 5 18 9 40 9 44 0 52 16 24 44 -20 21 -37 20 -57 -2z
m53 -7 c17 -21 9 -27 -31 -23 -31 3 -32 4 -15 21 21 21 30 21 46 2z"/>
<path d="M3747 982 c-31 -34 -10 -102 31 -102 19 0 52 38 52 60 0 23 -33 60
-53 60 -8 0 -21 -8 -30 -18z m51 -4 c23 -23 9 -88 -19 -88 -14 0 -39 32 -39
50 0 18 25 50 39 50 4 0 12 -5 19 -12z"/>
<path d="M2062 608 c2 -77 2 -78 5 -20 2 34 7 62 11 62 4 0 24 -27 46 -60 21
-33 40 -60 42 -60 2 0 3 37 2 83 l-1 82 -6 -65 -6 -65 -40 62 c-22 35 -43 63
-47 63 -5 0 -7 -37 -6 -82z"/>
<path d="M2928 683 c23 -2 42 -8 42 -14 0 -5 -13 -39 -29 -74 -17 -36 -26 -65
-22 -65 6 0 31 55 68 148 4 9 -9 12 -48 10 -51 -1 -51 -2 -11 -5z"/>
<path d="M3030 675 c-7 -9 -10 -18 -6 -22 3 -3 6 -2 6 4 0 14 26 24 45 17 23
-9 18 -44 -7 -53 l-23 -8 23 -7 c26 -8 31 -50 7 -60 -19 -7 -45 3 -45 17 0 6
-3 7 -6 4 -11 -10 16 -37 37 -37 10 0 25 10 33 22 14 20 14 24 1 45 -9 13 -11
23 -5 23 14 0 13 43 -2 58 -17 17 -43 15 -58 -3z"/>
<path d="M3156 668 c-22 -31 -20 -91 3 -119 16 -21 22 -22 45 -11 24 11 26 17
26 71 0 49 -4 62 -19 71 -28 15 -38 13 -55 -12z m52 0 c16 -16 16 -100 0 -116
-16 -16 -23 -15 -42 4 -30 30 -13 124 23 124 4 0 12 -5 19 -12z"/>
<path d="M2210 608 c0 -57 12 -73 55 -73 l35 0 -2 60 c-2 57 -2 57 -5 13 -3
-35 -9 -51 -24 -58 -29 -16 -39 -4 -39 51 0 27 -4 49 -10 49 -5 0 -10 -19 -10
-42z"/>
<path d="M2330 588 c0 -32 4 -58 10 -58 6 0 10 22 10 49 0 83 56 75 63 -9 l4
-45 1 52 c2 58 -6 68 -55 68 l-33 0 0 -57z"/>
<path d="M2435 640 c-3 -5 0 -7 8 -4 21 8 35 -16 40 -66 l4 -45 1 51 c2 49
-10 74 -34 74 -7 0 -16 -4 -19 -10z"/>
<path d="M2540 630 c-11 -11 -20 -29 -20 -40 0 -20 32 -60 49 -60 18 0 41 12
41 21 0 5 -9 4 -19 -3 -15 -9 -23 -9 -35 1 -28 23 -19 41 19 41 28 0 35 4 35
20 0 10 -9 24 -19 30 -26 13 -28 13 -51 -10z m48 -2 c19 -19 14 -28 -18 -28
-16 0 -30 4 -30 8 0 9 21 32 30 32 3 0 11 -5 18 -12z"/>
<path d="M2640 589 c0 -33 4 -59 10 -59 6 0 10 23 10 50 0 38 4 50 15 50 26 0
16 15 -10 16 -24 2 -25 0 -25 -57z"/>
<path d="M2730 630 c-11 -11 -20 -29 -20 -40 0 -23 33 -60 53 -60 41 0 61 74
29 103 -24 22 -38 21 -62 -3z m54 -6 c9 -8 16 -24 16 -34 0 -19 -25 -50 -40
-50 -5 0 -17 11 -26 25 -15 23 -15 27 0 50 19 29 29 31 50 9z"/>
</g>
</svg>
